<?xml version="1.0" encoding="utf-8"?>
<!-- Generator: Adobe Illustrator 18.0.0, SVG Export Plug-In . SVG Version: 6.00 Build 0)  -->
<!DOCTYPE svg PUBLIC "-//W3C//DTD SVG 1.1//EN" "http://www.w3.org/Graphics/SVG/1.1/DTD/svg11.dtd">
<svg version="1.1" id="图层_1" xmlns="http://www.w3.org/2000/svg" xmlns:xlink="http://www.w3.org/1999/xlink" x="0px" y="0px"
	 viewBox="0 0 20 20" enable-background="new 0 0 20 20" xml:space="preserve">
<g>
	<g>
		<defs>
			<rect id="SVGID_1_" y="0" width="20" height="20"/>
		</defs>
		<clipPath id="SVGID_2_">
			<use xlink:href="#SVGID_1_"  overflow="visible"/>
		</clipPath>
		<path clip-path="url(#SVGID_2_)" fill="" d="M19.2,14.3h-2.1V7.1C17.1,3.2,13.9,0,10,0C6.1,0,2.9,3.2,2.9,7.1v7.1H0.8
			C0.4,14.3,0,14.6,0,15c0,0.4,0.4,0.7,0.8,0.7h18.4c0.4,0,0.8-0.3,0.8-0.7C20,14.6,19.6,14.3,19.2,14.3 M4.3,14.3V7.1
			C4.3,4,6.8,1.4,10,1.4c3.2,0,5.7,2.6,5.7,5.7v7.1H4.3z"/>
		<path clip-path="url(#SVGID_2_)" fill="" d="M12.9,17.1c0,1.6-1.3,2.9-2.9,2.9c-1.6,0-2.9-1.3-2.9-2.9"/>
	</g>
</g>
</svg>
