<?xml version="1.0" encoding="utf-8"?>
<!-- Generator: Adobe Illustrator 18.0.0, SVG Export Plug-In . SVG Version: 6.00 Build 0)  -->
<!DOCTYPE svg PUBLIC "-//W3C//DTD SVG 1.1//EN" "http://www.w3.org/Graphics/SVG/1.1/DTD/svg11.dtd">
<svg version="1.1" id="图层_1" xmlns="http://www.w3.org/2000/svg" xmlns:xlink="http://www.w3.org/1999/xlink" x="0px" y="0px"
	 viewBox="0 0 20 20" style="enable-background:new 0 0 20 20;" xml:space="preserve">
<g>
	<path d="M11,14.4c-0.7,0.1-1.4,0.1-2.1,0c-0.8-0.2-1.5-0.6-2.1-1.2c-0.9-0.9-1.3-2-1.3-3.2
		c0-0.5,0.1-1,0.3-1.5l0,0c0-0.1,0.1-0.2,0.1-0.2c0.2-0.2,0.7-0.2,0.9,0l1.5,1.5c0,0,0,0,0.1,0.1c0.4,0.4,1.1,0.3,1.5,0
		c0.4-0.4,0.4-1,0-1.5c0,0,0,0-0.1-0.1L8.4,6.7C8.1,6.5,8.1,6.1,8.3,5.8c0.1-0.1,0.2-0.1,0.2-0.1l0,0C9,5.5,9.5,5.5,10,5.5
		c1.2,0,2.3,0.5,3.2,1.3c0.6,0.6,1,1.3,1.2,2.1c0.2,0.7,0.2,1.4,0,2.1l1.1,1.1c0.2-0.6,0.4-1.3,0.4-2.1c0-3.3-2.7-5.9-5.9-5.9
		S4.1,6.7,4.1,10s2.7,5.9,5.9,5.9c0.7,0,1.4-0.1,2.1-0.4L11,14.4z
		M18.7,10.7c0-0.5,0-1,0-1.5c1-0.8,1.5-2.1,1-3.2l0,0c-0.3-0.7-0.8-1.2-1.5-1.5c-0.5-0.2-1-0.3-1.5-0.2
		c-0.3-0.4-0.7-0.7-1.1-1.1c0.2-1.3-0.4-2.5-1.6-3l-0.1,0c-1.2-0.5-2.5-0.1-3.3,1c-0.5,0-1,0-1.5,0C8.8,0.8,8.4,0.5,7.9,0.3
		C7.2,0,6.5,0,5.9,0.3l-0.1,0C4.8,0.8,4.2,1.9,4.3,3.2C3.9,3.6,3.6,4,3.2,4.4C1.9,4.3,0.7,4.9,0.3,6l0,0.1c-0.4,1.1-0.1,2.3,0.9,3.2
		c0,0.5-0.1,1.1,0,1.6c-1,0.8-1.4,2.2-1,3.2l0,0.1c0.2,0.6,0.7,1.1,1.4,1.3c0.5,0.2,1,0.3,1.6,0.2c0.3,0.4,0.7,0.8,1.1,1.1
		c-0.1,1.3,0.5,2.5,1.6,3l0.1,0c1.1,0.4,2.3,0,3.1-1c0.5,0,1.1,0.1,1.6,0c0.3,0.4,0.7,0.8,1.2,1c0.6,0.3,1.3,0.2,2,0l0.1,0
		c1.2-0.5,1.8-1.7,1.6-3c0.4-0.3,0.7-0.7,1-1c1.3,0.2,2.6-0.4,3-1.6l0-0.1C20.2,12.8,19.8,11.5,18.7,10.7L18.7,10.7z M18.5,13.6
		c-0.3,0.7-1.1,1-1.9,0.7c-0.3-0.1-0.6,0-0.7,0.2c-0.4,0.5-0.8,0.9-1.4,1.4c-0.2,0.2-0.3,0.4-0.2,0.7c0.2,0.8-0.1,1.6-0.8,1.9
		l-0.1,0c-0.3,0.1-0.6,0.1-1,0c-0.3-0.1-0.6-0.4-0.8-0.8c-0.1-0.2-0.4-0.4-0.7-0.3c-0.7,0.1-1.4,0.1-2.1,0c-0.3,0-0.5,0.1-0.6,0.3
		c-0.4,0.6-1.1,1.1-1.8,0.8l-0.1,0c-0.6-0.3-1-1.1-0.8-1.9c0.1-0.2,0-0.5-0.2-0.7c-0.5-0.4-1-0.9-1.4-1.4c-0.1-0.1-0.2-0.2-0.3-0.2
		c-0.1-0.1-0.3-0.1-0.4,0c-0.4,0.1-0.9,0.1-1.2-0.1c-0.2-0.1-0.5-0.3-0.6-0.6l0-0.1c-0.3-0.6,0.1-1.5,0.8-1.9
		c0.2-0.1,0.3-0.4,0.3-0.6c-0.1-0.7-0.1-1.3,0-2c0-0.3-0.1-0.5-0.3-0.6c-0.7-0.4-1-1.2-0.8-1.8l0-0.1c0.2-0.6,1-0.9,1.8-0.8
		C3.6,5.8,3.8,5.7,4,5.5C4.4,4.9,4.9,4.4,5.4,4c0.2-0.2,0.3-0.4,0.2-0.7c-0.2-0.7,0-1.6,0.7-1.8l0.1,0c0.3-0.1,0.7-0.1,1,0
		c0.4,0.1,0.7,0.4,0.9,0.8c0.1,0.2,0.4,0.3,0.6,0.3c0.6-0.1,1.3-0.1,1.9,0c0.3,0,0.5-0.1,0.7-0.3c0.4-0.7,1.2-1,1.9-0.8l0.1,0
		c0.7,0.3,1,1,0.7,1.8c-0.1,0.3,0,0.5,0.2,0.7c0.5,0.4,1,0.9,1.4,1.4c0.2,0.2,0.4,0.3,0.7,0.2c0.4-0.1,0.8-0.1,1.1,0
		c0.4,0.1,0.6,0.4,0.8,0.8l0,0c0.3,0.7,0,1.4-0.8,1.8c-0.2,0.1-0.4,0.4-0.3,0.7c0.1,0.7,0.1,1.4,0,2c0,0.3,0.1,0.5,0.4,0.7
		C18.5,12,18.8,12.8,18.5,13.6L18.5,13.6L18.5,13.6z"/>
</g>
</svg>