<?xml version="1.0" encoding="utf-8"?>
<!-- Generator: Adobe Illustrator 18.0.0, SVG Export Plug-In . SVG Version: 6.00 Build 0)  -->
<!DOCTYPE svg PUBLIC "-//W3C//DTD SVG 1.1//EN" "http://www.w3.org/Graphics/SVG/1.1/DTD/svg11.dtd">
<svg version="1.1" id="图层_1" xmlns="http://www.w3.org/2000/svg" xmlns:xlink="http://www.w3.org/1999/xlink" x="0px" y="0px"
	 viewBox="0 0 20 20" enable-background="new 0 0 20 20" xml:space="preserve">
<g>
	<path fill="" d="M17.3,0H2.7C1.2,0,0,1.2,0,2.7v8.6c0,0,0,0,0,0c0,0,0,0,0,0v6.1C0,18.8,1.2,20,2.7,20h14.7
		c1.5,0,2.7-1.2,2.7-2.7V2.7C20,1.2,18.8,0,17.3,0z M17.3,18.9H2.7c-0.8,0-1.5-0.7-1.5-1.5v-5.5h2l0.7,2.5c0.1,0.2,0.2,0.4,0.5,0.4
		c0.2,0,0.4-0.1,0.6-0.3l1.5-2.4l1.5,5c0.1,0.2,0.3,0.4,0.5,0.4c0,0,0,0,0.1,0c0.3,0,0.5-0.2,0.5-0.5l1.1-9l0.5,3.4
		c0,0.3,0.3,0.5,0.6,0.5H14c0.3,0,0.6-0.3,0.6-0.6c0-0.3-0.3-0.6-0.6-0.6h-2.4l-1.1-7c0-0.3-0.3-0.5-0.6-0.5c-0.3,0-0.5,0.2-0.5,0.5
		L8.2,14.2l-1.1-3.6c-0.1-0.2-0.2-0.4-0.5-0.4c-0.2,0-0.4,0.1-0.5,0.3l-1.5,2.4l-0.5-1.7c-0.1-0.2-0.3-0.4-0.5-0.4H1.1v-8
		c0-0.8,0.7-1.5,1.5-1.5h14.7c0.8,0,1.5,0.7,1.5,1.5v8h-0.7c-0.3,0-0.6,0.3-0.6,0.6c0,0.3,0.3,0.6,0.6,0.6h0.7v5.5
		C18.9,18.2,18.2,18.9,17.3,18.9z"/>
	<path fill="" d="M16.7,10.7h-1.2c-0.3,0-0.6,0.3-0.6,0.6c0,0.3,0.3,0.6,0.6,0.6h1.2c0.3,0,0.6-0.3,0.6-0.6
		C17.2,10.9,17,10.7,16.7,10.7z"/>
</g>
</svg>
