<?xml version="1.0" encoding="utf-8"?>
<!-- Generator: Adobe Illustrator 18.0.0, SVG Export Plug-In . SVG Version: 6.00 Build 0)  -->
<!DOCTYPE svg PUBLIC "-//W3C//DTD SVG 1.1//EN" "http://www.w3.org/Graphics/SVG/1.1/DTD/svg11.dtd">
<svg version="1.1" id="图层_1" xmlns="http://www.w3.org/2000/svg" xmlns:xlink="http://www.w3.org/1999/xlink" x="0px" y="0px"
	 viewBox="0 0 20 20" enable-background="new 0 0 20 20" xml:space="preserve">
<g>
	<path fill="" d="M9.4,1.2H8C3.5,2,0,6,0,10.6C0,15.9,4.1,20,9.4,20c4.7,0,8.7-3.5,9.4-8v-1.4H9.4V1.2z M17.2,12
		c-0.6,3.8-3.9,6.8-7.9,6.8c-4.5,0-8.1-3.6-8.1-8.1c0-4,2.9-7.3,6.8-7.9V12H17.2z"/>
	<path fill="" d="M10.6,0v9.2H20C19.4,4.5,15.5,0.6,10.6,0z M12,1.8C15,2.6,17.4,5,18.3,8H12V1.8z"/>
</g>
</svg>
