<?xml version="1.0" encoding="utf-8"?>
<!-- Generator: Adobe Illustrator 18.0.0, SVG Export Plug-In . SVG Version: 6.00 Build 0)  -->
<!DOCTYPE svg PUBLIC "-//W3C//DTD SVG 1.1//EN" "http://www.w3.org/Graphics/SVG/1.1/DTD/svg11.dtd">
<svg version="1.1" id="图层_1" xmlns="http://www.w3.org/2000/svg" xmlns:xlink="http://www.w3.org/1999/xlink" x="0px" y="0px"
	 viewBox="0 0 20 20" enable-background="new 0 0 20 20" xml:space="preserve">
<path d="M18.9,0.1H16c-0.7,0-1.2,0.5-1.2,1.2v0.9H9.4v0.2v1v3.8C8,7.5,7,8.7,7,10.1s1,2.6,2.3,2.9v3.8H5.2V16c0-0.7-0.5-1.2-1.2-1.2
	H1.1c-0.7,0-1.2,0.5-1.2,1.2v2.9c0,0.7,0.5,1.2,1.2,1.2H4c0.7,0,1.2-0.5,1.2-1.2v-0.8h5.4v-0.2v-1.1V13c1.3-0.3,2.3-1.5,2.3-2.9
	s-1-2.6-2.3-2.9V3.4h4.1v0.8c0,0.7,0.5,1.2,1.2,1.2h2.9c0.7,0,1.2-0.5,1.2-1.2V1.2C20.1,0.6,19.5,0.1,18.9,0.1z M3.8,18.8H1.2v-2.6
	h2.6V18.8z M11.7,10.1c0,1-0.8,1.7-1.7,1.7s-1.7-0.8-1.7-1.7S9,8.4,10,8.4S11.7,9.1,11.7,10.1z M18.8,3.9h-2.6V1.4h2.6V3.9z"/>
</svg>
