<?xml version="1.0" encoding="utf-8"?>
<!-- Generator: Adobe Illustrator 19.0.0, SVG Export Plug-In . SVG Version: 6.00 Build 0)  -->
<svg version="1.1" id="图层_1" xmlns="http://www.w3.org/2000/svg" xmlns:xlink="http://www.w3.org/1999/xlink" x="0px" y="0px"
	 viewBox="0 0 18 18" enable-background="new 0 0 18 18" xml:space="preserve">
<rect id="XMLID_4_" x="8.033" y="4.032" transform="matrix(0.7071 0.7071 -0.7071 0.7071 9 -3.7279)" fill="#8B0000" width="1.934" height="9.936"/>
<rect id="XMLID_3_" x="8.033" y="4.032" transform="matrix(-0.7071 0.7071 -0.7071 -0.7071 21.7279 9)" fill="#8B0000" width="1.934" height="9.936"/>
<path id="XMLID_6_" fill="#8B0000" d="M9,0C4.029,0,0,4.029,0,9s4.029,9,9,9s9-4.029,9-9S13.971,0,9,0z M9,16.242
	C5,16.242,1.758,13,1.758,9S5,1.758,9,1.758S16.242,5,16.242,9S13,16.242,9,16.242z"/>
</svg>
