<?xml version="1.0" encoding="utf-8"?>
<!-- Generator: Adobe Illustrator 19.0.0, SVG Export Plug-In . SVG Version: 6.00 Build 0)  -->
<svg version="1.1" id="图层_1" xmlns="http://www.w3.org/2000/svg" xmlns:xlink="http://www.w3.org/1999/xlink" x="0px" y="0px"
	 viewBox="0 0 18 18" enable-background="new 0 0 18 18" xml:space="preserve">
<g id="XMLID_8_">
	<path id="XMLID_4_" fill="#00698B" d="M16.05,7.339C16.176,7.872,16.242,8.428,16.242,9c0,4-3.242,7.242-7.242,7.242
		c-2.532,0-4.761-1.3-6.055-3.269c-0.151-0.229-0.289,0.29-0.413,0.044L0.87,12.864C2.316,15.901,5.413,18,9,18c4.971,0,9-4.029,9-9
		c0-0.783-0.1-1.542-0.288-2.266L16.05,7.339z"/>
	<path id="XMLID_3_" fill="#00698B" d="M1.95,10.661C1.824,10.128,1.758,9.572,1.758,9C1.758,5,5,1.758,9,1.758
		c2.532,0,4.761,1.3,6.055,3.269c0.151,0.229,0.289-0.29,0.413-0.044l1.662,0.153C15.684,2.099,12.587,0,9,0C4.029,0,0,4.029,0,9
		c0,0.783,0.1,1.542,0.288,2.266L1.95,10.661z"/>
</g>
<polygon id="XMLID_2_" fill="#00698B" points="17.13,5.136 10.808,5.182 13.158,2.093 "/>
<polygon id="XMLID_1_" fill="#00698B" points="0.87,12.864 7.192,12.818 4.842,15.907 "/>
</svg>
