<?xml version="1.0" encoding="utf-8"?>
<!-- Generator: Adobe Illustrator 18.0.0, SVG Export Plug-In . SVG Version: 6.00 Build 0)  -->
<!DOCTYPE svg PUBLIC "-//W3C//DTD SVG 1.1//EN" "http://www.w3.org/Graphics/SVG/1.1/DTD/svg11.dtd">
<svg version="1.1" id="图层_1" xmlns="http://www.w3.org/2000/svg" xmlns:xlink="http://www.w3.org/1999/xlink" x="0px" y="0px"
	 viewBox="0 0 70 70" enable-background="new 0 0 70 70" xml:space="preserve" width="70" height="70">
<g>
	<path fill="#fff776" d="M35,17.9c-9.4,0-17.1,7.7-17.1,17.1c0,9.4,7.7,17.1,17.1,17.1
		c9.4,0,17.1-7.7,17.1-17.1C52.1,25.6,44.4,17.9,35,17.9 M35,48.8c-7.6,0-13.8-6.2-13.8-13.8c0-7.6,6.2-13.8,13.8-13.8
		S48.8,27.4,48.8,35C48.8,42.6,42.6,48.8,35,48.8
		M70,38.2v-6.4l-6.7-1.2c-0.1-0.8-0.3-1.6-0.5-2.4l5.7-3.7l-2.4-5.9l-6.7,1.4
		c-0.4-0.7-0.9-1.4-1.3-2l3.9-5.6L57.5,8l-5.6,3.9c-0.6-0.5-1.3-0.9-2-1.3l1.4-6.7l-5.9-2.4l-3.7,5.7C41,7,40.2,6.8,39.4,6.7L38.2,0
		h-6.4l-1.2,6.7C29.8,6.8,29,7,28.2,7.2l-3.7-5.7l-5.9,2.4l1.4,6.7c-0.7,0.4-1.4,0.9-2,1.3L12.5,8L8,12.5l3.9,5.6
		c-0.5,0.6-0.9,1.3-1.3,2l-6.7-1.4l-2.4,5.9l5.7,3.7C7,29,6.8,29.8,6.7,30.6L0,31.8v6.4l6.7,1.2C6.8,40.2,7,41,7.2,41.8l-5.7,3.7
		l2.4,5.9l6.7-1.4c0.4,0.7,0.9,1.4,1.3,2L8,57.5l4.5,4.5l5.6-3.9c0.6,0.5,1.3,0.9,2,1.3l-1.4,6.7l5.9,2.4l3.7-5.7
		c0.8,0.2,1.6,0.3,2.4,0.5l1.2,6.7h6.4l1.2-6.7c0.8-0.1,1.6-0.3,2.4-0.5l3.7,5.7l5.9-2.4l-1.4-6.7c0.7-0.4,1.4-0.9,2-1.3l5.6,3.9
		l4.5-4.5l-3.9-5.6c0.5-0.6,0.9-1.3,1.3-2l6.7,1.4l2.4-5.9l-5.7-3.7c0.2-0.8,0.3-1.6,0.5-2.4L70,38.2z M35,53.3
		c-10.1,0-18.3-8.2-18.3-18.3c0-10.1,8.2-18.3,18.3-18.3S53.3,24.9,53.3,35C53.3,45.1,45.1,53.3,35,53.3"/>
</g>
</svg>
