<?xml version="1.0" encoding="utf-8"?>
<!-- Generator: Adobe Illustrator 18.0.0, SVG Export Plug-In . SVG Version: 6.00 Build 0)  -->
<!DOCTYPE svg PUBLIC "-//W3C//DTD SVG 1.1//EN" "http://www.w3.org/Graphics/SVG/1.1/DTD/svg11.dtd">
<svg version="1.1" id="图层_1" xmlns="http://www.w3.org/2000/svg" xmlns:xlink="http://www.w3.org/1999/xlink" x="0px" y="0px"
	 viewBox="0 0 40 40" enable-background="new 0 0 40 40" xml:space="preserve" width="40" height="40">
<g>
	<path fill="#ff5d5d" d="M38.7,12.5l-2.8-4.9l-5.9,2.2c-0.8-0.8-1.7-1.5-2.6-2l0,0l0.6-6.3L22.4,0l-2.6,5.8c-1.1,0-2.2,0.2-3.3,0.4
		l-4-4.9L7.6,4.2l2.2,5.9c-0.8,0.8-1.5,1.7-2,2.6l-6.3-0.6L0,17.6l5.8,2.6c0,1.1,0.2,2.2,0.4,3.3l-4.9,4l2.8,4.9l5.9-2.2
		c0.8,0.8,1.7,1.5,2.6,2l-0.6,6.3l5.5,1.5l2.6-5.8c1.1,0,2.2-0.2,3.3-0.4l4,4.9l4.9-2.8l-2.2-5.9c0.8-0.8,1.5-1.7,2-2.6l6.3,0.6
		l1.5-5.5l-5.8-2.6c0-1.1-0.2-2.2-0.4-3.3L38.7,12.5z M24.1,27.1c-3.9,2.3-9,0.9-11.2-3c-2.3-3.9-0.9-9,3-11.2s9-0.9,11.2,3
		C29.4,19.8,28,24.9,24.1,27.1
		M16.4,13.8c-3.4,2-4.6,6.3-2.6,9.7c2,3.4,6.3,4.6,9.7,2.6c3.4-2,4.6-6.3,2.6-9.7
		C24.2,13.1,19.8,11.9,16.4,13.8 M22.8,24.9c-2.7,1.6-6.2,0.6-7.8-2.1c-1.6-2.7-0.6-6.2,2.1-7.8c2.7-1.6,6.2-0.6,7.8,2.1
		C26.5,19.9,25.6,23.4,22.8,24.9"/>
</g>
</svg>
