<?xml version="1.0" encoding="utf-8"?>
<!-- Generator: Adobe Illustrator 18.0.0, SVG Export Plug-In . SVG Version: 6.00 Build 0)  -->
<!DOCTYPE svg PUBLIC "-//W3C//DTD SVG 1.1//EN" "http://www.w3.org/Graphics/SVG/1.1/DTD/svg11.dtd">
<svg version="1.1" id="图层_1" xmlns="http://www.w3.org/2000/svg" xmlns:xlink="http://www.w3.org/1999/xlink" x="0px" y="0px"
	 viewBox="0 0 50 50" enable-background="new 0 0 50 50" xml:space="preserve" width="30" height="30">
<g>
	<polygon id="XMLID_386_" fill="#717070" points="40,36.5 16.3,50 16.3,19.8 40,6.2 	"/>
	<polygon id="XMLID_385_" fill="#C7C6C6" points="40,6.2 16.3,19.8 5,13.5 28.8,0 	"/>
	<polygon id="XMLID_384_" fill="#A7A7A6" points="16.3,50 5,43.8 5,13.5 16.3,19.8 	"/>
	<polygon id="XMLID_383_" fill="#C7C6C6" points="16.3,41.8 7.7,37.5 8.3,36.8 16.3,41.3 17.8,40.5 18,41 	"/>
	<polygon id="XMLID_382_" fill="#C7C6C6" points="16.3,43.2 7.7,39 8.3,38.3 16.3,42.8 17.8,42 18,42.5 	"/>
	<polygon id="XMLID_381_" fill="#C7C6C6" points="16.3,44.8 7.7,40.5 8.3,39.8 16.3,44.3 17.8,43.5 18,44 	"/>
	<polygon id="XMLID_380_" fill="#C7C6C6" points="16.3,46.3 7.7,42 8.3,41.3 16.3,45.7 17.8,45 18,45.5 	"/>
	<polygon id="XMLID_379_" fill="#C7C6C6" points="16.3,48 7.7,43.5 8.3,42.8 16.3,47.3 17.8,46.5 18,47 	"/>
	<polygon id="XMLID_378_" fill="#A7A7A6" points="7.7,12 7,12.3 18.3,18.5 18.3,18.5 18.3,18.5 18.3,48.8 19,48.5 19,18.3 19,18.3 	
		"/>
	<path id="XMLID_365_" fill="#C7C6C6" d="M14.2,23.3H14l-7.3-3.7c-0.5-0.2-0.5-0.7-0.2-0.8c0.2-0.2,0.5-0.5,0.7-0.2l7.3,3.7
		c0.2,0,0.5,0.5,0.2,0.8C14.8,23.3,14.5,23.3,14.2,23.3z"/>
</g>
<path fill="#A7A7A6" d="M45,34.5c0,6.8-3.8,10.3-8.3,7.8s-8.3-10.2-8.3-17s3.8-10.3,8.3-7.8S45,27.7,45,34.5z"/>
<g>
	<g>
		<path fill="#FFFFFF" d="M35.1,34l-1-0.5L33.8,31l-1.7-0.8l-0.3,2.2l-1-0.5l1.7-9l1.2,0.7L35.1,34z M33.5,29.1L33,25.5
			c0-0.2,0-0.5,0-0.8l0,0c0,0.3,0,0.5,0,0.8l-0.5,3.2L33.5,29.1z"/>
		<path fill="#FFFFFF" d="M36.8,31.3v3.5l-1-0.5v-10l1.7,0.8c1.2,0.7,1.7,2,1.7,4c0,1-0.2,1.7-0.5,2.2c-0.3,0.5-0.8,0.5-1.3,0.2
			L36.8,31.3z M36.8,26.5v3.2l0.5,0.2c0.5,0.3,0.8,0,0.8-1.2c0-1-0.3-1.7-0.8-2L36.8,26.5z"/>
		<path fill="#FFFFFF" d="M40.8,33.5V37l-1-0.5v-9.8l1.7,0.8c1.2,0.7,1.7,2,1.7,4c0,1-0.2,1.7-0.5,2.2c-0.3,0.5-0.8,0.5-1.3,0.2
			L40.8,33.5z M40.8,28.6v3.2l0.5,0.2c0.5,0.3,0.8,0,0.8-1.2c0-1-0.3-1.7-0.8-2L40.8,28.6z"/>
	</g>
</g>
</svg>
