<?xml version="1.0" encoding="utf-8"?>
<!-- Generator: Adobe Illustrator 18.0.0, SVG Export Plug-In . SVG Version: 6.00 Build 0)  -->
<!DOCTYPE svg PUBLIC "-//W3C//DTD SVG 1.1//EN" "http://www.w3.org/Graphics/SVG/1.1/DTD/svg11.dtd">
<svg version="1.1" id="图层_1" xmlns="http://www.w3.org/2000/svg" xmlns:xlink="http://www.w3.org/1999/xlink" x="0px" y="0px"
	 viewBox="0 0 30 30" enable-background="new 0 0 30 30" xml:space="preserve" width="30" height="30">
<g>
	<polygon id="XMLID_386_" fill="#AA8333" points="24,21.9 9.8,30 9.8,11.9 24,3.7 	"/>
	<polygon id="XMLID_385_" fill="#E0C183" points="24,3.7 9.8,11.9 3,8.1 17.3,0 	"/>
	<polygon id="XMLID_384_" fill="#D8B05B" points="9.8,30 3,26.3 3,8.1 9.8,11.9 	"/>
	<polygon id="XMLID_383_" fill="#E0C183" points="9.8,25.1 4.6,22.5 5,22.1 9.8,24.8 10.7,24.3 10.8,24.6 	"/>
	<polygon id="XMLID_382_" fill="#E0C183" points="9.8,25.9 4.6,23.4 5,23 9.8,25.7 10.7,25.2 10.8,25.5 	"/>
	<polygon id="XMLID_381_" fill="#E0C183" points="9.8,26.9 4.6,24.3 5,23.9 9.8,26.6 10.7,26.1 10.8,26.4 	"/>
	<polygon id="XMLID_380_" fill="#E0C183" points="9.8,27.8 4.6,25.2 5,24.8 9.8,27.4 10.7,27 10.8,27.3 	"/>
	<polygon id="XMLID_379_" fill="#E0C183" points="9.8,28.8 4.6,26.1 5,25.7 9.8,28.4 10.7,27.9 10.8,28.2 	"/>
	<polygon id="XMLID_378_" fill="#D8B05B" points="4.6,7.2 4.2,7.4 11,11.1 11,11.1 11,11.1 11,29.3 11.4,29.1 11.4,11 11.4,11 	"/>
	<path id="XMLID_365_" fill="#E0C183" d="M8.5,14H8.4L4,11.8c-0.3-0.1-0.3-0.4-0.1-0.5C4,11.2,4.2,11,4.3,11.2l4.4,2.2
		c0.1,0,0.3,0.3,0.1,0.5C8.9,14,8.7,14,8.5,14z"/>
	<path fill="#D8B05B" d="M27,20.7c0,4.1-2.3,6.2-5,4.7s-5-6.1-5-10.2s2.3-6.2,5-4.7S27,16.6,27,20.7z"/>
	<g>
		<path fill="#FFFFFF" d="M21,20.8l-0.6-0.3l-0.2-1.5l-1-0.5l-0.2,1.3l-0.6-0.3l1-5.4l0.7,0.4L21,20.8z M20,17.9l-0.3-2.2
			c0-0.1,0-0.3,0-0.5l0,0c0,0.2,0,0.3,0,0.5l-0.3,1.9L20,17.9z"/>
		<path fill="#FFFFFF" d="M22,19.2v2.1L21.4,21V15l1,0.5c0.7,0.4,1,1.2,1,2.4c0,0.6-0.1,1-0.3,1.3c-0.2,0.3-0.5,0.3-0.8,0.1L22,19.2
			z M22,16.3v1.9l0.3,0.1c0.3,0.2,0.5,0,0.5-0.7c0-0.6-0.2-1-0.5-1.2L22,16.3z"/>
		<path fill="#FFFFFF" d="M24.4,20.5v2.1l-0.6-0.3v-5.9l1,0.5c0.7,0.4,1,1.2,1,2.4c0,0.6-0.1,1-0.3,1.3c-0.2,0.3-0.5,0.3-0.8,0.1
			L24.4,20.5z M24.4,17.6v1.9l0.3,0.1c0.3,0.2,0.5,0,0.5-0.7c0-0.6-0.2-1-0.5-1.2L24.4,17.6z"/>
	</g>
</g>
</svg>
