<?xml version="1.0" encoding="utf-8"?>
<!-- Generator: Adobe Illustrator 18.0.0, SVG Export Plug-In . SVG Version: 6.00 Build 0)  -->
<!DOCTYPE svg PUBLIC "-//W3C//DTD SVG 1.1//EN" "http://www.w3.org/Graphics/SVG/1.1/DTD/svg11.dtd">
<svg version="1.1" id="图层_1" xmlns="http://www.w3.org/2000/svg" xmlns:xlink="http://www.w3.org/1999/xlink" x="0px" y="0px"
	 viewBox="0 0 50 50" enable-background="new 0 0 50 50" xml:space="preserve" width="30" height="30">
<polygon id="XMLID_386_" fill="#317957" points="39,36.5 15.3,50 15.3,19.8 39,6.2 "/>
<polygon id="XMLID_385_" fill="#8EC7AD" points="39,6.2 15.3,19.8 4,13.5 27.8,0 "/>
<polygon id="XMLID_384_" fill="#60A787" points="15.3,50 4,43.8 4,13.5 15.3,19.8 "/>
<polygon id="XMLID_383_" fill="#8EC7AD" points="15.3,41.8 6.7,37.5 7.3,36.8 15.3,41.3 16.8,40.5 17,41 "/>
<polygon id="XMLID_382_" fill="#8EC7AD" points="15.3,43.2 6.7,39 7.3,38.3 15.3,42.8 16.8,42 17,42.5 "/>
<polygon id="XMLID_381_" fill="#8EC7AD" points="15.3,44.8 6.7,40.5 7.3,39.8 15.3,44.3 16.8,43.5 17,44 "/>
<polygon id="XMLID_380_" fill="#8EC7AD" points="15.3,46.3 6.7,42 7.3,41.3 15.3,45.7 16.8,45 17,45.5 "/>
<polygon id="XMLID_379_" fill="#8EC7AD" points="15.3,48 6.7,43.5 7.3,42.8 15.3,47.3 16.8,46.5 17,47 "/>
<polygon id="XMLID_378_" fill="#60A787" points="6.7,12 6,12.3 17.3,18.5 17.3,18.5 17.3,18.5 17.3,48.8 18,48.5 18,18.3 18,18.3 
	"/>
<path id="XMLID_365_" fill="#8EC7AD" d="M13.2,23.3H13l-7.3-3.7c-0.5-0.1-0.5-0.6-0.2-0.8c0.2-0.2,0.5-0.5,0.7-0.2l7.3,3.6
	c0.2,0,0.5,0.5,0.2,0.8C13.8,23.3,13.5,23.3,13.2,23.3z"/>
<path fill="#60A787" d="M44,34.5c0,6.9-3.8,10.4-8.4,7.9s-8.4-10.1-8.4-16.9s3.8-10.4,8.4-7.9S44,27.7,44,34.5z"/>
<g>
	<path fill="#FFFFFF" d="M33.8,34.1l-1-0.5l-0.3-2.5l-1.7-0.9l-0.3,2.2l-1-0.5l1.7-9l1.2,0.7L33.8,34.1z M32.1,29.2l-0.5-3.7
		c0-0.2,0-0.5,0-0.8l0,0c0,0.3,0,0.5,0,0.8l-0.5,3.2L32.1,29.2z"/>
	<path fill="#FFFFFF" d="M35.5,31.4v3.5l-1-0.5v-10l1.7,0.8c1.2,0.7,1.7,2,1.7,4c0,1-0.2,1.7-0.5,2.2s-0.8,0.5-1.3,0.2L35.5,31.4z
		 M35.5,26.6v3.2L36,30c0.5,0.3,0.8,0,0.8-1.2c0-1-0.3-1.7-0.8-2L35.5,26.6z"/>
	<path fill="#FFFFFF" d="M39.5,33.6v3.5l-1-0.5v-9.8l1.7,0.8c1.2,0.7,1.7,2,1.7,4c0,1-0.2,1.7-0.5,2.2s-0.8,0.5-1.3,0.2L39.5,33.6z
		 M39.5,28.7v3.2l0.5,0.2c0.5,0.3,0.8,0,0.8-1.2c0-1-0.3-1.7-0.8-2L39.5,28.7z"/>
</g>
</svg>
