<?xml version="1.0" encoding="utf-8"?>
<!-- Generator: Adobe Illustrator 19.0.0, SVG Export Plug-In . SVG Version: 6.00 Build 0)  -->
<svg version="1.1" id="图层_1" xmlns="http://www.w3.org/2000/svg" xmlns:xlink="http://www.w3.org/1999/xlink" x="0px" y="0px"
	 viewBox="0 0 30 30" style="enable-background:new 0 0 30 30;" xml:space="preserve" width="30" height="30">
<style type="text/css">
	.st0{fill:#EAC986;}
	.st1{fill:#E5B95A;}
	.st2{fill:#B28730;}
</style>
<g id="XMLID_1054_">
	<polygon id="XMLID_1067_" class="st0" points="5,0.3 7.6,0.1 26,10.6 24,11 	"/>
	<polygon id="XMLID_1066_" class="st1" points="16.2,29.9 7,24.6 7,23.4 16.2,28.7 	"/>
	<polygon id="XMLID_1065_" class="st0" points="22.7,24.6 13.6,19.3 7,23.4 16.2,28.7 	"/>
	<polygon id="XMLID_1064_" class="st2" points="22.7,25.9 16.2,29.9 16.2,28.7 22.7,24.6 	"/>
	<polygon id="XMLID_1063_" class="st1" points="12,20.8 12,24.2 15,25.9 15,22.1 	"/>
	<polygon id="XMLID_1062_" class="st2" points="15,25.9 18.2,24.2 17.2,22.5 15,22.1 	"/>
	<polygon id="XMLID_1061_" class="st1" points="6,2.4 6,16.7 23,25.5 23,11.6 	"/>
	<polygon id="XMLID_1060_" class="st2" points="8,15.6 6,16.3 6,2.6 8,3 	"/>
	<polygon id="XMLID_1059_" class="st0" points="6.1,16.3 8,15.6 23,23.4 23,25.9 	"/>
	<path id="XMLID_1056_" class="st1" d="M5,0.3v17l19,10.7v-17L5,0.3z M23,25.5L6,16.3V2.7l17,9.2V25.5z"/>
	<polygon id="XMLID_1055_" class="st2" points="26,10.6 24,10.9 24,27.9 26,27.2 	"/>
</g>
</svg>
