<?xml version="1.0" encoding="utf-8"?>
<!-- Generator: Adobe Illustrator 18.0.0, SVG Export Plug-In . SVG Version: 6.00 Build 0)  -->
<!DOCTYPE svg PUBLIC "-//W3C//DTD SVG 1.1//EN" "http://www.w3.org/Graphics/SVG/1.1/DTD/svg11.dtd">
<svg version="1.1" id="图层_1" xmlns="http://www.w3.org/2000/svg" xmlns:xlink="http://www.w3.org/1999/xlink" x="0px" y="0px"
	 viewBox="0 0 30 30" enable-background="new 0 0 30 30" xml:space="preserve" width="30" height="30">
<g>
	<polyline fill="#CDA75A" points="0,3.4 0,30 26.8,30 26.8,3.4 0,3.4"/>
	<polyline fill="#D5B87E" points="0,3.4 3.2,0 30,0 26.8,3.4 0,3.4"/>
	<polyline fill="#A17D33" points="26.8,3.4 30,0 30,26.7 26.8,30 26.8,3.4"/>

	<path fill="#FFFFFF" d="M9.1,23.5v-9.9c0-0.4-0.3-0.7-0.7-0.7h-2c-0.4,0-0.7,0.4-0.7,0.7v9.9H9.1L9.1,23.5L9.1,23.5L9.1,23.5z
			 M13.4,23.5V9.4c0-0.4-0.3-0.7-0.7-0.7h-2c-0.4,0-0.7,0.4-0.7,0.7v14.1H13.4L13.4,23.5L13.4,23.5L13.4,23.5z M17.8,23.5v-6.2
			c0-0.4-0.3-0.7-0.7-0.7h-2c-0.4,0-0.7,0.4-0.7,0.7v6.2H17.8L17.8,23.5L17.8,23.5L17.8,23.5z M22.2,23.5v-9.9
			c0-0.4-0.3-0.7-0.7-0.7h-2c-0.4,0-0.7,0.4-0.7,0.7v9.9H22.2L22.2,23.5L22.2,23.5L22.2,23.5z M22.8,24.4H4.7V8.3
			c0-0.4-0.3-0.6-0.6-0.6C3.8,7.7,3.5,8,3.5,8.3v17.3h19.3c0.4,0,0.6-0.3,0.6-0.6S23.2,24.4,22.8,24.4L22.8,24.4L22.8,24.4
			L22.8,24.4z"/>
</g>
</svg>
