<?xml version="1.0" encoding="utf-8"?>
<!-- Generator: Adobe Illustrator 18.0.0, SVG Export Plug-In . SVG Version: 6.00 Build 0)  -->
<!DOCTYPE svg PUBLIC "-//W3C//DTD SVG 1.1//EN" "http://www.w3.org/Graphics/SVG/1.1/DTD/svg11.dtd">
<svg version="1.1" id="图层_1" xmlns="http://www.w3.org/2000/svg" xmlns:xlink="http://www.w3.org/1999/xlink" x="0px" y="0px"
	 viewBox="0 0 30 30" enable-background="new 0 0 30 30" xml:space="preserve" width="30" height="30">
<g>
	<g id="XMLID_47_">
		<polygon id="XMLID_60_" fill="#337C58" points="23.9,22.5 10.9,30 10.9,10 23.9,2.6 		"/>
		<polygon id="XMLID_59_" fill="#60AC8B" points="10.9,30 5.9,27.3 5.9,7.4 10.9,10 		"/>
		<polygon id="XMLID_58_" fill="#91CDB2" points="23.9,2.6 10.9,10 5.9,7.4 19,0 		"/>
		<g id="XMLID_49_">
			<path id="XMLID_51_" fill="#FFFFFF" d="M23.9,6.5V5.7l-3.1,1.8V4.4l-0.6,0.1v3.3L10.9,13v0.8l6.3-3.6v2.5l-6.3,3.5V17l2.8-1.7V18
				l-2.8,1.7v0.8l13.2-7.3v-0.9l-3.3,1.8v-2.7l3.3-1.8V9l-6.3,3.5V9.9L23.9,6.5z M20.2,14.3l-5.8,3.3V15l5.8-3.3V14.3z"/>
			<polygon id="XMLID_50_" fill="#FFFFFF" points="10.9,23.5 13.7,21.9 13.7,24.4 10.9,26.1 10.9,26.8 23.9,19.5 23.9,18.8 
				14.3,24.2 14.3,21.6 23.9,16.2 23.9,15.5 10.9,22.8 			"/>
		</g>
		<polygon id="XMLID_48_" fill="#FFFFFF" points="23.9,2.6 23.6,2.4 10.9,9.6 6.2,7 5.9,7.4 5.9,7.4 5.9,7.6 10.4,10.2 10.4,29.8 
			10.9,30 10.9,30 11.2,29.8 11.2,10.2 23.9,2.8 		"/>
	</g>
	<g>
		<rect x="20.5" y="17.6" fill="#FFFFFF" width="0.6" height="3.3"/>
		<rect x="13.4" y="8.4" fill="#FFFFFF" width="0.6" height="3.3"/>
		<rect x="17.3" y="15.9" fill="#FFFFFF" width="0.6" height="3.3"/>
		<polygon fill="#FFFFFF" points="18.2,25.8 17.6,26.1 17.6,22.5 18.2,22.5 		"/>
	</g>
</g>
</svg>
