<?xml version="1.0" encoding="utf-8"?>
<!-- Generator: Adobe Illustrator 18.0.0, SVG Export Plug-In . SVG Version: 6.00 Build 0)  -->
<!DOCTYPE svg PUBLIC "-//W3C//DTD SVG 1.1//EN" "http://www.w3.org/Graphics/SVG/1.1/DTD/svg11.dtd">
<svg version="1.1" id="图层_1" xmlns="http://www.w3.org/2000/svg" xmlns:xlink="http://www.w3.org/1999/xlink" x="0px" y="0px"
	 viewBox="0 0 30 30" enable-background="new 0 0 30 30" xml:space="preserve" width="30" height="30">
<g>
	<g id="XMLID_114_">
		<polygon id="XMLID_127_" fill="#982D2C" points="23.9,22.5 10.9,30 10.9,10 23.9,2.5 		"/>
		<polygon id="XMLID_126_" fill="#D06560" points="10.9,30 5.9,27.3 5.9,7.4 10.9,10 		"/>
		<polygon id="XMLID_125_" fill="#DA8E8E" points="23.9,2.5 10.9,10 5.9,7.4 19,0 		"/>
		<g id="XMLID_117_">
			<path id="XMLID_119_" fill="#FFFFFF" d="M23.9,6.5V5.7l-3.2,1.8V4.3l-0.6,0.2v3.3L10.9,13v0.8l6.3-3.6v2.5l-6.3,3.5V17l2.8-1.7
				V18l-2.8,1.7v0.7l13.2-7.3v-0.8l-3.2,1.8v-2.7l3.2-1.8V9l-6.3,3.5V9.9L23.9,6.5z M20.2,14.3l-6,3.3V15l6-3.3
				C20.2,11.7,20.2,14.3,20.2,14.3z"/>
			<polygon id="XMLID_118_" fill="#FFFFFF" points="10.9,23.6 13.7,21.9 13.7,24.4 10.9,26.1 10.9,26.9 23.9,19.5 23.9,18.8 
				14.3,24.2 14.3,21.6 23.9,16.2 23.9,15.5 10.9,22.8 			"/>
		</g>
		<polygon id="XMLID_116_" fill="#FFFFFF" points="23.9,2.5 23.6,2.4 10.9,9.6 6.2,7 5.9,7.4 5.9,7.4 5.9,7.6 10.4,10.2 10.4,29.9 
			10.9,30 10.9,30 11.2,29.9 11.2,10.2 23.9,2.8 		"/>
	</g>
	<g>
		<rect x="20.8" y="17.4" fill="#FFFFFF" width="0.6" height="3.3"/>
		<rect x="13.7" y="8.2" fill="#FFFFFF" width="0.6" height="3.3"/>
		<rect x="17.6" y="15.8" fill="#FFFFFF" width="0.6" height="3.3"/>
		<polygon fill="#FFFFFF" points="18.5,25.7 17.9,26 17.9,22.4 18.5,22.4 		"/>
	</g>
</g>
</svg>
