<?xml version="1.0" encoding="utf-8"?>
<!-- Generator: Adobe Illustrator 19.0.0, SVG Export Plug-In . SVG Version: 6.00 Build 0)  -->
<svg version="1.1" id="图层_1" xmlns="http://www.w3.org/2000/svg" xmlns:xlink="http://www.w3.org/1999/xlink" x="0px" y="0px"
	 viewBox="0 0 30 30" style="enable-background:new 0 0 30 30;" xml:space="preserve" width="30" height="30">
<style type="text/css">
	.st0{fill:#337F59;}
	.st1{fill:#61B290;}
	.st2{fill:#94D6B8;}
	.st3{fill:#FFFFFF;}
</style>
<g id="XMLID_240_">
	<g id="XMLID_247_">
		<polygon id="XMLID_554_" class="st0" points="30,13 15,21.7 15,25.8 30,17.2 		"/>
		<polygon id="XMLID_248_" class="st1" points="15,25.8 0,17.2 0,13 15,21.7 		"/>
	</g>
	<g id="XMLID_241_">
		<polygon id="XMLID_246_" class="st2" points="15,21.7 0,13 15,4.2 30,13 		"/>
		<g id="XMLID_242_">
			<polygon id="XMLID_245_" class="st3" points="19.8,13.6 19.8,14.6 25.5,14.6 25.5,11.3 23.7,11.3 23.7,12.9 12.7,6.4 11.5,7.1 
				22.6,13.6 			"/>
			<polygon id="XMLID_244_" class="st3" points="13.9,10.1 13.9,9.1 8.2,9.1 8.2,12.4 10,12.4 10,10.8 21,17.2 22.2,16.6 11.1,10.1 
							"/>
			<polygon id="XMLID_243_" class="st3" points="15.9,15.9 15.9,17.4 4.8,11 3.7,11.7 14.7,18.1 12,18.1 12,19.2 17.7,19.2 
				17.7,15.9 			"/>
		</g>
	</g>
</g>
</svg>
