<?xml version="1.0" encoding="utf-8"?>
<!-- Generator: Adobe Illustrator 19.0.0, SVG Export Plug-In . SVG Version: 6.00 Build 0)  -->
<svg version="1.1" id="图层_1" xmlns="http://www.w3.org/2000/svg" xmlns:xlink="http://www.w3.org/1999/xlink" x="0px" y="0px"
	 viewBox="0 0 30 30" style="enable-background:new 0 0 30 30;" xml:space="preserve" width="30" height="30">
<style type="text/css">
	.st0{fill:#337F59;}
	.st1{fill:#94D6B8;}
	.st2{fill:#FFFFFF;}
</style>
<g id="XMLID_746_">
	
		<rect id="XMLID_754_" x="-2.1" y="13" transform="matrix(0.7071 0.7071 -0.7071 0.7071 14.9925 -6.2313)" class="st0" width="34.2" height="4"/>
	<path id="XMLID_753_" class="st0" d="M25,27.1H7.9c-2.8,0-5-2.2-5-5V5c0-2.8,2.2-5,5-5H25c2.8,0,5,2.2,5,5v17.1
		C30,24.9,27.8,27.1,25,27.1z"/>
	<path id="XMLID_752_" class="st1" d="M22.1,30H5c-2.7,0-5-2.2-5-5V7.9c0-2.8,2.2-5,5-5h17.1c2.8,0,5,2.3,5,5V25
		C27.1,27.8,24.9,30,22.1,30z"/>
	<path id="XMLID_747_" class="st2" d="M10.5,17.2L7.1,21c-0.3,0.3-0.7,0.3-0.9,0c-0.3-0.3-0.3-0.8,0-1.1l2.2-2.5H3.3
		c-0.4,0-0.7-0.3-0.7-0.8c0-0.4,0.3-0.8,0.7-0.8h5.1l-2.2-2.5C6,13.2,6,13,6,12.9c0-0.2,0.1-0.4,0.2-0.5c0.3-0.3,0.7-0.3,0.9,0
		l3.3,3.8C10.7,16.4,10.7,16.9,10.5,17.2z M13.4,25.4c0,0.3-0.2,0.5-0.5,0.5h-0.2c-0.3,0-0.5-0.2-0.5-0.5V7.7c0-0.3,0.2-0.5,0.5-0.5
		h0.2c0.3,0,0.5,0.2,0.5,0.5V25.4z M16.3,12.8l4.4-4.6l-3.1,0c-0.2,0-0.4-0.1-0.5-0.2C17,7.9,17,7.8,17,7.6c0-0.4,0.3-0.7,0.7-0.7
		l4.8-0.1c0.4,0,0.7,0.3,0.7,0.7l-0.1,5c0,0.4-0.3,0.7-0.7,0.7c-0.4,0-0.7-0.3-0.7-0.7l0-3.7l-4.4,5.1c-0.3,0.3-0.7,0.3-1,0
		C16,13.6,16.1,13.1,16.3,12.8z M22.5,26.1L17.7,26c-0.4,0-0.7-0.3-0.7-0.7c0-0.2,0.1-0.4,0.2-0.5c0.1-0.1,0.3-0.2,0.5-0.2l3.1,0.1
		L16.3,20c-0.3-0.3-0.3-0.7,0-1c0.3-0.3,0.7-0.3,1,0l4.5,4.7l-0.1-3.3c0-0.4,0.3-0.7,0.7-0.7c0.4,0,0.7,0.3,0.7,0.7l0.1,5
		C23.2,25.8,22.9,26.1,22.5,26.1z"/>
</g>
</svg>
