<?xml version="1.0" encoding="utf-8"?>
<!-- Generator: Adobe Illustrator 18.0.0, SVG Export Plug-In . SVG Version: 6.00 Build 0)  -->
<!DOCTYPE svg PUBLIC "-//W3C//DTD SVG 1.1//EN" "http://www.w3.org/Graphics/SVG/1.1/DTD/svg11.dtd">
<svg version="1.1" id="图层_1" xmlns="http://www.w3.org/2000/svg" xmlns:xlink="http://www.w3.org/1999/xlink" x="0px" y="0px"
	 viewBox="0 0 30 30" enable-background="new 0 0 30 30" xml:space="preserve" width="30" height="30">
<g>
	<g>
		<polygon id="XMLID_386_" fill="#8E2E2A" points="24,21.9 9.7,30 9.7,11.9 24,3.7 		"/>
		<polygon id="XMLID_385_" fill="#CC8688" points="24,3.7 9.7,11.9 3,8.1 17.3,0 		"/>
		<polygon id="XMLID_384_" fill="#BF615C" points="9.7,30 3,26.3 3,8.1 9.7,11.9 		"/>
		<polygon id="XMLID_383_" fill="#CC8688" points="9.7,25.1 4.6,22.5 4.9,22.1 9.7,24.8 10.6,24.3 10.8,24.6 		"/>
		<polygon id="XMLID_382_" fill="#CC8688" points="9.7,25.9 4.6,23.4 4.9,23 9.7,25.7 10.6,25.2 10.8,25.5 		"/>
		<polygon id="XMLID_381_" fill="#CC8688" points="9.7,26.9 4.6,24.3 4.9,23.9 9.7,26.6 10.6,26.1 10.8,26.4 		"/>
		<polygon id="XMLID_380_" fill="#CC8688" points="9.7,27.8 4.6,25.2 4.9,24.8 9.7,27.4 10.6,27 10.8,27.3 		"/>
		<polygon id="XMLID_379_" fill="#CC8688" points="9.7,28.8 4.6,26.1 4.9,25.7 9.7,28.4 10.6,27.9 10.8,28.2 		"/>
		<polygon id="XMLID_378_" fill="#BF615C" points="4.6,7.2 4.2,7.4 10.9,11.1 10.9,11.1 10.9,11.1 10.9,29.3 11.4,29.1 11.4,11 
			11.4,11 		"/>
		<path id="XMLID_365_" fill="#CC8688" d="M8.5,14H8.4L4,11.8c-0.3-0.1-0.3-0.4-0.1-0.5C4,11.2,4.2,11,4.3,11.2l4.4,2.2
			c0.1,0,0.3,0.3,0.1,0.5C8.9,14,8.7,14,8.5,14z"/>
	</g>
	<g>
		<path fill="#BF615C" d="M27,20.7c0,4.1-2.3,6.3-5.1,4.8s-5.1-6-5.1-10.2s2.4-6.3,5.1-4.8C24.8,12,27,16.7,27,20.7z"/>
		<g>
			<path fill="#FFFFFF" d="M25.2,22.7v-0.2v-5.3V17l-2.1,1.6L25.2,22.7L25.2,22.7z"/>
			<path fill="#FFFFFF" d="M22.2,18.5l0.6-0.3l0.3-0.2l2.1-1.5c0,0,0,0-0.2-0.2l-5.8-3.1h-0.2l2.1,3.9l0.3,0.5L22.2,18.5L22.2,18.5z
				"/>
			<path fill="#FFFFFF" d="M24.9,22.8L24.9,22.8l-2.1-4.2l-0.9,0.6L21,17.7l-2.1,1.8c0,0,0,0,0.2,0.2L24.9,22.8L24.9,22.8z"/>
			<path fill="#FFFFFF" d="M18.8,13.4v0.2v5.3V19l2.1-1.8L18.8,13.4L18.8,13.4z"/>
		</g>
	</g>
</g>
</svg>
