<?xml version="1.0" encoding="utf-8"?>
<!-- Generator: Adobe Illustrator 18.0.0, SVG Export Plug-In . SVG Version: 6.00 Build 0)  -->
<!DOCTYPE svg PUBLIC "-//W3C//DTD SVG 1.1//EN" "http://www.w3.org/Graphics/SVG/1.1/DTD/svg11.dtd">
<svg version="1.1" id="图层_1" xmlns="http://www.w3.org/2000/svg" xmlns:xlink="http://www.w3.org/1999/xlink" x="0px" y="0px"
	 viewBox="0 0 50 50" enable-background="new 0 0 50 50" xml:space="preserve" width="30" height="30">
<g>
	<polygon id="XMLID_492_" fill="#070001" points="40,36.5 16.3,50 16.3,19.8 40,6.3 	"/>
	<polygon id="XMLID_491_" fill="#666868" points="40,6.3 16.3,19.8 5,13.5 28.8,0 	"/>
	<polygon id="XMLID_490_" fill="#333333" points="16.3,50 5,43.8 5,13.5 16.3,19.8 	"/>
	<polygon id="XMLID_489_" fill="#666868" points="16.3,41.8 7.7,37.5 8.2,36.7 16.3,41.3 17.7,40.5 18,41 	"/>
	<polygon id="XMLID_488_" fill="#666868" points="16.3,43.2 7.7,39 8.2,38.3 16.3,42.8 17.7,42 18,42.5 	"/>
	<polygon id="XMLID_487_" fill="#666868" points="16.3,44.7 7.7,40.5 8.2,39.7 16.3,44.3 17.7,43.5 18,44 	"/>
	<polygon id="XMLID_486_" fill="#666868" points="16.3,46.3 7.7,42 8.2,41.3 16.3,45.7 17.7,45 18,45.5 	"/>
	<polygon id="XMLID_485_" fill="#666868" points="16.3,48 7.7,43.5 8.2,42.8 16.3,47.2 17.7,46.5 18,47 	"/>
	<polygon id="XMLID_484_" fill="#333333" points="7.7,12 7,12.3 18.3,18.5 18.3,18.5 18.3,18.5 18.3,48.8 19,48.5 19,18.3 19,18.3 	
		"/>
	<path id="XMLID_471_" fill="#666868" d="M14.2,23.3L14.2,23.3l-7.5-3.8c-0.5,0-0.5-0.5-0.3-0.8c0.3-0.2,0.5-0.2,0.8-0.2l7.3,3.7
		c0.2,0,0.5,0.5,0.2,0.7C14.8,23.3,14.5,23.3,14.2,23.3z"/>
</g>
<path fill="#333333" d="M45,34.5c0,6.7-3.8,10.5-8.5,8s-8.5-10-8.5-17s4-10.5,8.5-8C41.3,20,45,27.8,45,34.5z"/>
<g>
	<g>
		<path fill="#FFFFFF" d="M31.1,22.3v0.3v8.8v0.3l3.5-3L31.1,22.3L31.1,22.3z"/>
		<path fill="#FFFFFF" d="M36.8,30.8l1-0.5l0.5-0.3l3.5-2.5c0,0,0,0-0.3-0.3L31.8,22h-0.3l3.5,6.5l0.5,0.8L36.8,30.8L36.8,30.8z"/>
		<path fill="#FFFFFF" d="M41.8,37.8v-0.3v-8.8v-0.3L38.3,31L41.8,37.8L41.8,37.8z"/>
		<path fill="#FFFFFF" d="M41.3,38L41.3,38l-3.5-7l-1.5,1l-1.5-2.5l-3.5,3c0,0,0,0,0.3,0.3L41.3,38L41.3,38z"/>
	</g>
</g>
</svg>
