<?xml version="1.0" encoding="utf-8"?>
<!-- Generator: Adobe Illustrator 18.0.0, SVG Export Plug-In . SVG Version: 6.00 Build 0)  -->
<!DOCTYPE svg PUBLIC "-//W3C//DTD SVG 1.1//EN" "http://www.w3.org/Graphics/SVG/1.1/DTD/svg11.dtd">
<svg version="1.1" id="图层_1" xmlns="http://www.w3.org/2000/svg" xmlns:xlink="http://www.w3.org/1999/xlink" x="0px" y="0px"
	 viewBox="0 0 30 30" enable-background="new 0 0 30 30" xml:space="preserve" width="30" height="30">
<g>
	<g>
		<polygon id="XMLID_492_" fill="#A57F33" points="24,21.9 9.8,30 9.8,11.9 24,3.8 		"/>
		<polygon id="XMLID_491_" fill="#DABC7F" points="24,3.8 9.8,11.9 3,8.1 17.3,0 		"/>
		<polygon id="XMLID_490_" fill="#D2AB5B" points="9.8,30 3,26.3 3,8.1 9.8,11.9 		"/>
		<polygon id="XMLID_489_" fill="#DABC7F" points="9.8,25.1 4.7,22.5 5,22.1 9.8,24.8 10.7,24.3 10.8,24.6 		"/>
		<polygon id="XMLID_488_" fill="#DABC7F" points="9.8,26 4.7,23.4 5,23 9.8,25.7 10.7,25.2 10.8,25.5 		"/>
		<polygon id="XMLID_487_" fill="#DABC7F" points="9.8,26.9 4.7,24.3 5,23.9 9.8,26.6 10.7,26.1 10.8,26.4 		"/>
		<polygon id="XMLID_486_" fill="#DABC7F" points="9.8,27.8 4.7,25.2 5,24.8 9.8,27.5 10.7,27 10.8,27.3 		"/>
		<polygon id="XMLID_485_" fill="#DABC7F" points="9.8,28.8 4.7,26.1 5,25.7 9.8,28.4 10.7,27.9 10.8,28.2 		"/>
		<polygon id="XMLID_484_" fill="#D2AB5B" points="4.7,7.2 4.2,7.4 11,11.1 11,11.1 11,11.1 11,29.3 11.4,29.1 11.4,11 11.4,11 		
			"/>
		<path id="XMLID_471_" fill="#DABC7F" d="M8.6,14L8.6,14l-4.5-2.3c-0.3,0-0.3-0.3-0.1-0.5C4.1,11,4.3,11,4.4,11l4.4,2.3
			c0.2,0,0.3,0.3,0.2,0.5C8.9,14,8.7,14,8.6,14z"/>
	</g>
	<g>
		<path fill="#DABC7F" d="M27,20.7c0,4.1-2.3,6.3-5.1,4.8s-5.1-6-5.1-10.2s2.4-6.3,5.1-4.8C24.8,12,27,16.7,27,20.7z"/>
		<g>
			<path fill="#FFFFFF" d="M25.2,22.7v-0.2v-5.3V17l-2.1,1.6L25.2,22.7L25.2,22.7z"/>
			<path fill="#FFFFFF" d="M22.2,18.5l0.6-0.3l0.3-0.2l2.1-1.5c0,0,0,0-0.2-0.2l-5.8-3.1H19l2.1,3.9l0.3,0.5L22.2,18.5L22.2,18.5z"
				/>
			<path fill="#FFFFFF" d="M24.9,22.8L24.9,22.8l-2.1-4.2l-0.9,0.6L21,17.7l-2.1,1.8c0,0,0,0,0.2,0.2L24.9,22.8L24.9,22.8z"/>
			<path fill="#FFFFFF" d="M18.8,13.4v0.2v5.3V19l2.1-1.8L18.8,13.4L18.8,13.4z"/>
		</g>
	</g>
</g>
</svg>
