<?xml version="1.0" encoding="utf-8"?>
<!-- Generator: Adobe Illustrator 18.0.0, SVG Export Plug-In . SVG Version: 6.00 Build 0)  -->
<!DOCTYPE svg PUBLIC "-//W3C//DTD SVG 1.1//EN" "http://www.w3.org/Graphics/SVG/1.1/DTD/svg11.dtd">
<svg version="1.1" id="图层_1" xmlns="http://www.w3.org/2000/svg" xmlns:xlink="http://www.w3.org/1999/xlink" x="0px" y="0px"
	 viewBox="0 0 50 50" enable-background="new 0 0 50 50" xml:space="preserve" width="30" height="30">
<g>
	<polygon id="XMLID_386_" fill="#707070" points="40,36.5 16.3,50 16.3,19.8 40,6.2 	"/>
	<polygon id="XMLID_385_" fill="#C6C6C6" points="40,6.2 16.3,19.8 5,13.5 28.8,0 	"/>
	<polygon id="XMLID_384_" fill="#A6A6A6" points="16.3,50 5,43.8 5,13.5 16.3,19.8 	"/>
	<polygon id="XMLID_383_" fill="#C6C6C6" points="16.3,41.8 7.7,37.5 8.3,36.8 16.3,41.3 17.8,40.5 18,41 	"/>
	<polygon id="XMLID_382_" fill="#C6C6C6" points="16.3,43.2 7.7,39 8.3,38.3 16.3,42.8 17.8,42 18,42.5 	"/>
	<polygon id="XMLID_381_" fill="#C6C6C6" points="16.3,44.8 7.7,40.5 8.3,39.8 16.3,44.3 17.8,43.5 18,44 	"/>
	<polygon id="XMLID_380_" fill="#C6C6C6" points="16.3,46.3 7.7,42 8.3,41.3 16.3,45.7 17.8,45 18,45.5 	"/>
	<polygon id="XMLID_379_" fill="#C6C6C6" points="16.3,48 7.7,43.5 8.3,42.8 16.3,47.3 17.8,46.5 18,47 	"/>
	<polygon id="XMLID_378_" fill="#A6A6A6" points="7.7,12 7,12.3 18.3,18.5 18.3,18.5 18.3,18.5 18.3,48.8 19,48.5 19,18.3 19,18.3 	
		"/>
	<path id="XMLID_365_" fill="#C6C6C6" d="M14.2,23.3H14l-7.3-3.7c-0.5-0.1-0.5-0.6-0.2-0.8c0.2-0.2,0.5-0.5,0.7-0.2l7.3,3.6
		c0.2,0,0.5,0.5,0.2,0.8C14.8,23.3,14.5,23.3,14.2,23.3z"/>
</g>
<path fill="#A6A6A6" d="M45,34.5c0,6.9-3.8,10.4-8.4,7.9s-8.4-10.1-8.4-16.9s3.8-10.4,8.4-7.9S45,27.7,45,34.5z"/>
<g>
	<g>
		<path fill="#FFFFFF" d="M31.2,22.3v0.3v8.8v0.3l3.5-3L31.2,22.3L31.2,22.3z"/>
		<path fill="#FFFFFF" d="M36.9,30.8l1-0.5l0.5-0.3l3.5-2.5c0,0,0,0-0.3-0.3L31.9,22h-0.3l3.5,6.5l0.5,0.8L36.9,30.8L36.9,30.8z"/>
		<path fill="#FFFFFF" d="M41.9,37.8v-0.3v-8.8v-0.3L38.4,31L41.9,37.8L41.9,37.8z"/>
		<path fill="#FFFFFF" d="M41.4,38L41.4,38l-3.5-7l-1.5,1l-1.5-2.5l-3.5,3c0,0,0,0,0.3,0.3L41.4,38L41.4,38z"/>
	</g>
</g>
</svg>
