<?xml version="1.0" encoding="utf-8"?>
<!-- Generator: Adobe Illustrator 19.0.0, SVG Export Plug-In . SVG Version: 6.00 Build 0)  -->
<svg version="1.1" id="图层_1" xmlns="http://www.w3.org/2000/svg" xmlns:xlink="http://www.w3.org/1999/xlink" x="0px" y="0px"
	 viewBox="0 0 30 30" style="enable-background:new 0 0 30 30;" xml:space="preserve" width="30" height="30">
<style type="text/css">
	.st0{fill:#B28730;}
	.st1{fill:#EAC986;}
	.st2{fill:#E5B95A;}
</style>
<g id="XMLID_812_">
	<g id="XMLID_811_">
		<g id="XMLID_826_">
			<path id="XMLID_830_" class="st0" d="M13.8,30V0L30,4.1v20.1L13.8,30z"/>
			<path id="XMLID_827_" class="st1" d="M0,4v20.3L13.8,30V0L0,4z M7.2,18.6c-2.5,0-4.6-2.1-4.6-4.6s2-4.6,4.6-4.6s4.6,2.1,4.6,4.6
				S9.7,18.6,7.2,18.6z"/>
		</g>
	</g>
	<polygon id="XMLID_835_" class="st2" points="14.7,1.2 14.7,28.7 29.1,23.5 29.1,4.8 	"/>
	<g id="XMLID_831_">
		<g id="XMLID_858_">
			<path id="XMLID_860_" class="st0" d="M23.9,9.8c-0.5,0.7-1.4,1-2.1,0.5c-0.7-0.5-0.8-1.4-0.4-2.2c0.5-0.7,1.4-1,2.1-0.5
				S24.4,9,23.9,9.8z"/>
			<path id="XMLID_859_" class="st0" d="M28.2,12.6c-0.5,0.7-1.4,1-2.1,0.5c-0.7-0.5-0.8-1.4-0.4-2.2c0.5-0.7,1.4-1,2.1-0.5
				C28.5,10.9,28.7,11.9,28.2,12.6z"/>
		</g>
		<g id="XMLID_855_">
			<path id="XMLID_857_" class="st0" d="M18.6,17.9c-0.5,0.7-1.4,1-2.1,0.5s-0.8-1.4-0.4-2.2c0.5-0.7,1.4-1,2.1-0.5
				C18.9,16.2,19.1,17.1,18.6,17.9z"/>
			<path id="XMLID_856_" class="st0" d="M22.9,20.7c-0.5,0.7-1.4,1-2.1,0.5s-0.8-1.4-0.4-2.2c0.5-0.7,1.4-1,2.1-0.5
				C23.2,19,23.4,20,22.9,20.7z"/>
		</g>
		<path id="XMLID_854_" class="st0" d="M19.2,12.3c-0.5,0.7-1.4,1-2.1,0.5c-0.7-0.5-0.8-1.4-0.4-2.2c0.5-0.7,1.4-1,2.1-0.5
			C19.5,10.6,19.6,11.6,19.2,12.3z"/>
		<path id="XMLID_836_" class="st0" d="M23.4,15.2c-0.5,0.7-1.4,1-2.1,0.5c-0.7-0.5-0.8-1.4-0.4-2.2c0.5-0.7,1.4-1,2.1-0.5
			S23.9,14.4,23.4,15.2z"/>
		<path id="XMLID_834_" class="st0" d="M27.5,17.9c-0.5,0.7-1.4,1-2.1,0.5S24.5,17,25,16.2c0.5-0.7,1.4-1,2.1-0.5
			C27.8,16.2,28,17.1,27.5,17.9z"/>
	</g>
</g>
</svg>
