<?xml version="1.0" encoding="utf-8"?>
<!-- Generator: Adobe Illustrator 19.0.0, SVG Export Plug-In . SVG Version: 6.00 Build 0)  -->
<svg version="1.1" id="图层_1" xmlns="http://www.w3.org/2000/svg" xmlns:xlink="http://www.w3.org/1999/xlink" x="0px" y="0px"
	 viewBox="0 0 30 30" style="enable-background:new 0 0 30 30;" xml:space="preserve" width="30" height="30">
<style type="text/css">
	.st0{fill:#666666;}
	.st1{fill:#333333;}
</style>
<g id="XMLID_814_">
	<g id="XMLID_868_">
		<g id="XMLID_879_">
			<path id="XMLID_883_" d="M13.8,30V0L30,4.1v20.1L13.8,30z"/>
			<path id="XMLID_880_" class="st0" d="M0,4v20.3L13.8,30V0L0,4z M7.2,18.6c-2.5,0-4.6-2.1-4.6-4.6s2-4.6,4.6-4.6s4.6,2.1,4.6,4.6
				S9.7,18.6,7.2,18.6z"/>
		</g>
	</g>
	<polygon id="XMLID_792_" class="st1" points="14.7,1.2 14.7,28.7 29.1,23.5 29.1,4.8 	"/>
	<g id="XMLID_884_">
		<g id="XMLID_892_">
			<path id="XMLID_894_" d="M23.9,9.7c-0.5,0.7-1.4,1-2.1,0.5c-0.7-0.5-0.8-1.4-0.4-2.2c0.5-0.7,1.4-1,2.1-0.5S24.4,9,23.9,9.7z"/>
			<path id="XMLID_893_" d="M28.2,12.5c-0.5,0.7-1.4,1-2.1,0.5c-0.7-0.5-0.8-1.4-0.4-2.2c0.5-0.7,1.4-1,2.1-0.5
				C28.5,10.8,28.7,11.8,28.2,12.5z"/>
		</g>
		<g id="XMLID_889_">
			<path id="XMLID_891_" d="M18.6,17.8c-0.5,0.7-1.4,1-2.1,0.5c-0.7-0.5-0.8-1.4-0.4-2.2c0.5-0.7,1.4-1,2.1-0.5S19.1,17.1,18.6,17.8
				z"/>
			<path id="XMLID_890_" d="M22.9,20.6c-0.5,0.7-1.4,1-2.1,0.5c-0.7-0.5-0.8-1.4-0.4-2.2c0.5-0.7,1.4-1,2.1-0.5S23.4,19.9,22.9,20.6
				z"/>
		</g>
		<path id="XMLID_888_" d="M19.2,12.3c-0.5,0.7-1.4,1-2.1,0.5c-0.7-0.5-0.8-1.4-0.4-2.2c0.5-0.7,1.4-1,2.1-0.5
			C19.5,10.6,19.6,11.5,19.2,12.3z"/>
		<path id="XMLID_887_" d="M23.4,15.1c-0.5,0.7-1.4,1-2.1,0.5s-0.8-1.4-0.4-2.2c0.5-0.7,1.4-1,2.1-0.5S23.9,14.4,23.4,15.1z"/>
		<path id="XMLID_886_" d="M27.5,17.8c-0.5,0.7-1.4,1-2.1,0.5c-0.7-0.5-0.8-1.4-0.4-2.2c0.5-0.7,1.4-1,2.1-0.5S28,17.1,27.5,17.8z"
			/>
	</g>
</g>
</svg>
