<?xml version="1.0" encoding="utf-8"?>
<!-- Generator: Adobe Illustrator 18.0.0, SVG Export Plug-In . SVG Version: 6.00 Build 0)  -->
<!DOCTYPE svg PUBLIC "-//W3C//DTD SVG 1.1//EN" "http://www.w3.org/Graphics/SVG/1.1/DTD/svg11.dtd">
<svg version="1.1" id="图层_1" xmlns="http://www.w3.org/2000/svg" xmlns:xlink="http://www.w3.org/1999/xlink" x="0px" y="0px"
	 viewBox="0 0 30 30" enable-background="new 0 0 30 30" xml:space="preserve" width="30" height="30">
<g>
	<g>
		<polyline fill="#C6625D" points="0,3.4 0,30 26.8,30 26.8,3.4 0,3.4 		"/>
		<polyline fill="#D28989" points="0,3.4 3.2,0 30,0 26.8,3.4 0,3.4 		"/>
		<polyline fill="#922C2B" points="26.8,3.4 30,0 30,26.7 26.8,30 26.8,3.4 		"/>
	</g>
	<g>
		<path fill="#FFFFFF" d="M20.6,15"/>
		<path fill="#FFFFFF" d="M13.4,24"/>
	</g>
	<g enable-background="new    ">
		<path fill="#FFFFFF" d="M1.6,19.8V9.9h3.4c0.6,0,1,0,1.4,0.1c0.4,0.1,0.8,0.2,1.1,0.5c0.3,0.2,0.5,0.5,0.7,1s0.3,0.9,0.3,1.3
			c0,0.8-0.2,1.6-0.7,2.1c-0.5,0.6-1.4,0.9-2.6,0.9H2.8v4H1.6z M2.8,14.6h2.3c0.8,0,1.3-0.2,1.6-0.5c0.3-0.3,0.5-0.8,0.5-1.3
			c0-0.4-0.1-0.8-0.3-1.1c-0.2-0.3-0.4-0.5-0.7-0.6c-0.2-0.1-0.6-0.1-1.1-0.1H2.8V14.6z"/>
		<path fill="#FFFFFF" d="M9.7,11.3V9.9h1.1v1.4H9.7z M9.7,19.8v-7.2h1.1v7.2H9.7z"/>
		<path fill="#FFFFFF" d="M12.5,19.8v-7.2h1v1c0.5-0.8,1.2-1.2,2.1-1.2c0.4,0,0.7,0.1,1.1,0.2c0.3,0.2,0.6,0.4,0.7,0.6
			s0.3,0.5,0.3,0.9c0,0.2,0.1,0.6,0.1,1.2v4.4h-1.1v-4.4c0-0.5,0-0.9-0.1-1.1s-0.2-0.4-0.5-0.6s-0.5-0.2-0.8-0.2
			c-0.5,0-0.9,0.2-1.2,0.5c-0.3,0.3-0.5,1-0.5,1.9v3.9H12.5z"/>
		<path fill="#FFFFFF" d="M19.2,20.4l1.1,0.2c0,0.4,0.2,0.6,0.4,0.8c0.3,0.2,0.6,0.3,1.1,0.3c0.5,0,0.9-0.1,1.2-0.3s0.5-0.5,0.6-0.9
			c0.1-0.2,0.1-0.8,0.1-1.6c-0.5,0.6-1.1,0.9-1.8,0.9c-0.9,0-1.6-0.4-2.1-1.1C19.2,18,19,17.1,19,16.2c0-0.7,0.1-1.3,0.3-1.9
			c0.2-0.6,0.5-1,1-1.3c0.4-0.3,0.9-0.5,1.5-0.5c0.8,0,1.4,0.3,1.9,1v-0.9h1v6.2c0,1.1-0.1,1.9-0.3,2.4c-0.2,0.5-0.5,0.8-1,1.1
			c-0.4,0.3-1,0.4-1.6,0.4c-0.8,0-1.4-0.2-1.9-0.6S19.2,21.1,19.2,20.4z M20.1,16.1c0,0.9,0.2,1.6,0.5,2.1c0.3,0.4,0.8,0.6,1.3,0.6
			c0.5,0,0.9-0.2,1.3-0.6c0.3-0.4,0.5-1.1,0.5-2c0-0.9-0.2-1.5-0.5-2c-0.4-0.4-0.8-0.7-1.3-0.7c-0.5,0-0.9,0.2-1.2,0.7
			C20.3,14.6,20.1,15.2,20.1,16.1z"/>
	</g>
</g>
</svg>
