<?xml version="1.0" encoding="utf-8"?>
<!-- Generator: Adobe Illustrator 19.0.0, SVG Export Plug-In . SVG Version: 6.00 Build 0)  -->
<svg version="1.1" id="图层_1" xmlns="http://www.w3.org/2000/svg" xmlns:xlink="http://www.w3.org/1999/xlink" x="0px" y="0px"
	 viewBox="0 0 30 30" style="enable-background:new 0 0 30 30;" xml:space="preserve" width="30" height="30">
<style type="text/css">
	.st0{fill:#707070;}
	.st1{fill:#A6A6A6;}
	.st2{fill:#C6C6C6;}
	.st3{fill:#FFFFFF;}
</style>
<g id="XMLID_602_">
	<g id="XMLID_611_">
		<g id="XMLID_612_">
			<polygon id="XMLID_614_" class="st0" points="30,13 15,21.7 15,25.8 30,17.2 			"/>
			<polygon id="XMLID_613_" class="st1" points="15,25.8 0,17.2 0,13 15,21.7 			"/>
		</g>
	</g>
	<g id="XMLID_603_">
		<polygon id="XMLID_610_" class="st2" points="15,21.7 0,13 15,4.2 30,13 		"/>
		<g id="XMLID_604_">
			<path id="XMLID_609_" class="st3" d="M18.2,12.9c0,0.2-0.1,0.5-0.2,0.7l3.3,1.9l1.4-0.8l-2.2-1.3H26c0.5,0,0.9-0.2,0.9-0.5
				c0-0.3-0.4-0.5-0.9-0.5h-5.5l2.2-1.3l-1.4-0.8L18,12.2C18.1,12.4,18.2,12.7,18.2,12.9z"/>
			<path id="XMLID_608_" class="st3" d="M11.8,12.9c0-0.2,0.1-0.5,0.2-0.7l-3.3-1.9l-1.4,0.8l2.2,1.3H4c-0.5,0-0.9,0.2-0.9,0.5
				c0,0.3,0.4,0.5,0.9,0.5h5.5l-2.2,1.3l1.4,0.8l3.3-1.9C11.9,13.4,11.8,13.2,11.8,12.9z"/>
			<path id="XMLID_607_" class="st3" d="M15,11.1c0.4,0,0.8,0,1.2,0.1l3.3-1.9l-1.4-0.8l-2.2,1.3V6.5C15.9,6.2,15.5,6,15,6
				c-0.5,0-0.9,0.2-0.9,0.5v3.2l-2.2-1.3l-1.4,0.8l3.3,1.9C14.2,11.1,14.6,11.1,15,11.1z"/>
			<path id="XMLID_606_" class="st3" d="M15.9,19.3v-3.2l2.2,1.3l1.4-0.8l-3.3-1.9c-0.4,0.1-0.8,0.1-1.2,0.1c-0.4,0-0.8,0-1.2-0.1
				l-3.3,1.9l1.4,0.8l2.2-1.3v3.2c0,0.3,0.4,0.5,0.9,0.5C15.5,19.9,15.9,19.6,15.9,19.3z"/>
			<ellipse id="XMLID_605_" class="st3" cx="15" cy="12.9" rx="1.5" ry="0.9"/>
		</g>
	</g>
</g>
</svg>
