<?xml version="1.0" encoding="utf-8"?>
<!-- Generator: Adobe Illustrator 18.0.0, SVG Export Plug-In . SVG Version: 6.00 Build 0)  -->
<!DOCTYPE svg PUBLIC "-//W3C//DTD SVG 1.1//EN" "http://www.w3.org/Graphics/SVG/1.1/DTD/svg11.dtd">
<svg version="1.1" id="图层_1" xmlns="http://www.w3.org/2000/svg" xmlns:xlink="http://www.w3.org/1999/xlink" x="0px" y="0px"
	 viewBox="0 0 30 30" enable-background="new 0 0 30 30" xml:space="preserve" width="30" height="30">
<g>
	<path id="XMLID_44_" fill="#337C58" d="M1,12.6H0v3.2v1.7c0,4.8,6.8,8.7,15,8.7s15-3.9,15-8.7v-1.7v-3.2H1z M15,21.3
		c-6.3,0-11.7-2.3-14-5.5h27.9C26.7,19,21.3,21.3,15,21.3z"/>
	<ellipse id="XMLID_43_" fill="#91CDB2" cx="15" cy="12.6" rx="15" ry="8.7"/>
	<g id="XMLID_38_">
		<path id="XMLID_42_" fill="#FFFFFF" d="M12.9,10.5L9,8.1h3.2V7H5.6v3.7h1.9V9l3.3,1.8l-2.4,1.4l1.5,0.9l3-1.8
			C13.3,11.1,13.3,10.6,12.9,10.5z"/>
		<path id="XMLID_41_" fill="#FFFFFF" d="M18.6,11.3L22.5,9v1.8h1.9V7h-6.6v1H21l-3.3,1.8l-2.3-1.3L14,9.4l3,1.8
			C17.5,11.5,18.2,11.5,18.6,11.3z"/>
		<path id="XMLID_40_" fill="#FFFFFF" d="M17.1,14.5l3.9,2.3h-3.2V18h6.6v-3.7h-1.9V16l-3.3-1.8l2.3-1.3L20,12l-3,1.8
			C16.7,13.9,16.7,14.4,17.1,14.5z"/>
		<path id="XMLID_39_" fill="#FFFFFF" d="M11.4,13.8L7.5,16v-1.7H5.6V18h6.6v-1.1H9l3.2-1.9l2.3,1.3l1.5-0.9l-3-1.8
			C12.5,13.5,11.9,13.5,11.4,13.8z"/>
	</g>
	<g>
		<g id="XMLID_8_">
			<path id="XMLID_14_" fill="#FFFFFF" d="M7.7,23.9C7.9,23,8,22.5,8.2,21.6c0.4,0.1,0.6,0.1,1,0.2c0.3,0.1,0.4,0.1,0.6,0.1
				c0.1,0,0.1,0.2,0.3,0.3c0,0.1,0.1,0.3,0.1,0.5c0,0.1,0,0.3-0.2,0.4s-0.5,0.1-0.5,0.1s0.1,0.2,0.3,0.2c0,0,0.1,0.2,0.2,0.5
				c0.1,0.2,0.1,0.3,0.3,0.5c-0.4-0.1-0.6-0.1-1-0.2c-0.1-0.2-0.1-0.3-0.2-0.5C9,23.6,9,23.4,8.8,23.4c-0.1-0.1-0.1-0.1-0.1-0.2
				c0,0-0.2,0-0.3-0.1l0,0c-0.1,0.4-0.1,0.6-0.2,1C8,24.1,7.9,24,7.7,23.9C7.7,24,7.7,24,7.7,23.9z M8.5,22.7c0.1,0,0.2,0,0.3,0.1
				c0.3,0.1,0.5,0.1,0.5,0.1s0.2,0,0.2-0.1s0-0.1,0-0.1c0-0.1,0-0.1,0-0.1c-0.1-0.1-0.1-0.1-0.1-0.2c0,0-0.2,0-0.3-0.1
				c-0.2,0-0.3-0.1-0.5-0.1C8.6,22.4,8.5,22.5,8.5,22.7z"/>
			<path id="XMLID_13_" fill="#FFFFFF" d="M10.3,23.2c0-0.3,0.1-0.4,0.2-0.6c0-0.1,0.2-0.3,0.2-0.3c0.2-0.1,0.2-0.1,0.3-0.1
				s0.3-0.1,0.5-0.1c0.3,0,0.6,0.2,0.9,0.4c0.1,0.2,0.3,0.5,0.2,0.9c0,0.4-0.2,0.7-0.4,0.9c-0.2,0.1-0.5,0.3-1,0.2
				c-0.3,0-0.6-0.2-0.9-0.4C10.4,24,10.2,23.6,10.3,23.2z M10.8,23.3c0,0.3-0.1,0.4,0.1,0.6c0.2,0.2,0.3,0.2,0.5,0.2
				c0.2,0,0.3,0,0.5-0.1c0.1-0.1,0.1-0.3,0.1-0.6c0-0.3,0-0.4-0.1-0.6c-0.1-0.2-0.3-0.2-0.4-0.2s-0.3,0-0.5,0.1
				C11,22.8,10.8,23,10.8,23.3z"/>
			<path id="XMLID_12_" fill="#FFFFFF" d="M13.2,22.3c0.2,0,0.3,0,0.5,0c0,0.5,0,0.8-0.1,1.3c0,0.1,0,0.3,0,0.4s0,0.2,0.1,0.3
				c0.2,0,0.2,0.2,0.3,0.2c0.2,0,0.3,0,0.3-0.1c0.1-0.1,0.1-0.1,0.2-0.1c0-0.1,0-0.1,0-0.4c0-0.5,0-0.8,0-1.3c0.2,0,0.3,0,0.5,0
				c0,0.5,0,0.7,0,1.2c0,0.3,0,0.4,0,0.6s0,0.2-0.2,0.3c0,0.1-0.2,0.1-0.3,0.1c-0.2,0-0.3,0-0.5,0c-0.3,0-0.5,0-0.5-0.2
				c-0.2,0-0.2-0.2-0.3-0.2c0-0.1-0.2-0.2-0.1-0.3c0-0.1,0-0.3,0-0.6C13.1,23,13.2,22.8,13.2,22.3z"/>
			<path id="XMLID_11_" fill="#FFFFFF" d="M16.3,24.8c0-0.8,0-1.2-0.1-1.9c-0.3,0-0.5,0-0.8,0c0-0.2,0-0.3,0-0.4c0.8,0,1.2,0,2-0.1
				c0,0.2,0,0.3,0,0.4c-0.3,0-0.5,0-0.8,0c0,0.8,0,1.2,0.1,1.9C16.6,24.8,16.5,24.8,16.3,24.8z"/>
			<path id="XMLID_10_" fill="#FFFFFF" d="M17.9,24.7c-0.1-1-0.1-1.4-0.2-2.4c0.7-0.1,1.1-0.1,1.8-0.2c0,0.2,0,0.3,0.1,0.4
				c-0.5,0.1-0.8,0.1-1.4,0.2c0,0.2,0,0.4,0.1,0.6c0.5,0,0.7-0.1,1.2-0.1c0,0.2,0,0.3,0.1,0.4c-0.5,0.1-0.8,0.1-1.3,0.1
				c0,0.2,0,0.4,0.1,0.6c0.6-0.1,0.9-0.1,1.4-0.2c0,0.2,0,0.3,0.1,0.4c-0.8,0.1-1.2,0.1-1.9,0.2C17.9,24.8,17.9,24.7,17.9,24.7z"/>
			<path id="XMLID_9_" fill="#FFFFFF" d="M20.3,24.4C20.2,23.5,20.1,23,20,22c0.4-0.1,0.6-0.1,1-0.2c0.3-0.1,0.4-0.1,0.6-0.1
				c0.1,0,0.2,0.1,0.4,0.2c0,0.1,0.2,0.3,0.2,0.4s0.1,0.3-0.1,0.5C22,23,21.7,23,21.7,23s0.2,0.1,0.3,0.1c0,0,0.2,0.1,0.4,0.4
				c0.2,0.1,0.2,0.2,0.4,0.4C22.5,24,22.4,24,22.2,24c-0.2-0.2-0.2-0.2-0.4-0.4c-0.2-0.1-0.2-0.3-0.4-0.2c-0.1,0-0.1-0.1-0.2-0.1
				c0,0-0.2,0-0.3,0.1c-0.1,0-0.1,0-0.2,0c0.1,0.4,0.1,0.6,0.2,1c-0.3,0-0.4,0.1-0.6,0.1C20.3,24.5,20.3,24.5,20.3,24.4z M20.6,23
				c0.1,0,0.2,0,0.3-0.1c0.3-0.1,0.5-0.1,0.5-0.1s0.2,0,0.1-0.2c0-0.1,0-0.1,0-0.1c0-0.1,0-0.1,0-0.1c-0.1,0-0.1-0.1-0.2-0.1
				c0,0-0.2,0-0.3,0.1c-0.2,0-0.3,0-0.5,0.1C20.5,22.7,20.5,22.8,20.6,23z"/>
		</g>
	</g>
</g>
</svg>
