<?xml version="1.0" encoding="utf-8"?>
<!-- Generator: Adobe Illustrator 18.0.0, SVG Export Plug-In . SVG Version: 6.00 Build 0)  -->
<!DOCTYPE svg PUBLIC "-//W3C//DTD SVG 1.1//EN" "http://www.w3.org/Graphics/SVG/1.1/DTD/svg11.dtd">
<svg version="1.1" id="图层_1" xmlns="http://www.w3.org/2000/svg" xmlns:xlink="http://www.w3.org/1999/xlink" x="0px" y="0px"
	 viewBox="0 0 20 20" enable-background="new 0 0 20 20" xml:space="preserve" width="30" height="30">
<g>
	<g id="XMLID_528_">
		<path id="XMLID_551_" d="M0.7,8.4H0v2.1v1.1c0,3.2,4.5,5.8,10,5.8s10-2.6,10-5.8v-1.1V8.4H0.7z M10,14.2c-4.2,0-7.8-1.5-9.3-3.7
			h18.6C17.8,12.6,14.2,14.2,10,14.2z"/>
		<ellipse id="XMLID_550_" fill="#666666" cx="10" cy="8.4" rx="10" ry="5.8"/>
		<g id="XMLID_545_">
			<path id="XMLID_549_" fill="#FFFFFF" d="M8.6,7L6,5.4h2.1V4.6H3.7v2.5H5V6l2.2,1.2L5.6,8.1l1,0.6l2-1.2C8.9,7.4,8.9,7,8.6,7z"/>
			<path id="XMLID_548_" fill="#FFFFFF" d="M12.4,7.5L15,6v1.2h1.3V4.6h-4.4v0.7H14l-2.2,1.2l-1.5-0.9L9.3,6.2l2,1.2
				C11.7,7.6,12.1,7.6,12.4,7.5z"/>
			<path id="XMLID_547_" fill="#FFFFFF" d="M11.4,9.6l2.6,1.5h-2.1V12h4.4V9.5H15v1.1l-2.2-1.2l1.5-0.9l-1-0.6l-2,1.2
				C11.1,9.2,11.1,9.6,11.4,9.6z"/>
			<path id="XMLID_546_" fill="#FFFFFF" d="M7.6,9.2L5,10.6V9.5H3.7V12h4.4v-0.7H6L8.1,10l1.5,0.9l1-0.6L8.7,9C8.3,9,7.9,9,7.6,9.2z
				"/>
		</g>
	</g>
	<g>
		<g>
			<path fill="#FFFFFF" d="M6.1,14.6c0.1,0,0.1,0,0.1,0c0.2,0.1,0.3,0.1,0.5,0.1c0.1,0,0.3,0.1,0.3,0.2c0.1,0.1,0.1,0.2,0.1,0.3
				c0,0.1-0.1,0.3-0.2,0.3l-0.1,0.1c0,0,0,0,0.1,0C7,15.7,7.1,15.8,7,16c0,0.1,0,0.1,0,0.2c0,0.1,0,0.1,0,0.1s0,0.1,0.1,0.1
				c0,0,0,0,0,0.1c-0.1,0-0.2-0.1-0.3-0.1c0,0,0-0.1,0-0.1c0-0.1,0-0.1,0-0.1c0-0.1,0-0.1,0-0.1c0-0.1,0-0.1,0-0.2
				c0-0.1-0.1-0.1-0.1-0.1c-0.1,0-0.2-0.1-0.3-0.1c-0.1,0.3-0.1,0.4-0.1,0.6c-0.1,0-0.1,0-0.1-0.1c-0.1,0-0.1,0-0.1-0.1
				C5.9,15.6,5.9,15.2,6.1,14.6z M6.2,15.4c0.1,0,0.2,0.1,0.3,0.1c0.1,0,0.1,0,0.2,0c0.1,0,0.1-0.1,0.1-0.1c0-0.1,0-0.1,0-0.2
				C6.8,15,6.7,15,6.7,15C6.5,15,6.5,15,6.3,15C6.3,15.1,6.3,15.2,6.2,15.4z"/>
			<path fill="#FFFFFF" d="M7.4,16.3c-0.1-0.2-0.1-0.4-0.1-0.7c0.1-0.3,0.1-0.5,0.3-0.6c0.1-0.1,0.3-0.2,0.5-0.2
				c0.2,0,0.3,0.1,0.5,0.3c0.1,0.1,0.1,0.4,0.1,0.7c0,0.3-0.1,0.5-0.3,0.6c-0.1,0.1-0.3,0.2-0.5,0.2C7.7,16.6,7.5,16.5,7.4,16.3z
				 M8.3,16.2c0.1-0.1,0.1-0.2,0.1-0.4c0-0.2,0-0.3-0.1-0.4c-0.1-0.1-0.1-0.2-0.3-0.2s-0.2,0-0.3,0.1c-0.1,0.1-0.1,0.2-0.1,0.4
				c0,0.2,0,0.3,0.1,0.4c0.1,0.1,0.1,0.2,0.3,0.2C8.1,16.3,8.2,16.3,8.3,16.2z"/>
			<path fill="#FFFFFF" d="M10.2,16.1c0,0.2-0.1,0.3-0.1,0.5c-0.1,0.1-0.3,0.1-0.5,0.1s-0.3-0.1-0.5-0.2S9,16.2,9,16
				c0-0.4,0.1-0.7,0.1-1.1c0.1,0,0.1,0,0.1,0s0.1,0,0.1,0c0,0.4,0,0.7-0.1,1.1c0,0.1,0,0.2,0.1,0.3s0.1,0.1,0.2,0.1
				c0.1,0,0.2,0,0.2-0.1c0.1-0.1,0.1-0.1,0.1-0.3c0-0.4,0-0.7,0-1.1c0.1,0,0.1,0,0.1,0s0.1,0,0.1,0C10.1,15.5,10.1,15.7,10.2,16.1z"
				/>
			<path fill="#FFFFFF" d="M10.8,15.3c-0.2,0-0.3,0-0.5,0c0-0.1,0-0.1,0-0.1s0-0.1,0-0.1c0.5,0,0.7,0,1.1-0.1c0,0.1,0,0.1,0,0.1
				c0,0.1,0,0.1,0,0.1c-0.2,0-0.3,0-0.5,0c0,0.5,0.1,0.8,0.1,1.3c-0.1,0-0.1,0-0.1,0s-0.1,0-0.1,0C10.8,16.1,10.8,15.8,10.8,15.3z"
				/>
			<path fill="#FFFFFF" d="M11.8,16.6c-0.1-0.7-0.1-1-0.1-1.6c0.4-0.1,0.6-0.1,1.1-0.1c0,0.1,0,0.1,0,0.1c0,0.1,0,0.1,0,0.1
				c-0.3,0.1-0.5,0.1-0.7,0.1c0,0.1,0,0.2,0.1,0.3c0.3,0,0.4-0.1,0.7-0.1c0,0.1,0,0.1,0,0.1c0,0.1,0,0.1,0,0.1
				c-0.3,0.1-0.4,0.1-0.7,0.1c0,0.2,0,0.3,0.1,0.4c0.3-0.1,0.5-0.1,0.8-0.1c0,0.1,0,0.1,0,0.1s0,0.1,0,0.1
				C12.5,16.6,12.3,16.6,11.8,16.6z"/>
			<path fill="#FFFFFF" d="M13,14.8c0.1,0,0.1,0,0.1,0c0.2-0.1,0.3-0.1,0.5-0.1c0.1,0,0.3,0,0.4,0.1c0.1,0.1,0.1,0.1,0.2,0.3
				c0,0.1,0,0.3-0.1,0.3l-0.1,0.1c0,0,0,0,0.1,0c0.1,0.1,0.2,0.1,0.2,0.3c0,0.1,0,0.1,0.1,0.2c0,0.1,0,0.1,0.1,0.1l0.1,0.1
				c0,0,0,0,0,0.1c-0.1,0-0.2,0.1-0.3,0.1c0,0-0.1-0.1-0.1-0.1c0-0.1,0-0.1-0.1-0.1c0-0.1,0-0.1,0-0.1c0-0.1-0.1-0.1-0.1-0.2
				c-0.1,0-0.1-0.1-0.2,0c-0.1,0-0.2,0.1-0.3,0.1c0.1,0.3,0.1,0.4,0.1,0.6c-0.1,0-0.1,0-0.1,0s-0.1,0-0.1,0
				C13.1,15.8,13.1,15.4,13,14.8z M13.4,15.5c0.1,0,0.2-0.1,0.3-0.1c0.1,0,0.1-0.1,0.1-0.1c0-0.1,0.1-0.1,0-0.2
				c0-0.1-0.1-0.1-0.1-0.1c-0.1,0-0.1-0.1-0.2,0c-0.1,0-0.2,0.1-0.3,0.1C13.3,15.2,13.3,15.3,13.4,15.5z"/>
		</g>
	</g>
</g>
</svg>
