<?xml version="1.0" encoding="utf-8"?>
<!-- Generator: Adobe Illustrator 18.0.0, SVG Export Plug-In . SVG Version: 6.00 Build 0)  -->
<!DOCTYPE svg PUBLIC "-//W3C//DTD SVG 1.1//EN" "http://www.w3.org/Graphics/SVG/1.1/DTD/svg11.dtd">
<svg version="1.1" id="图层_1" xmlns="http://www.w3.org/2000/svg" xmlns:xlink="http://www.w3.org/1999/xlink" x="0px" y="0px"
	 viewBox="0 0 30 30" enable-background="new 0 0 30 30" xml:space="preserve" width="30" height="30">
<g id="XMLID_258_">
	<polygon id="XMLID_280_" fill="#AE8532" points="25.5,21.9 11.3,30 11.3,11.9 25.5,3.7 	"/>
	<polygon id="XMLID_279_" fill="#E5C584" points="25.5,3.7 11.3,11.9 4.5,8.1 18.8,0 	"/>
	<polygon id="XMLID_278_" fill="#DEB45B" points="11.3,30 4.5,26.3 4.5,8.1 11.3,11.9 	"/>
	<polygon id="XMLID_277_" fill="#E5C584" points="11.3,25.1 6.1,22.5 6.5,22 11.3,24.8 12.2,24.3 12.3,24.6 	"/>
	<polygon id="XMLID_276_" fill="#E5C584" points="11.3,25.9 6.1,23.4 6.5,23 11.3,25.7 12.2,25.2 12.3,25.5 	"/>
	<polygon id="XMLID_275_" fill="#E5C584" points="11.3,26.8 6.1,24.3 6.5,23.8 11.3,26.6 12.2,26.1 12.3,26.4 	"/>
	<polygon id="XMLID_274_" fill="#E5C584" points="11.3,27.8 6.1,25.2 6.5,24.8 11.3,27.4 12.2,27 12.3,27.3 	"/>
	<polygon id="XMLID_273_" fill="#E5C584" points="11.3,28.8 6.1,26.1 6.5,25.7 11.3,28.3 12.2,27.9 12.3,28.2 	"/>
	<polygon id="XMLID_272_" fill="#DEB45B" points="6.1,7.2 5.7,7.4 12.5,11.1 12.5,11.1 12.5,11.1 12.5,29.3 12.9,29.1 12.9,11 
		12.9,11 	"/>
	<path id="XMLID_259_" fill="#E5C584" d="M10,14H9.9l-4.3-2.3c-0.3,0-0.3-0.3-0.2-0.5s0.3-0.2,0.4-0.1l4.4,2.2
		c0.1,0,0.3,0.3,0.1,0.4C10.3,14,10.2,14,10,14z"/>
</g>
</svg>
