<?xml version="1.0" encoding="utf-8"?>
<!-- Generator: Adobe Illustrator 18.0.0, SVG Export Plug-In . SVG Version: 6.00 Build 0)  -->
<!DOCTYPE svg PUBLIC "-//W3C//DTD SVG 1.1//EN" "http://www.w3.org/Graphics/SVG/1.1/DTD/svg11.dtd">
<svg version="1.1" id="图层_1" xmlns="http://www.w3.org/2000/svg" xmlns:xlink="http://www.w3.org/1999/xlink" x="0px" y="0px"
	 viewBox="0 0 30 30" enable-background="new 0 0 30 30" xml:space="preserve" width="30" height="30">
<g>
	<polygon id="XMLID_13_" fill="#8FCCB0" points="30,13 15,4.2 0,13 15,21.6 	"/>
	<polygon id="XMLID_10_" fill="#327C57" points="30,13 15,21.6 15,25.8 30,17.1 	"/>
	<polygon id="XMLID_9_" fill="#60AA8A" points="15,25.8 0,17.1 0,13 15,21.6 	"/>
	<path fill="#FFFFFF" d="M21.4,11.4c-1.2-0.7-2.8-1-4.4-0.8c-0.2-0.3-0.4-0.6-0.8-0.8c-1.2-0.7-3.1-0.8-4.4-0.1
		c-1.4-0.6-3.4-0.5-4.7,0.2c-1.4,0.8-1.4,2.2,0,3l7.6,4.5c1.4,0.8,3.7,0.9,5.2,0c0.8-0.5,1.1-1.1,1-1.7c0.2-0.1,0.3-0.2,0.5-0.2
		C23.4,14.4,23.3,12.6,21.4,11.4z M17.3,12.2c0,0.2-0.1,0.6-0.2,0.8L17,13.4c0,0.2-0.3,0.3-0.6,0.1L16,13.2l-1.8,1
		c-0.1,0.1-0.3,0-0.5,0l-1-0.6c-0.2-0.1-0.2-0.2-0.1-0.3l1.8-1L13.9,12c-0.3-0.2-0.2-0.3,0.2-0.3l0.6,0c0.4,0,1-0.1,1.4-0.1l0.6,0
		c0.4,0,0.6,0.1,0.6,0.4L17.3,12.2z"/>
	<path fill="#FFFFFF" d="M13.8,23c0,0.5-0.3,0.6-0.8,0.4c-0.4-0.2-0.8-0.8-0.8-1.3c0-0.5,0.3-0.6,0.8-0.4C13.5,22,13.8,22.6,13.8,23
		z"/>
</g>
</svg>
