<?xml version="1.0" encoding="utf-8"?>
<!-- Generator: Adobe Illustrator 19.0.0, SVG Export Plug-In . SVG Version: 6.00 Build 0)  -->
<svg version="1.1" id="图层_1" xmlns="http://www.w3.org/2000/svg" xmlns:xlink="http://www.w3.org/1999/xlink" x="0px" y="0px"
	 viewBox="0 0 30 30" style="enable-background:new 0 0 30 30;" xml:space="preserve" width="30" height="30">
<style type="text/css">
	.st0{fill:#B28730;}
	.st1{fill:#E5B95A;}
	.st2{fill:#EAC986;}
</style>
<g id="XMLID_763_">
	<path id="XMLID_766_" class="st0" d="M29.1,27.2l-4-5.1H4.9l-4,5.1C0,28.6-0.3,30,0.4,30h29.2C30.3,30,30,28.6,29.1,27.2z"/>
	<path id="XMLID_765_" class="st1" d="M29.1,17.8l-4-5.1H4.9l-4,5.1c-1,1.5-1.2,2.8-0.5,2.8h29.2C30.3,20.6,30,19.2,29.1,17.8z"/>
	<path id="XMLID_764_" class="st2" d="M29.6,11.2H0.4c-0.7,0-0.4-1.2,0.5-2.5l6.6-8.1C7.8,0.3,8.2,0,8.5,0h12.9c0.3,0,0.8,0.3,1,0.6
		l6.6,8.1C30,10,30.3,11.2,29.6,11.2z"/>
</g>
</svg>
