<?xml version="1.0" encoding="utf-8"?>
<!-- Generator: Adobe Illustrator 19.0.0, SVG Export Plug-In . SVG Version: 6.00 Build 0)  -->
<svg version="1.1" id="图层_1" xmlns="http://www.w3.org/2000/svg" xmlns:xlink="http://www.w3.org/1999/xlink" x="0px" y="0px"
	 viewBox="0 0 30 30" style="enable-background:new 0 0 30 30;" xml:space="preserve" width="30" height="30">
<style type="text/css">
	.st0{fill:#337F59;}
	.st1{fill:#61B290;}
	.st2{fill:#94D6B8;}
	.st3{fill:#FFFFFF;}
</style>
<g id="XMLID_602_">
	<g id="XMLID_611_">
		<g id="XMLID_612_">
			<polygon id="XMLID_614_" class="st0" points="30,13 15,21.7 15,25.8 30,17.2 			"/>
			<polygon id="XMLID_613_" class="st1" points="15,25.8 0,17.2 0,13 15,21.7 			"/>
		</g>
	</g>
	<g id="XMLID_603_">
		<polygon id="XMLID_610_" class="st2" points="15,21.7 0,13 15,4.2 30,13 		"/>
	</g>
</g>
<path id="XMLID_1_" class="st3" d="M21.5,14.9l1.2,0.6l4.2-2.5l-4.2-2.5l-1.2,0.7l2.2,1.3l-4.2-0.1c-0.5-1.2-1.5-2-3.5-2.3V8.1
	l2,1.1l1.2-0.7L15,6.1l-4.2,2.5L12,9.3l2-1.2v2.1c-1,0.2-2.8,0.4-3.7,2.2l-3.8,0.1l1.8-0.8l-1-0.9l-4.2,2.3l4.2,2.4L8.5,15l-2.1-1.1
	l4,0c0.3,1.3,2.5,1.8,3.6,1.9v2.1l-2-1.2l-1.2,0.7l4.2,2.5l4.2-2.5L18,16.8l-2,1.1v-2.1c2-0.2,3.2-0.9,3.6-1.9l3.8,0L21.5,14.9z
	 M12,13c0-1,1.4-1.8,3-1.8c1.7,0,3,0.8,3,1.8s-1.4,1.8-3,1.8C13.3,14.8,12,14,12,13z"/>
</svg>
