<?xml version="1.0" encoding="utf-8"?>
<!-- Generator: Adobe Illustrator 18.0.0, SVG Export Plug-In . SVG Version: 6.00 Build 0)  -->
<!DOCTYPE svg PUBLIC "-//W3C//DTD SVG 1.1//EN" "http://www.w3.org/Graphics/SVG/1.1/DTD/svg11.dtd">
<svg version="1.1" id="图层_1" xmlns="http://www.w3.org/2000/svg" xmlns:xlink="http://www.w3.org/1999/xlink" x="0px" y="0px"
	 viewBox="0 0 30 30" enable-background="new 0 0 30 30" xml:space="preserve" width="30" height="30">
<g>
	<g>
		<polyline fill-rule="evenodd" clip-rule="evenodd" fill="#5FA586" points="0,3.4 0,30 26.7,30 26.7,3.4 0,3.4 		"/>
		<polyline fill-rule="evenodd" clip-rule="evenodd" fill="#8CC5AB" points="0,3.4 3.3,0 30,0 26.7,3.4 0,3.4 		"/>
		<polyline fill-rule="evenodd" clip-rule="evenodd" fill="#317956" points="26.7,3.4 30,0 30,26.7 26.7,30 26.7,3.4 		"/>
	</g>
	<g>
		<path fill="#FFFFFF" d="M20.6,15l-3.8,3.8c-0.9,0.9-2.1,1.4-3.3,1.4c-1.3,0-2.4-0.4-3.4-1.3L12,17c0.4,0.4,1,0.6,1.5,0.6
			c0.6,0,1.1-0.2,1.5-0.7l3.8-3.8c0.4-0.4,0.6-1,0.6-1.6c0-0.6-0.2-1.2-0.6-1.6c-0.4-0.4-1-0.7-1.6-0.7c-0.6,0-1.2,0.2-1.6,0.7
			L15,10.7c-0.5,0.5-1.3,0.5-1.8,0l0,0c-0.5-0.5-0.5-1.3,0-1.9l0.7-0.7c1.9-1.9,4.9-1.9,6.8,0C22.5,10,22.5,13.1,20.6,15L20.6,15z
			 M20.6,15"/>
		<path fill="#FFFFFF" d="M13.5,24l-0.7,0.7c-1.9,1.9-5,1.9-6.8,0c-1.9-1.9-1.9-5,0-6.9L9.8,14c0.9-0.9,2.1-1.4,3.3-1.4
			c1.3,0,2.4,0.4,3.4,1.3l-1.8,1.9c-0.4-0.4-1-0.6-1.5-0.6c-0.6,0-1.1,0.2-1.5,0.7l-3.8,3.8c-0.4,0.4-0.6,1-0.6,1.6
			c0,0.6,0.2,1.2,0.6,1.6c0.4,0.4,1,0.7,1.6,0.7c0.6,0,1.2-0.2,1.6-0.7l0.7-0.7c0.5-0.5,1.3-0.5,1.8,0l0,0C14,22.6,14,23.5,13.5,24
			L13.5,24z M13.5,24"/>
	</g>
</g>
</svg>
