<?xml version="1.0" encoding="utf-8"?>
<!-- Generator: Adobe Illustrator 18.0.0, SVG Export Plug-In . SVG Version: 6.00 Build 0)  -->
<!DOCTYPE svg PUBLIC "-//W3C//DTD SVG 1.1//EN" "http://www.w3.org/Graphics/SVG/1.1/DTD/svg11.dtd">
<svg version="1.1" id="图层_1" xmlns="http://www.w3.org/2000/svg" xmlns:xlink="http://www.w3.org/1999/xlink" x="0px" y="0px"
	 viewBox="0 0 30 30" enable-background="new 0 0 30 30" xml:space="preserve" width="30" height="30">
<g id="XMLID_281_">
	<g id="XMLID_288_">
		<path id="XMLID_294_" fill="#AE8532" d="M23.5,21h0.9h1.2c2.4,0,4.4-2,4.4-4.3V4.4C30,1.9,28.1,0,25.7,0H13.4
			c-1.8,0-3.5,1.2-4.1,2.8V10l-6.9,1.1v16.3l15.3,0.4L20,22L23.5,21z"/>
		<g id="XMLID_289_">
			<path id="XMLID_291_" fill="#E5C584" d="M23.1,2.6H11c-2.6,0-4.5,1.9-4.5,4.3V9H4.4C2,9,0,11,0,13.3v12.3C0,28.1,2,30,4.4,30
				h12.3c2.4,0,4.3-1.9,4.3-4.3v-2.1h2.1c2.4,0,4.3-2,4.3-4.3V6.9C27.4,4.5,25.5,2.6,23.1,2.6z M24,19c0,0.5-0.5,0.9-0.9,0.9H21
				h-3.4v3.5v2.1c0,0.4-0.4,0.9-0.9,0.9H4.4c-0.4,0-0.9-0.5-0.9-0.9V13.3c0-0.5,0.4-0.9,0.9-0.9h2.1H10V9V6.9C9.9,6.3,10.4,6,11,6
				h12.3C23.7,6,24,6.3,24,6.9V19z"/>
			<polygon id="XMLID_290_" fill="#E5C584" points="13.1,15.5 6.5,15.5 6.5,23.5 14.6,23.5 14.6,17 21,17 21,9 13.1,9 			"/>
		</g>
	</g>
	<rect id="XMLID_287_" x="12.9" y="6.8" fill="#FFFFFF" width="2.7" height="1.6"/>
	<rect id="XMLID_286_" x="21.9" y="15.8" fill="#FFFFFF" width="2.7" height="1.7"/>
	<rect id="XMLID_285_" x="15" y="21.9" fill="#FFFFFF" width="2.7" height="1.7"/>
	<rect id="XMLID_284_" x="6.3" y="12.9" fill="#FFFFFF" width="2.7" height="1.7"/>
	<rect id="XMLID_283_" x="11.3" y="10.7" fill="#FFFFFF" width="1.7" height="2.7"/>
	<rect id="XMLID_282_" x="18.2" y="17.4" fill="#FFFFFF" width="1.7" height="2.7"/>
</g>
</svg>
