<?xml version="1.0" encoding="utf-8"?>
<!-- Generator: Adobe Illustrator 18.0.0, SVG Export Plug-In . SVG Version: 6.00 Build 0)  -->
<!DOCTYPE svg PUBLIC "-//W3C//DTD SVG 1.1//EN" "http://www.w3.org/Graphics/SVG/1.1/DTD/svg11.dtd">
<svg version="1.1" id="图层_1" xmlns="http://www.w3.org/2000/svg" xmlns:xlink="http://www.w3.org/1999/xlink" x="0px" y="0px"
	 viewBox="0 0 30 30" enable-background="new 0 0 30 30" xml:space="preserve" width="30" height="30">
<g id="XMLID_493_">
	<g id="XMLID_500_">
		<path id="XMLID_506_" fill="#040000" d="M23.6,20.9h0.9h1.2c2.4,0,4.4-2,4.4-4.3V4.3c0-2.4-1.9-4.4-4.3-4.4H13.4
			c-1.8,0-3.4,1.2-4.1,2.9V10l-6.9,1.1v16.3l15.3,0.4L20,22L23.6,20.9z"/>
		<g id="XMLID_501_">
			<path id="XMLID_503_" fill="#666767" d="M23.1,2.5H11c-2.6,0-4.5,2-4.5,4.4V9H4.4c-2.4,0-4.4,2-4.4,4.3v12.3c0,2.4,2,4.4,4.4,4.4
				h12.3c2.4,0,4.3-2,4.3-4.4v-2.1h2.1c2.4,0,4.4-2,4.4-4.4V6.9C27.5,4.5,25.5,2.5,23.1,2.5z M24,19c0,0.5-0.5,0.9-0.9,0.9H21h-3.5
				v3.4v2.1c0,0.4-0.5,0.9-0.9,0.9H4.4c-0.5,0-0.9-0.4-0.9-0.9V13.3c0-0.5,0.5-0.9,0.9-0.9h2.1H10V9V6.9C10,6.3,10.4,6,11,6h12.3
				C23.7,6,24,6.3,24,6.9V19z"/>
			<polygon id="XMLID_502_" fill="#666767" points="13.1,15.4 6.5,15.4 6.5,23.5 14.6,23.5 14.6,16.9 21,16.9 21,9 13.1,9 			"/>
		</g>
	</g>
	<rect id="XMLID_499_" x="12.9" y="6.7" fill="#FFFFFF" width="2.7" height="1.7"/>
	<rect id="XMLID_498_" x="21.9" y="15.7" fill="#FFFFFF" width="2.7" height="1.7"/>
	<rect id="XMLID_497_" x="15" y="21.8" fill="#FFFFFF" width="2.7" height="1.7"/>
	<rect id="XMLID_496_" x="6.4" y="12.9" fill="#FFFFFF" width="2.7" height="1.7"/>
	<rect id="XMLID_495_" x="11.3" y="10.6" fill="#FFFFFF" width="1.7" height="2.7"/>
	<rect id="XMLID_494_" x="18.2" y="17.4" fill="#FFFFFF" width="1.7" height="2.7"/>
</g>
</svg>
