<?xml version="1.0" encoding="utf-8"?>
<!-- Generator: Adobe Illustrator 18.0.0, SVG Export Plug-In . SVG Version: 6.00 Build 0)  -->
<!DOCTYPE svg PUBLIC "-//W3C//DTD SVG 1.1//EN" "http://www.w3.org/Graphics/SVG/1.1/DTD/svg11.dtd">
<svg version="1.1" id="图层_1" xmlns="http://www.w3.org/2000/svg" xmlns:xlink="http://www.w3.org/1999/xlink" x="0px" y="0px"
	 viewBox="0 0 30 30" enable-background="new 0 0 30 30" xml:space="preserve" width="30" height="30">
<g id="XMLID_387_">
	<g id="XMLID_394_">
		<path id="XMLID_400_" fill="#717070" d="M23.6,21h0.9h1.2c2.4,0,4.4-1.9,4.4-4.3V4.3C30,1.9,28.1,0,25.7,0H13.3
			c-1.8,0-3.4,1.2-4,2.9v7.2l-6.9,1v16.4l15.2,0.4L20,22L23.6,21z"/>
		<g id="XMLID_395_">
			<path id="XMLID_397_" fill="#C7C6C6" d="M23.1,2.5H11c-2.6,0-4.5,2-4.5,4.4V9H4.5C2,9,0.1,10.9,0.1,13.3v12.3
				c0,2.4,2,4.4,4.4,4.4h12.3c2.4,0,4.4-1.9,4.4-4.4v-2.1h2.1c2.4,0,4.4-1.9,4.4-4.3V6.9C27.5,4.5,25.5,2.5,23.1,2.5z M24,19.1
				c0,0.4-0.5,0.9-0.9,0.9H21h-3.5v3.5v2.1c0,0.4-0.4,0.9-0.9,0.9H4.4c-0.4,0-0.9-0.4-0.9-0.9V13.3c0-0.5,0.4-0.9,0.9-0.9h2.1h3.5V9
				V6.9C9.9,6.3,10.4,6,11,6h12.3C23.7,6,24,6.3,24,6.9V19.1z"/>
			<polygon id="XMLID_396_" fill="#C7C6C6" points="13.1,15.5 6.5,15.5 6.5,23.6 14.6,23.6 14.6,17 21,17 21,9 13.1,9 			"/>
		</g>
	</g>
	<rect id="XMLID_393_" x="12.9" y="6.7" fill="#FFFFFF" width="2.7" height="1.6"/>
	<rect id="XMLID_392_" x="21.9" y="15.8" fill="#FFFFFF" width="2.7" height="1.7"/>
	<rect id="XMLID_391_" x="15" y="21.9" fill="#FFFFFF" width="2.7" height="1.7"/>
	<rect id="XMLID_390_" x="6.4" y="12.9" fill="#FFFFFF" width="2.7" height="1.7"/>
	<rect id="XMLID_389_" x="11.3" y="10.6" fill="#FFFFFF" width="1.7" height="2.7"/>
	<rect id="XMLID_388_" x="18.2" y="17.4" fill="#FFFFFF" width="1.7" height="2.7"/>
</g>
</svg>
