<?xml version="1.0" encoding="utf-8"?>
<!-- Generator: Adobe Illustrator 19.0.0, SVG Export Plug-In . SVG Version: 6.00 Build 0)  -->
<svg version="1.1" id="图层_1" xmlns="http://www.w3.org/2000/svg" xmlns:xlink="http://www.w3.org/1999/xlink" x="0px" y="0px"
	 viewBox="0 0 30 30" style="enable-background:new 0 0 30 30;" xml:space="preserve" width="30" height="30">
<style type="text/css">
	.st0{fill:#337F59;}
	.st1{fill:#61B290;}
	.st2{fill:#94D6B8;}
	.st3{fill:#FFFFFF;}
</style>
<g id="XMLID_636_">
	<g id="XMLID_688_">
		<g id="XMLID_695_">
			<polygon id="XMLID_697_" class="st0" points="30,13 15,21.7 15,25.8 30,17.2 			"/>
			<polygon id="XMLID_696_" class="st1" points="15,25.8 0,17.2 0,13 15,21.7 			"/>
		</g>
	</g>
	<polygon id="XMLID_699_" class="st2" points="15,21.7 0,13 15,4.2 30,13 	"/>
	<g id="XMLID_707_">
		<path id="XMLID_708_" class="st3" d="M12.4,10.1h5.2L15,11.6L12.4,10.1 M13.7,15c-0.3,0.2-0.4,0.4-0.4,0.7c0,0.6,0.8,1,1.7,1
			c1,0,1.7-0.5,1.7-1c0-0.3-0.2-0.5-0.5-0.7l1.2-0.7c0.6,0.4,1,0.9,1,1.4c0,1.1-1.6,2-3.5,2c-1.9,0-3.5-0.9-3.5-2c0-0.5,0.4-1,1-1.4
			l0,0l6.2-3.6l0,0c0.6-0.4,1.5-0.6,2.5-0.6c1.9,0,3.5,0.9,3.5,2c0,1.1-1.6,2-3.5,2c-1,0-1.8-0.2-2.5-0.6l1.2-0.7
			c0.3,0.2,0.7,0.3,1.2,0.3c1,0,1.7-0.5,1.7-1c0-0.6-0.8-1-1.7-1c-0.5,0-0.9,0.1-1.2,0.3L13.7,15 M10.2,11.4
			c-0.3-0.2-0.7-0.3-1.2-0.3c-1,0-1.7,0.5-1.7,1c0,0.6,0.8,1,1.7,1c0.5,0,0.9-0.1,1.2-0.3l1.2,0.7c-0.6,0.4-1.5,0.6-2.5,0.6
			c-1.9,0-3.5-0.9-3.5-2c0-1.1,1.6-2,3.5-2c1,0,1.8,0.2,2.5,0.6l0,0l2.4,1.4l-1.2,0.7L10.2,11.4L10.2,11.4z M10.2,11.4"/>
	</g>
</g>
</svg>
