<?xml version="1.0" encoding="utf-8"?>
<!-- Generator: Adobe Illustrator 18.0.0, SVG Export Plug-In . SVG Version: 6.00 Build 0)  -->
<!DOCTYPE svg PUBLIC "-//W3C//DTD SVG 1.1//EN" "http://www.w3.org/Graphics/SVG/1.1/DTD/svg11.dtd">
<svg version="1.1" id="图层_1" xmlns="http://www.w3.org/2000/svg" xmlns:xlink="http://www.w3.org/1999/xlink" x="0px" y="0px"
	 viewBox="0 0 30 30" enable-background="new 0 0 30 30" xml:space="preserve" width="30" height="30">
<g>
	<polygon id="XMLID_492_" fill="#070001" points="24,21.9 9.8,30 9.8,11.9 24,3.8 	"/>
	<polygon id="XMLID_491_" fill="#666868" points="24,3.8 9.8,11.9 3,8.1 17.3,0 	"/>
	<polygon id="XMLID_490_" fill="#333333" points="9.8,30 3,26.3 3,8.1 9.8,11.9 	"/>
	<polygon id="XMLID_489_" fill="#666868" points="9.8,25.1 4.6,22.5 4.9,22 9.8,24.8 10.6,24.3 10.8,24.6 	"/>
	<polygon id="XMLID_488_" fill="#666868" points="9.8,25.9 4.6,23.4 4.9,23 9.8,25.7 10.6,25.2 10.8,25.5 	"/>
	<polygon id="XMLID_487_" fill="#666868" points="9.8,26.8 4.6,24.3 4.9,23.8 9.8,26.6 10.6,26.1 10.8,26.4 	"/>
	<polygon id="XMLID_486_" fill="#666868" points="9.8,27.8 4.6,25.2 4.9,24.8 9.8,27.4 10.6,27 10.8,27.3 	"/>
	<polygon id="XMLID_485_" fill="#666868" points="9.8,28.8 4.6,26.1 4.9,25.7 9.8,28.3 10.6,27.9 10.8,28.2 	"/>
	<polygon id="XMLID_484_" fill="#333333" points="4.6,7.2 4.2,7.4 11,11.1 11,11.1 11,11.1 11,29.3 11.4,29.1 11.4,11 11.4,11 	"/>
	<path id="XMLID_471_" fill="#666868" d="M8.5,14L8.5,14L4,11.7c-0.3,0-0.3-0.3-0.2-0.5c0.2-0.1,0.3-0.1,0.5-0.1l4.4,2.2
		c0.1,0,0.3,0.3,0.1,0.4C8.9,14,8.7,14,8.5,14z"/>
</g>
<path fill="#333333" d="M27,20.7c0,4-2.3,6.3-5.1,4.8s-5.1-6-5.1-10.2s2.4-6.3,5.1-4.8C24.8,12,27,16.7,27,20.7z"/>
<g>
	<g>
		<g>
			<path fill="#FFFFFF" d="M18.4,18.3l-0.7-4.5L18,14l0.4,2.9c0,0.3,0.1,0.6,0.1,0.9c0.1-0.4,0.1-0.6,0.1-0.7l0.5-2.5l0.4,0.2
				l0.4,2.3c0.1,0.6,0.2,1.1,0.2,1.6c0-0.2,0.1-0.5,0.1-0.8l0.4-2.4l0.4,0.2l-0.8,3.7l-0.3-0.2l-0.6-3.4c0-0.3-0.1-0.5-0.1-0.5
				c0,0.2-0.1,0.3-0.1,0.4l-0.6,2.8L18.4,18.3z"/>
			<path fill="#FFFFFF" d="M23.4,18.7v0.5l-1.5-0.8v1.4l1.7,0.9v0.5L21.5,20v-4.1l2,1.1v0.5l-1.6-0.9v1.3"/>
			<path fill="#FFFFFF" d="M24.1,21.4v-4.1l1,0.6c0.2,0.1,0.4,0.2,0.5,0.4c0.1,0.2,0.2,0.3,0.3,0.5C26,19,26,19.2,26,19.4
				c0,0.2,0,0.3-0.1,0.4S25.7,20,25.6,20c0.2,0.2,0.3,0.4,0.4,0.6s0.1,0.5,0.1,0.7s0,0.4-0.1,0.5s-0.1,0.2-0.2,0.3
				c-0.1,0-0.2,0.1-0.3,0c-0.1-0.1-0.3-0.1-0.4-0.2L24.1,21.4z M24.4,19.2l0.6,0.3c0.2,0.1,0.3,0.1,0.3,0.1c0.1,0,0.2,0,0.2-0.1
				s0.1-0.2,0.1-0.3c0-0.1,0-0.3-0.1-0.4c0-0.1-0.1-0.2-0.2-0.3s-0.2-0.2-0.4-0.3L24.4,18V19.2z M24.4,21.1l0.7,0.4
				c0.1,0.1,0.2,0.1,0.2,0.1c0.1,0,0.2,0,0.2,0c0.1,0,0.1-0.1,0.1-0.2s0.1-0.2,0.1-0.3c0-0.2,0-0.3-0.1-0.4s-0.1-0.3-0.2-0.4
				S25.2,20.1,25,20l-0.6-0.3C24.4,19.7,24.4,21.1,24.4,21.1z"/>
		</g>
	</g>
</g>
</svg>
