<?xml version="1.0" encoding="utf-8"?>
<!-- Generator: Adobe Illustrator 18.0.0, SVG Export Plug-In . SVG Version: 6.00 Build 0)  -->
<!DOCTYPE svg PUBLIC "-//W3C//DTD SVG 1.1//EN" "http://www.w3.org/Graphics/SVG/1.1/DTD/svg11.dtd">
<svg version="1.1" id="图层_1" xmlns="http://www.w3.org/2000/svg" xmlns:xlink="http://www.w3.org/1999/xlink" x="0px" y="0px"
	 viewBox="0 0 30 30" enable-background="new 0 0 30 30" xml:space="preserve" width="30" height="30">
<polygon id="XMLID_386_" fill="#317957" points="23.4,21.9 9.2,30 9.2,11.9 23.4,3.7 "/>
<polygon id="XMLID_385_" fill="#8EC7AD" points="23.4,3.7 9.2,11.9 2.4,8.1 16.7,0 "/>
<polygon id="XMLID_384_" fill="#60A787" points="9.2,30 2.4,26.3 2.4,8.1 9.2,11.9 "/>
<polygon id="XMLID_383_" fill="#8EC7AD" points="9.2,25.1 4,22.5 4.4,22.1 9.2,24.8 10.1,24.3 10.2,24.6 "/>
<polygon id="XMLID_382_" fill="#8EC7AD" points="9.2,25.9 4,23.4 4.4,23 9.2,25.7 10.1,25.2 10.2,25.5 "/>
<polygon id="XMLID_381_" fill="#8EC7AD" points="9.2,26.9 4,24.3 4.4,23.9 9.2,26.6 10.1,26.1 10.2,26.4 "/>
<polygon id="XMLID_380_" fill="#8EC7AD" points="9.2,27.8 4,25.2 4.4,24.8 9.2,27.4 10.1,27 10.2,27.3 "/>
<polygon id="XMLID_379_" fill="#8EC7AD" points="9.2,28.8 4,26.1 4.4,25.7 9.2,28.4 10.1,27.9 10.2,28.2 "/>
<polygon id="XMLID_378_" fill="#60A787" points="4,7.2 3.6,7.4 10.4,11.1 10.4,11.1 10.4,11.1 10.4,29.3 10.8,29.1 10.8,11 10.8,11 
	"/>
<path id="XMLID_365_" fill="#8EC7AD" d="M7.9,14H7.8l-4.4-2.2c-0.3-0.1-0.3-0.4-0.1-0.5c0.1-0.1,0.3-0.3,0.4-0.1l4.4,2.2
	c0.1,0,0.3,0.3,0.1,0.5C8.3,14,8.1,14,7.9,14z"/>
<path fill="#60A787" d="M26.4,20.7c0,4.1-2.3,6.2-5,4.7s-5-6.1-5-10.1s2.3-6.2,5-4.7S26.4,16.6,26.4,20.7z"/>
<g>
	<g>
		<g>
			<path fill="#FFFFFF" d="M17.9,18.3l-0.7-4.5l0.3,0.2l0.4,2.9c0,0.3,0.1,0.6,0.1,0.9c0.1-0.4,0.1-0.6,0.1-0.7l0.5-2.5l0.4,0.2
				l0.4,2.3c0.1,0.6,0.2,1.1,0.2,1.6c0-0.2,0.1-0.5,0.1-0.8l0.4-2.4l0.4,0.2l-0.8,3.7l-0.3-0.2l-0.6-3.4c0-0.3-0.1-0.5-0.1-0.5
				c0,0.2-0.1,0.3-0.1,0.4L18,18.5L17.9,18.3z"/>
			<path fill="#FFFFFF" d="M22.9,18.7v0.5l-1.5-0.8v1.4l1.7,0.9v0.5L21,20v-4.1l2,1.1v0.5l-1.6-0.9v1.3"/>
			<path fill="#FFFFFF" d="M23.6,21.4v-4.1l1,0.6c0.2,0.1,0.4,0.2,0.5,0.4c0.1,0.2,0.2,0.3,0.3,0.5c0.1,0.2,0.1,0.4,0.1,0.6
				c0,0.2,0,0.3-0.1,0.4S25.2,20,25.1,20c0.2,0.2,0.3,0.4,0.4,0.6s0.1,0.5,0.1,0.7s0,0.4-0.1,0.5s-0.1,0.2-0.2,0.3
				c-0.1,0-0.2,0.1-0.3,0c-0.1-0.1-0.3-0.1-0.4-0.2L23.6,21.4z M23.9,19.2l0.6,0.3c0.2,0.1,0.3,0.1,0.3,0.1c0.1,0,0.2,0,0.2-0.1
				s0.1-0.2,0.1-0.3c0-0.1,0-0.3-0.1-0.4c0-0.1-0.1-0.2-0.2-0.3s-0.2-0.2-0.4-0.3L23.9,18V19.2z M23.9,21.1l0.7,0.4
				c0.1,0.1,0.2,0.1,0.2,0.1c0.1,0,0.2,0,0.2,0c0.1,0,0.1-0.1,0.1-0.2s0.1-0.2,0.1-0.3c0-0.2,0-0.3-0.1-0.4s-0.1-0.3-0.2-0.4
				s-0.2-0.2-0.4-0.3l-0.6-0.3C23.9,19.7,23.9,21.1,23.9,21.1z"/>
		</g>
	</g>
</g>
</svg>
