<?xml version="1.0" encoding="utf-8"?>
<!-- Generator: Adobe Illustrator 18.0.0, SVG Export Plug-In . SVG Version: 6.00 Build 0)  -->
<!DOCTYPE svg PUBLIC "-//W3C//DTD SVG 1.1//EN" "http://www.w3.org/Graphics/SVG/1.1/DTD/svg11.dtd">
<svg version="1.1" id="图层_1" xmlns="http://www.w3.org/2000/svg" xmlns:xlink="http://www.w3.org/1999/xlink" x="0px" y="0px"
	 viewBox="0 0 30 30" enable-background="new 0 0 30 30" xml:space="preserve" width="30" height="30">
<g>
	<polygon id="XMLID_386_" fill="#717070" points="24,21.9 9.8,30 9.8,11.9 24,3.7 	"/>
	<polygon id="XMLID_385_" fill="#C7C6C6" points="24,3.7 9.8,11.9 3,8.1 17.3,0 	"/>
	<polygon id="XMLID_384_" fill="#A7A7A6" points="9.8,30 3,26.3 3,8.1 9.8,11.9 	"/>
	<polygon id="XMLID_383_" fill="#C7C6C6" points="9.8,25.1 4.6,22.5 5,22.1 9.8,24.8 10.7,24.3 10.8,24.6 	"/>
	<polygon id="XMLID_382_" fill="#C7C6C6" points="9.8,25.9 4.6,23.4 5,23 9.8,25.7 10.7,25.2 10.8,25.5 	"/>
	<polygon id="XMLID_381_" fill="#C7C6C6" points="9.8,26.9 4.6,24.3 5,23.9 9.8,26.6 10.7,26.1 10.8,26.4 	"/>
	<polygon id="XMLID_380_" fill="#C7C6C6" points="9.8,27.8 4.6,25.2 5,24.8 9.8,27.4 10.7,27 10.8,27.3 	"/>
	<polygon id="XMLID_379_" fill="#C7C6C6" points="9.8,28.8 4.6,26.1 5,25.7 9.8,28.4 10.7,27.9 10.8,28.2 	"/>
	<polygon id="XMLID_378_" fill="#A7A7A6" points="4.6,7.2 4.2,7.4 11,11.1 11,11.1 11,11.1 11,29.3 11.4,29.1 11.4,11 11.4,11 	"/>
	<path id="XMLID_365_" fill="#C7C6C6" d="M8.5,14H8.4L4,11.8c-0.3-0.1-0.3-0.4-0.1-0.5C4,11.2,4.2,11,4.3,11.2l4.4,2.2
		c0.1,0,0.3,0.3,0.1,0.5C8.9,14,8.7,14,8.5,14z"/>
</g>
<path fill="#A7A7A6" d="M27,20.7c0,4.1-2.3,6.2-5,4.7s-5-6.1-5-10.2s2.3-6.2,5-4.7S27,16.6,27,20.7z"/>
<g>
	<g>
		<g>
			<path fill="#FFFFFF" d="M18.5,18.3l-0.7-4.5l0.3,0.2l0.4,2.9c0,0.3,0.1,0.6,0.1,0.9c0.1-0.4,0.1-0.6,0.1-0.7l0.5-2.5l0.4,0.2
				l0.4,2.3c0.1,0.6,0.2,1.1,0.2,1.6c0-0.2,0.1-0.5,0.1-0.8l0.4-2.4l0.4,0.2l-0.8,3.7L20,19.2l-0.6-3.4c0-0.3-0.1-0.5-0.1-0.5
				c0,0.2-0.1,0.3-0.1,0.4l-0.6,2.8L18.5,18.3z"/>
			<path fill="#FFFFFF" d="M23.5,18.7v0.5L22,18.4v1.4l1.7,0.9v0.5L21.6,20v-4.1l2,1.1v0.5L22,16.6v1.3"/>
			<path fill="#FFFFFF" d="M24.2,21.4v-4.1l1,0.6c0.2,0.1,0.4,0.2,0.5,0.4c0.1,0.2,0.2,0.3,0.3,0.5c0.1,0.2,0.1,0.4,0.1,0.6
				c0,0.2,0,0.3-0.1,0.4S25.8,20,25.7,20c0.2,0.2,0.3,0.4,0.4,0.6c0.1,0.2,0.1,0.5,0.1,0.7s0,0.4-0.1,0.5C26,21.9,26,22,25.9,22.1
				c-0.1,0-0.2,0.1-0.3,0c-0.1-0.1-0.3-0.1-0.4-0.2L24.2,21.4z M24.5,19.2l0.6,0.3c0.2,0.1,0.3,0.1,0.3,0.1c0.1,0,0.2,0,0.2-0.1
				s0.1-0.2,0.1-0.3c0-0.1,0-0.3-0.1-0.4c0-0.1-0.1-0.2-0.2-0.3s-0.2-0.2-0.4-0.3L24.5,18V19.2z M24.5,21.1l0.7,0.4
				c0.1,0.1,0.2,0.1,0.2,0.1c0.1,0,0.2,0,0.2,0c0.1,0,0.1-0.1,0.1-0.2s0.1-0.2,0.1-0.3c0-0.2,0-0.3-0.1-0.4s-0.1-0.3-0.2-0.4
				s-0.2-0.2-0.4-0.3l-0.6-0.3C24.5,19.7,24.5,21.1,24.5,21.1z"/>
		</g>
	</g>
</g>
</svg>
