<?xml version="1.0" encoding="utf-8"?>
<!-- Generator: Adobe Illustrator 18.0.0, SVG Export Plug-In . SVG Version: 6.00 Build 0)  -->
<!DOCTYPE svg PUBLIC "-//W3C//DTD SVG 1.1//EN" "http://www.w3.org/Graphics/SVG/1.1/DTD/svg11.dtd">
<svg version="1.1" id="图层_1" xmlns="http://www.w3.org/2000/svg" xmlns:xlink="http://www.w3.org/1999/xlink" x="0px" y="0px"
	 viewBox="0 0 50 50" enable-background="new 0 0 50 50" xml:space="preserve" width="50" height="50">
<g>
	<g>
		<g enable-background="new    ">
			<g>
				<polygon fill="#27678F" points="0,17 4.5,15.6 7.9,16 3.4,17.3 				"/>
			</g>
			<g>
				<polygon fill="#205677" points="8.8,32.6 13.3,31.3 10.9,33.9 6.3,35.2 				"/>
			</g>
			<g>
				<polygon fill="#3997D1" points="6.2,6.8 10.7,5.5 13,8.3 8.5,9.7 				"/>
			</g>
			<g>
				<polygon fill="#3388BC" points="17.4,35 21.9,33.7 21.9,37.6 17.4,38.9 				"/>
			</g>
			<g enable-background="new    ">
				<defs>
					<path id="SVGID_1_" enable-background="new    " d="M13.1,17.3l4.5-1.3c-0.6,0.2-1.1,0.5-1.5,1c-1.6,1.7-1.6,4.6,0,6.6
						c0.8,1,1.8,1.5,2.8,1.7c0.5,0.1,0.9,0,1.4-0.1l-4.5,1.3c-0.4,0.1-0.9,0.2-1.4,0.1c-1-0.1-2-0.7-2.8-1.7c-1.6-2-1.6-5,0-6.6
						C12,17.8,12.5,17.5,13.1,17.3z"/>
				</defs>
				<clipPath id="SVGID_2_">
					<use xlink:href="#SVGID_1_"  overflow="visible"/>
				</clipPath>
				<g clip-path="url(#SVGID_2_)" enable-background="new    ">
					<path fill="#1F5373" d="M13.1,17.3l4.5-1.3c-0.6,0.2-1.1,0.5-1.5,1c0,0,0,0,0,0l-4.5,1.3c0,0,0,0,0,0
						C12,17.8,12.5,17.5,13.1,17.3"/>
					<path fill="#205677" d="M11.5,18.3l4.5-1.3c-0.1,0.1-0.2,0.2-0.3,0.3l-4.5,1.3C11.3,18.5,11.4,18.4,11.5,18.3"/>
					<path fill="#22597C" d="M11.3,18.6l4.5-1.3c-0.1,0.1-0.1,0.2-0.2,0.3l-4.5,1.3C11.1,18.8,11.2,18.7,11.3,18.6"/>
					<path fill="#235C80" d="M11.1,18.8l4.5-1.3c-0.1,0.1-0.1,0.2-0.1,0.2l-4.5,1.3C11,19,11,18.9,11.1,18.8"/>
					<path fill="#245F85" d="M10.9,19.1l4.5-1.3c0,0.1-0.1,0.2-0.1,0.2l-4.5,1.3C10.9,19.2,10.9,19.2,10.9,19.1"/>
					<path fill="#256389" d="M10.8,19.3l4.5-1.3c0,0.1-0.1,0.1-0.1,0.2l-4.5,1.3C10.8,19.5,10.8,19.4,10.8,19.3"/>
					<path fill="#26668D" d="M10.7,19.6l4.5-1.3c0,0.1-0.1,0.1-0.1,0.2l-4.5,1.3C10.7,19.7,10.7,19.6,10.7,19.6"/>
					<path fill="#286992" d="M10.6,19.8l4.5-1.3c0,0.1,0,0.1-0.1,0.2L10.6,20C10.6,19.9,10.6,19.8,10.6,19.8"/>
					<path fill="#296C96" d="M10.6,20l4.5-1.3c0,0.1,0,0.1-0.1,0.2l-4.5,1.3C10.5,20.1,10.6,20.1,10.6,20"/>
					<path fill="#2A6F9B" d="M10.5,20.2l4.5-1.3c0,0.1,0,0.1,0,0.2l-4.5,1.3C10.5,20.4,10.5,20.3,10.5,20.2"/>
					<path fill="#2B729F" d="M10.5,20.4l4.5-1.3c0,0.1,0,0.2,0,0.2l-4.5,1.3C10.4,20.6,10.5,20.5,10.5,20.4"/>
					<path fill="#2C76A4" d="M10.4,20.7l4.5-1.3c0,0.1,0,0.2,0,0.2l-4.5,1.3C10.4,20.8,10.4,20.7,10.4,20.7"/>
					<path fill="#2E79A8" d="M10.4,20.9l4.5-1.3c0,0.1,0,0.2,0,0.2l-4.5,1.3C10.4,21.1,10.4,21,10.4,20.9"/>
					<path fill="#2F7CAC" d="M10.4,21.1l4.5-1.3c0,0.1,0,0.2,0,0.3l-4.5,1.3C10.4,21.3,10.4,21.2,10.4,21.1"/>
					<path fill="#307FB1" d="M10.4,21.4l4.5-1.3c0,0.1,0,0.2,0,0.3l-4.5,1.3C10.4,21.6,10.4,21.5,10.4,21.4"/>
					<path fill="#3182B5" d="M10.4,21.7l4.5-1.3c0,0.1,0,0.2,0,0.3L10.4,22C10.4,21.9,10.4,21.8,10.4,21.7"/>
					<path fill="#3286BA" d="M10.4,22l4.5-1.3c0,0.1,0,0.2,0,0.3l-4.5,1.3C10.4,22.2,10.4,22.1,10.4,22"/>
					<path fill="#3489BE" d="M10.4,22.3l4.5-1.3c0,0.1,0,0.2,0.1,0.4l-4.5,1.3C10.5,22.5,10.5,22.4,10.4,22.3"/>
					<path fill="#358CC2" d="M10.5,22.6l4.5-1.3c0,0.2,0.1,0.3,0.1,0.5l-4.5,1.3C10.6,22.9,10.6,22.8,10.5,22.6"/>
					<path fill="#368FC7" d="M10.6,23.1l4.5-1.3c0.2,0.6,0.5,1.2,0.9,1.8l-4.5,1.3C11.1,24.3,10.8,23.7,10.6,23.1"/>
					<path fill="#358CC2" d="M11.6,24.9l4.5-1.3c0,0,0,0,0,0c0.1,0.1,0.2,0.2,0.3,0.3l-4.5,1.3C11.8,25.1,11.7,25,11.6,24.9
						C11.6,24.9,11.6,24.9,11.6,24.9"/>
					<path fill="#3489BE" d="M11.9,25.2l4.5-1.3c0.1,0.1,0.2,0.2,0.3,0.2l-4.5,1.3C12,25.4,12,25.3,11.9,25.2"/>
					<path fill="#3286BA" d="M12.1,25.5l4.5-1.3c0.1,0.1,0.2,0.1,0.2,0.2l-4.5,1.3C12.3,25.6,12.2,25.5,12.1,25.5"/>
					<path fill="#3182B5" d="M12.4,25.7l4.5-1.3c0.1,0.1,0.1,0.1,0.2,0.2l-4.5,1.3C12.5,25.8,12.4,25.7,12.4,25.7"/>
					<path fill="#307FB1" d="M12.6,25.8l4.5-1.3c0.1,0,0.1,0.1,0.2,0.1L12.8,26C12.7,25.9,12.6,25.9,12.6,25.8"/>
					<path fill="#2F7CAC" d="M12.8,26l4.5-1.3c0.1,0,0.1,0.1,0.2,0.1L13,26.1C12.9,26,12.8,26,12.8,26"/>
					<path fill="#2E79A8" d="M13,26.1l4.5-1.3c0.1,0,0.1,0.1,0.2,0.1l-4.5,1.3C13.1,26.1,13,26.1,13,26.1"/>
					<path fill="#2C76A4" d="M13.2,26.2l4.5-1.3c0.1,0,0.1,0.1,0.2,0.1l-4.5,1.3C13.3,26.2,13.2,26.2,13.2,26.2"/>
					<path fill="#2B729F" d="M13.4,26.3l4.5-1.3C18,25,18,25,18.1,25l-4.5,1.3C13.5,26.3,13.4,26.3,13.4,26.3"/>
					<path fill="#2A6F9B" d="M13.6,26.3l4.5-1.3c0.1,0,0.1,0,0.2,0.1l-4.5,1.3C13.7,26.4,13.6,26.4,13.6,26.3"/>
					<path fill="#296C96" d="M13.8,26.4l4.5-1.3c0.1,0,0.1,0,0.2,0.1L14,26.5C13.9,26.5,13.8,26.4,13.8,26.4"/>
					<path fill="#286992" d="M14,26.5l4.5-1.3c0.1,0,0.1,0,0.2,0l-4.5,1.3C14.1,26.5,14,26.5,14,26.5"/>
					<path fill="#26668D" d="M14.2,26.5l4.5-1.3c0.1,0,0.1,0,0.2,0c0,0,0,0,0,0l-4.5,1.3c0,0,0,0,0,0C14.3,26.5,14.2,26.5,14.2,26.5
						"/>
					<path fill="#256389" d="M14.4,26.5l4.5-1.3c0.1,0,0.2,0,0.2,0l-4.5,1.3C14.5,26.6,14.5,26.6,14.4,26.5"/>
					<path fill="#245F85" d="M14.6,26.6l4.5-1.3c0.1,0,0.2,0,0.2,0l-4.5,1.3C14.8,26.6,14.7,26.6,14.6,26.6"/>
					<path fill="#235C80" d="M14.9,26.6l4.5-1.3c0.1,0,0.2,0,0.3,0l-4.5,1.3C15,26.6,14.9,26.6,14.9,26.6"/>
					<path fill="#22597C" d="M15.1,26.6l4.5-1.3c0.1,0,0.2,0,0.3,0l-4.5,1.3C15.3,26.5,15.2,26.6,15.1,26.6"/>
					<path fill="#205677" d="M15.4,26.5l4.5-1.3c0.1,0,0.2,0,0.3-0.1l-4.5,1.3C15.6,26.5,15.5,26.5,15.4,26.5"/>
				</g>
			</g>
			<g enable-background="new    ">
				<defs>
					<path id="SVGID_3_" enable-background="new    " d="M10.7,8.7l4.5-1.3c0.2-0.1,0.5-0.1,0.7-0.2l-4.5,1.3
						C11.2,8.5,11,8.6,10.7,8.7z"/>
				</defs>
				<clipPath id="SVGID_4_">
					<use xlink:href="#SVGID_3_"  overflow="visible"/>
				</clipPath>
				<g clip-path="url(#SVGID_4_)" enable-background="new    ">
					<path fill="#205677" d="M10.7,8.7l4.5-1.3c0.2-0.1,0.5-0.1,0.7-0.2l-4.5,1.3C11.2,8.5,11,8.6,10.7,8.7"/>
				</g>
			</g>
			<g enable-background="new    ">
				<defs>
					<path id="SVGID_5_" enable-background="new    " d="M22.9,33.4l-4.5,1.3c0.7-0.2,1.3-0.5,1.9-0.8l4.5-1.3
						C24.2,33,23.6,33.3,22.9,33.4z"/>
				</defs>
				<clipPath id="SVGID_6_">
					<use xlink:href="#SVGID_5_"  overflow="visible"/>
				</clipPath>
				<g clip-path="url(#SVGID_6_)" enable-background="new    ">
					<path fill="#1F5373" d="M20.3,34l4.5-1.3c-0.6,0.3-1.2,0.6-1.9,0.8l-4.5,1.3C19,34.6,19.7,34.3,20.3,34"/>
				</g>
			</g>
			<g>
				<polygon fill="#3387BC" points="17.2,5.5 21.8,4.1 21.8,7.7 17.2,9 				"/>
			</g>
			<g>
				<polygon fill="#27678F" points="11.4,4.8 16,3.5 21.8,4.1 17.2,5.5 				"/>
			</g>
			<g>
				<polygon fill="#3997D1" points="24.4,29.8 28.9,28.5 31.2,31.3 26.7,32.7 				"/>
			</g>
			<g>
				<polygon fill="#205677" points="26.7,32.7 31.2,31.3 27.2,35.6 22.6,37 				"/>
			</g>
			<g enable-background="new    ">
				<defs>
					<path id="SVGID_7_" enable-background="new    " d="M17.2,9l4.5-1.3c1.1,0.4,2.1,1,3.1,1.8l-4.5,1.3C19.3,10.1,18.3,9.5,17.2,9
						z"/>
				</defs>
				<clipPath id="SVGID_8_">
					<use xlink:href="#SVGID_7_"  overflow="visible"/>
				</clipPath>
				<g clip-path="url(#SVGID_8_)" enable-background="new    ">
					<path fill="#2B729F" d="M17.2,9l4.5-1.3c0.1,0,0.2,0.1,0.3,0.1l-4.5,1.3C17.5,9.1,17.3,9.1,17.2,9"/>
					<path fill="#2C76A4" d="M17.6,9.2l4.5-1.3c0.2,0.1,0.4,0.2,0.6,0.3l-4.5,1.3C17.9,9.3,17.8,9.3,17.6,9.2"/>
					<path fill="#2E79A8" d="M18.1,9.4l4.5-1.3c0.2,0.1,0.4,0.2,0.6,0.3l-4.5,1.3C18.5,9.6,18.3,9.5,18.1,9.4"/>
					<path fill="#2F7CAC" d="M18.7,9.7l4.5-1.3c0.2,0.1,0.4,0.2,0.6,0.3l-4.5,1.3C19.1,9.9,18.9,9.8,18.7,9.7"/>
					<path fill="#307FB1" d="M19.2,10.1l4.5-1.3C24,8.9,24.2,9,24.4,9.1l-4.5,1.3C19.6,10.3,19.4,10.2,19.2,10.1"/>
					<path fill="#3182B5" d="M19.8,10.5l4.5-1.3c0.2,0.1,0.3,0.3,0.5,0.4l-4.5,1.3C20.2,10.7,20,10.6,19.8,10.5"/>
				</g>
			</g>
			<g enable-background="new    ">
				<defs>
					<path id="SVGID_9_" enable-background="new    " d="M25.7,26.4l4.5-1.3c-0.3,1.2-0.7,2.3-1.3,3.3l-4.5,1.3
						C25,28.7,25.4,27.6,25.7,26.4z"/>
				</defs>
				<clipPath id="SVGID_10_">
					<use xlink:href="#SVGID_9_"  overflow="visible"/>
				</clipPath>
				<g clip-path="url(#SVGID_10_)" enable-background="new    ">
					<polyline fill="#2A6F9B" points="25.7,26.4 30.2,25.1 30.2,25.1 25.7,26.4 25.7,26.4 					"/>
					<path fill="#296C96" d="M25.7,26.4l4.5-1.3c0,0.2-0.1,0.4-0.2,0.6l-4.5,1.3C25.6,26.9,25.6,26.7,25.7,26.4"/>
					<path fill="#286992" d="M25.5,27.1l4.5-1.3c-0.1,0.2-0.1,0.4-0.2,0.6l-4.5,1.3C25.4,27.5,25.4,27.3,25.5,27.1"/>
					<path fill="#26668D" d="M25.3,27.7l4.5-1.3c-0.1,0.2-0.1,0.4-0.2,0.6l-4.5,1.3C25.2,28.1,25.2,27.9,25.3,27.7"/>
					<path fill="#256389" d="M25.1,28.3l4.5-1.3c-0.1,0.2-0.2,0.4-0.3,0.6L24.8,29C24.9,28.8,25,28.6,25.1,28.3"/>
					<path fill="#245F85" d="M24.8,29l4.5-1.3c-0.1,0.2-0.2,0.5-0.3,0.7l-4.5,1.3C24.6,29.4,24.7,29.2,24.8,29"/>
					<path fill="#235C80" d="M24.5,29.7l4.5-1.3c0,0,0,0.1-0.1,0.1l-4.5,1.3C24.4,29.7,24.4,29.7,24.5,29.7"/>
				</g>
			</g>
			<g enable-background="new    ">
				<defs>
					<path id="SVGID_11_" enable-background="new    " d="M24.4,16l4.5-1.3c0.6,1.2,1,2.5,1.3,3.7l-4.5,1.3
						C25.4,18.5,25,17.2,24.4,16z"/>
				</defs>
				<clipPath id="SVGID_12_">
					<use xlink:href="#SVGID_11_"  overflow="visible"/>
				</clipPath>
				<g clip-path="url(#SVGID_12_)" enable-background="new    ">
					<path fill="#368FC7" d="M24.4,16l4.5-1.3c0.4,0.7,0.7,1.5,0.9,2.2l-4.5,1.3C25.1,17.5,24.8,16.7,24.4,16"/>
					<path fill="#358CC2" d="M25.3,18.3l4.5-1.3c0.1,0.4,0.3,0.9,0.3,1.3l-4.5,1.3C25.6,19.1,25.5,18.7,25.3,18.3"/>
					<path fill="#3489BE" d="M25.7,19.6l4.5-1.3c0,0.1,0,0.1,0,0.2l-4.5,1.3C25.7,19.7,25.7,19.6,25.7,19.6"/>
				</g>
			</g>
			<g>
				<polygon fill="#205677" points="26.6,13.7 31.1,12.4 29,14.7 24.4,16 				"/>
			</g>
			<g>
				<polygon fill="#3997D1" points="22.5,8.6 27,7.2 31.1,12.4 26.6,13.7 				"/>
			</g>
			<g>
				<polygon fill="#3387BC" points="28.8,20.1 33.3,18.8 33.4,25.5 28.8,26.8 				"/>
			</g>
			<g>
				<path fill="#286B95" d="M25.7,26.4c-0.3,1.2-0.7,2.3-1.3,3.3l2.3,2.9L22.6,37l-2.4-3c-0.9,0.5-1.9,0.9-2.9,1l0,3.9l-5.8-0.6l0-4
					c-1-0.4-1.9-1-2.8-1.7l-2.4,2.6L2.2,30l2.4-2.6c-0.5-1.1-0.9-2.2-1.2-3.4L0,23.6L0,17l3.4,0.4C3.6,16.2,4,15.1,4.5,14l-2.4-3
					l4-4.3l2.3,2.9c0.9-0.6,2-1,3-1.2l0-3.7l5.8,0.6l0,3.6c1.1,0.4,2.1,1,3.1,1.8l2.2-2.3l4.1,5.2L24.4,16c0.6,1.2,1,2.5,1.3,3.7
					l3.1,0.3l0,6.7L25.7,26.4z M17.3,25.5c1.6-1.7,1.6-4.6,0-6.6c-0.8-1-1.8-1.6-2.8-1.7c-1.1-0.1-2.1,0.2-2.9,1.1
					c-1.6,1.7-1.6,4.6,0,6.6c0.8,1,1.8,1.5,2.8,1.7C15.4,26.7,16.5,26.3,17.3,25.5"/>
			</g>
			<g>
				<polygon fill="#27678F" points="25.7,19.8 30.3,18.4 33.3,18.8 28.8,20.1 				"/>
			</g>
		</g>
	</g>
	<g>
		<g enable-background="new    ">
			<g>
				<polygon fill="#27678F" points="30.8,33.8 33.4,33.1 35.3,33.3 32.7,34.1 				"/>
			</g>
			<g>
				<polygon fill="#205677" points="35.8,42.9 38.4,42.1 37,43.6 34.4,44.4 				"/>
			</g>
			<g>
				<polygon fill="#3997D1" points="34.3,28 37,27.2 38.3,28.9 35.7,29.6 				"/>
			</g>
			<g>
				<polygon fill="#3388BC" points="40.8,44.3 43.4,43.5 43.4,45.7 40.8,46.5 				"/>
			</g>
			<g enable-background="new    ">
				<defs>
					<path id="SVGID_13_" enable-background="new    " d="M38.3,34l2.6-0.8c-0.3,0.1-0.6,0.3-0.9,0.5c-0.9,1-0.9,2.7,0,3.8
						c0.4,0.6,1,0.9,1.6,1c0.3,0,0.5,0,0.8-0.1l-2.6,0.8c-0.3,0.1-0.5,0.1-0.8,0.1c-0.6-0.1-1.2-0.4-1.6-1c-0.9-1.2-0.9-2.9,0-3.8
						C37.7,34.3,38,34.1,38.3,34z"/>
				</defs>
				<clipPath id="SVGID_14_">
					<use xlink:href="#SVGID_13_"  overflow="visible"/>
				</clipPath>
				<g clip-path="url(#SVGID_14_)" enable-background="new    ">
					<path fill="#1F5373" d="M38.3,34l2.6-0.8c-0.3,0.1-0.6,0.3-0.9,0.5c0,0,0,0,0,0l-2.6,0.8c0,0,0,0,0,0
						C37.7,34.3,38,34.1,38.3,34"/>
					<path fill="#205677" d="M37.4,34.6l2.6-0.8C40,33.9,39.9,34,39.9,34l-2.6,0.8C37.3,34.7,37.4,34.7,37.4,34.6"/>
					<path fill="#22597C" d="M37.3,34.8l2.6-0.8c0,0-0.1,0.1-0.1,0.2l-2.6,0.8C37.2,34.9,37.2,34.8,37.3,34.8"/>
					<path fill="#235C80" d="M37.2,34.9l2.6-0.8c0,0-0.1,0.1-0.1,0.1l-2.6,0.8C37.1,35,37.1,35,37.2,34.9"/>
					<path fill="#245F85" d="M37.1,35.1l2.6-0.8c0,0,0,0.1-0.1,0.1L37,35.2C37,35.2,37,35.1,37.1,35.1"/>
					<path fill="#256389" d="M37,35.2l2.6-0.8c0,0,0,0.1-0.1,0.1l-2.6,0.8C37,35.3,37,35.3,37,35.2"/>
					<path fill="#26668D" d="M36.9,35.3l2.6-0.8c0,0,0,0.1,0,0.1l-2.6,0.8C36.9,35.4,36.9,35.4,36.9,35.3"/>
					<path fill="#286992" d="M36.9,35.5l2.6-0.8c0,0,0,0.1,0,0.1l-2.6,0.8C36.9,35.6,36.9,35.5,36.9,35.5"/>
					<path fill="#296C96" d="M36.9,35.6l2.6-0.8c0,0,0,0.1,0,0.1l-2.6,0.8C36.8,35.7,36.8,35.6,36.9,35.6"/>
					<path fill="#2A6F9B" d="M36.8,35.7l2.6-0.8c0,0,0,0.1,0,0.1l-2.6,0.8C36.8,35.8,36.8,35.8,36.8,35.7"/>
					<path fill="#2B729F" d="M36.8,35.9l2.6-0.8c0,0,0,0.1,0,0.1L36.8,36C36.8,35.9,36.8,35.9,36.8,35.9"/>
					<path fill="#2C76A4" d="M36.8,36l2.6-0.8c0,0,0,0.1,0,0.1l-2.6,0.8C36.8,36.1,36.8,36,36.8,36"/>
					<path fill="#2E79A8" d="M36.8,36.1l2.6-0.8c0,0,0,0.1,0,0.1l-2.6,0.8C36.8,36.2,36.8,36.2,36.8,36.1"/>
					<path fill="#2F7CAC" d="M36.8,36.3l2.6-0.8c0,0,0,0.1,0,0.1l-2.6,0.8C36.8,36.4,36.8,36.3,36.8,36.3"/>
					<path fill="#307FB1" d="M36.8,36.4l2.6-0.8c0,0.1,0,0.1,0,0.2l-2.6,0.8C36.8,36.5,36.8,36.5,36.8,36.4"/>
					<path fill="#3182B5" d="M36.8,36.6l2.6-0.8c0,0.1,0,0.1,0,0.2l-2.6,0.8C36.8,36.7,36.8,36.6,36.8,36.6"/>
					<path fill="#3286BA" d="M36.8,36.7l2.6-0.8c0,0.1,0,0.1,0,0.2l-2.6,0.8C36.8,36.9,36.8,36.8,36.8,36.7"/>
					<path fill="#3489BE" d="M36.8,36.9l2.6-0.8c0,0.1,0,0.1,0,0.2l-2.6,0.8C36.8,37.1,36.8,37,36.8,36.9"/>
					<path fill="#358CC2" d="M36.8,37.1l2.6-0.8c0,0.1,0,0.2,0.1,0.3l-2.6,0.8C36.9,37.3,36.9,37.2,36.8,37.1"/>
					<path fill="#368FC7" d="M36.9,37.4l2.6-0.8c0.1,0.4,0.3,0.7,0.5,1l-2.6,0.8C37.2,38.1,37,37.7,36.9,37.4"/>
					<path fill="#358CC2" d="M37.4,38.4l2.6-0.8c0,0,0,0,0,0c0.1,0.1,0.1,0.1,0.2,0.2l-2.6,0.8C37.6,38.5,37.5,38.5,37.4,38.4
						C37.4,38.4,37.4,38.4,37.4,38.4"/>
					<path fill="#3489BE" d="M37.6,38.6l2.6-0.8c0,0,0.1,0.1,0.1,0.1l-2.6,0.8C37.7,38.7,37.7,38.7,37.6,38.6"/>
					<path fill="#3286BA" d="M37.8,38.7l2.6-0.8c0,0,0.1,0.1,0.1,0.1l-2.6,0.8C37.8,38.8,37.8,38.8,37.8,38.7"/>
					<path fill="#3182B5" d="M37.9,38.9l2.6-0.8c0,0,0.1,0.1,0.1,0.1L38,39C38,38.9,37.9,38.9,37.9,38.9"/>
					<path fill="#307FB1" d="M38,39l2.6-0.8c0,0,0.1,0.1,0.1,0.1L38.1,39C38.1,39,38,39,38,39"/>
					<path fill="#2F7CAC" d="M38.1,39l2.6-0.8c0,0,0.1,0,0.1,0.1l-2.6,0.8C38.2,39.1,38.2,39.1,38.1,39"/>
					<path fill="#2E79A8" d="M38.2,39.1l2.6-0.8c0,0,0.1,0,0.1,0.1l-2.6,0.8C38.3,39.1,38.3,39.1,38.2,39.1"/>
					<path fill="#2C76A4" d="M38.4,39.2l2.6-0.8c0,0,0.1,0,0.1,0.1l-2.6,0.8C38.4,39.2,38.4,39.2,38.4,39.2"/>
					<path fill="#2B729F" d="M38.5,39.2l2.6-0.8c0,0,0.1,0,0.1,0l-2.6,0.8C38.5,39.2,38.5,39.2,38.5,39.2"/>
					<path fill="#2A6F9B" d="M38.6,39.3l2.6-0.8c0,0,0.1,0,0.1,0l-2.6,0.8C38.7,39.3,38.6,39.3,38.6,39.3"/>
					<path fill="#296C96" d="M38.7,39.3l2.6-0.8c0,0,0.1,0,0.1,0l-2.6,0.8C38.8,39.3,38.7,39.3,38.7,39.3"/>
					<path fill="#286992" d="M38.8,39.3l2.6-0.8c0,0,0.1,0,0.1,0l-2.6,0.8C38.9,39.4,38.9,39.3,38.8,39.3"/>
					<path fill="#26668D" d="M38.9,39.4l2.6-0.8c0,0,0.1,0,0.1,0c0,0,0,0,0,0l-2.6,0.8c0,0,0,0,0,0C39,39.4,39,39.4,38.9,39.4"/>
					<path fill="#256389" d="M39.1,39.4l2.6-0.8c0,0,0.1,0,0.1,0l-2.6,0.8C39.1,39.4,39.1,39.4,39.1,39.4"/>
					<path fill="#245F85" d="M39.2,39.4l2.6-0.8c0,0,0.1,0,0.1,0l-2.6,0.8C39.3,39.4,39.2,39.4,39.2,39.4"/>
					<path fill="#235C80" d="M39.3,39.4l2.6-0.8c0.1,0,0.1,0,0.2,0l-2.6,0.8C39.4,39.4,39.4,39.4,39.3,39.4"/>
					<path fill="#22597C" d="M39.5,39.4l2.6-0.8c0.1,0,0.1,0,0.2,0l-2.6,0.8C39.6,39.4,39.5,39.4,39.5,39.4"/>
					<path fill="#205677" d="M39.7,39.4l2.6-0.8c0.1,0,0.1,0,0.2,0l-2.6,0.8C39.8,39.3,39.7,39.3,39.7,39.4"/>
				</g>
			</g>
			<g enable-background="new    ">
				<defs>
					<path id="SVGID_15_" enable-background="new    " d="M37,29.1l2.6-0.8c0.1,0,0.3-0.1,0.4-0.1L37.4,29C37.2,29,37.1,29,37,29.1z
						"/>
				</defs>
				<clipPath id="SVGID_16_">
					<use xlink:href="#SVGID_15_"  overflow="visible"/>
				</clipPath>
				<g clip-path="url(#SVGID_16_)" enable-background="new    ">
					<path fill="#205677" d="M37,29.1l2.6-0.8c0.1,0,0.3-0.1,0.4-0.1L37.4,29C37.2,29,37.1,29,37,29.1"/>
				</g>
			</g>
			<g enable-background="new    ">
				<defs>
					<path id="SVGID_17_" enable-background="new    " d="M44,43.4l-2.6,0.8c0.4-0.1,0.7-0.3,1.1-0.5l2.6-0.8
						C44.7,43.1,44.4,43.2,44,43.4z"/>
				</defs>
				<clipPath id="SVGID_18_">
					<use xlink:href="#SVGID_17_"  overflow="visible"/>
				</clipPath>
				<g clip-path="url(#SVGID_18_)" enable-background="new    ">
					<path fill="#1F5373" d="M42.5,43.7l2.6-0.8c-0.4,0.2-0.7,0.3-1.1,0.5l-2.6,0.8C41.7,44,42.1,43.9,42.5,43.7"/>
				</g>
			</g>
			<g>
				<polygon fill="#3387BC" points="40.7,27.2 43.3,26.5 43.3,28.5 40.7,29.3 				"/>
			</g>
			<g>
				<polygon fill="#27678F" points="37.4,26.9 40,26.1 43.3,26.5 40.7,27.2 				"/>
			</g>
			<g>
				<polygon fill="#3997D1" points="44.8,41.2 47.4,40.5 48.8,42.1 46.1,42.9 				"/>
			</g>
			<g>
				<polygon fill="#205677" points="46.1,42.9 48.8,42.1 46.4,44.6 43.8,45.4 				"/>
			</g>
			<g enable-background="new    ">
				<defs>
					<path id="SVGID_19_" enable-background="new    " d="M40.7,29.3l2.6-0.8c0.6,0.2,1.2,0.6,1.8,1l-2.6,0.8
						C41.9,29.9,41.3,29.5,40.7,29.3z"/>
				</defs>
				<clipPath id="SVGID_20_">
					<use xlink:href="#SVGID_19_"  overflow="visible"/>
				</clipPath>
				<g clip-path="url(#SVGID_20_)" enable-background="new    ">
					<path fill="#2B729F" d="M40.7,29.3l2.6-0.8c0.1,0,0.1,0.1,0.2,0.1l-2.6,0.8C40.8,29.3,40.8,29.3,40.7,29.3"/>
					<path fill="#2C76A4" d="M40.9,29.4l2.6-0.8c0.1,0,0.2,0.1,0.3,0.1l-2.6,0.8C41.1,29.5,41,29.4,40.9,29.4"/>
					<path fill="#2E79A8" d="M41.2,29.5l2.6-0.8c0.1,0.1,0.2,0.1,0.3,0.2l-2.6,0.8C41.4,29.6,41.3,29.6,41.2,29.5"/>
					<path fill="#2F7CAC" d="M41.5,29.7l2.6-0.8c0.1,0.1,0.2,0.1,0.3,0.2l-2.6,0.8C41.8,29.8,41.6,29.7,41.5,29.7"/>
					<path fill="#307FB1" d="M41.9,29.9l2.6-0.8c0.1,0.1,0.2,0.1,0.3,0.2l-2.6,0.8C42.1,30,42,29.9,41.9,29.9"/>
					<path fill="#3182B5" d="M42.2,30.1l2.6-0.8c0.1,0.1,0.2,0.1,0.3,0.2l-2.6,0.8C42.4,30.2,42.3,30.2,42.2,30.1"/>
				</g>
			</g>
			<g enable-background="new    ">
				<defs>
					<path id="SVGID_21_" enable-background="new    " d="M45.6,39.3l2.6-0.8c-0.2,0.7-0.4,1.3-0.7,1.9l-2.6,0.8
						C45.2,40.6,45.4,40,45.6,39.3z"/>
				</defs>
				<clipPath id="SVGID_22_">
					<use xlink:href="#SVGID_21_"  overflow="visible"/>
				</clipPath>
				<g clip-path="url(#SVGID_22_)" enable-background="new    ">
					<polyline fill="#2A6F9B" points="45.6,39.3 48.2,38.6 48.2,38.6 45.6,39.3 45.6,39.3 					"/>
					<path fill="#296C96" d="M45.6,39.3l2.6-0.8c0,0.1-0.1,0.2-0.1,0.4l-2.6,0.8C45.5,39.6,45.5,39.4,45.6,39.3"/>
					<path fill="#286992" d="M45.5,39.7l2.6-0.8c0,0.1-0.1,0.2-0.1,0.4L45.4,40C45.4,39.9,45.4,39.8,45.5,39.7"/>
					<path fill="#26668D" d="M45.4,40l2.6-0.8c0,0.1-0.1,0.2-0.1,0.4l-2.6,0.8C45.3,40.3,45.3,40.2,45.4,40"/>
					<path fill="#256389" d="M45.2,40.4l2.6-0.8c-0.1,0.1-0.1,0.3-0.2,0.4l-2.6,0.8C45.1,40.7,45.2,40.5,45.2,40.4"/>
					<path fill="#245F85" d="M45.1,40.8l2.6-0.8c-0.1,0.1-0.1,0.3-0.2,0.4l-2.6,0.8C44.9,41,45,40.9,45.1,40.8"/>
					<path fill="#235C80" d="M44.9,41.2l2.6-0.8c0,0,0,0,0,0.1L44.9,41.2C44.8,41.2,44.9,41.2,44.9,41.2"/>
				</g>
			</g>
			<g enable-background="new    ">
				<defs>
					<path id="SVGID_23_" enable-background="new    " d="M44.8,33.3l2.6-0.8c0.3,0.7,0.6,1.4,0.7,2.2l-2.6,0.8
						C45.4,34.7,45.2,34,44.8,33.3z"/>
				</defs>
				<clipPath id="SVGID_24_">
					<use xlink:href="#SVGID_23_"  overflow="visible"/>
				</clipPath>
				<g clip-path="url(#SVGID_24_)" enable-background="new    ">
					<path fill="#368FC7" d="M44.8,33.3l2.6-0.8c0.2,0.4,0.4,0.9,0.5,1.3l-2.6,0.8C45.2,34.2,45.1,33.7,44.8,33.3"/>
					<path fill="#358CC2" d="M45.4,34.6l2.6-0.8c0.1,0.2,0.1,0.5,0.2,0.8l-2.6,0.8C45.5,35.1,45.4,34.9,45.4,34.6"/>
					<path fill="#3489BE" d="M45.6,35.4l2.6-0.8c0,0,0,0.1,0,0.1l-2.6,0.8C45.6,35.4,45.6,35.4,45.6,35.4"/>
				</g>
			</g>
			<g>
				<polygon fill="#205677" points="46.1,32 48.7,31.2 47.5,32.5 44.8,33.3 				"/>
			</g>
			<g>
				<polygon fill="#3997D1" points="43.7,29 46.3,28.2 48.7,31.2 46.1,32 				"/>
			</g>
			<g>
				<polygon fill="#3387BC" points="47.4,35.7 50,34.9 50,38.7 47.4,39.5 				"/>
			</g>
			<g>
				<path fill="#286B95" d="M45.6,39.3c-0.2,0.7-0.4,1.3-0.7,1.9l1.3,1.7l-2.3,2.5l-1.4-1.7c-0.5,0.3-1.1,0.5-1.7,0.6l0,2.3
					l-3.3-0.4l0-2.3c-0.6-0.2-1.1-0.6-1.6-1l-1.4,1.5l-2.4-3l1.4-1.5c-0.3-0.6-0.5-1.3-0.7-2l-2-0.2l0-3.9l1.9,0.2
					c0.1-0.7,0.4-1.3,0.7-1.9L32,30.5l2.3-2.5l1.3,1.7c0.5-0.3,1.1-0.6,1.7-0.7l0-2.1l3.3,0.4l0,2.1c0.6,0.2,1.2,0.6,1.8,1l1.2-1.3
					l2.4,3l-1.2,1.3c0.3,0.7,0.6,1.4,0.7,2.2l1.8,0.2l0,3.9L45.6,39.3z M40.7,38.8c0.9-1,0.9-2.7,0-3.8c-0.4-0.6-1-0.9-1.6-1
					c-0.6-0.1-1.2,0.1-1.7,0.6c-0.9,1-0.9,2.7,0,3.8c0.4,0.6,1,0.9,1.6,1C39.7,39.5,40.3,39.3,40.7,38.8"/>
			</g>
			<g>
				<polygon fill="#27678F" points="45.6,35.5 48.2,34.7 50,34.9 47.4,35.7 				"/>
			</g>
		</g>
	</g>
</g>
</svg>
