<?xml version="1.0" encoding="utf-8"?>
<!-- Generator: Adobe Illustrator 19.0.0, SVG Export Plug-In . SVG Version: 6.00 Build 0)  -->
<svg version="1.1" id="图层_1" xmlns="http://www.w3.org/2000/svg" xmlns:xlink="http://www.w3.org/1999/xlink" x="0px" y="0px"
	 viewBox="0 0 18 18" style="enable-background:new 0 0 18 18;" xml:space="preserve">
<style type="text/css">
	.st0{fill-rule:evenodd;clip-rule:evenodd;fill:#8B1616;}
</style>
<g>
	<path class="st0" d="M9,0C4,0,0,4,0,9c0,5,4,9,9,9c5,0,9-4,9-9C18,4,14,0,9,0L9,0z M8.6,4.1h1c0.3,0,0.4,0.1,0.4,0.5l-0.2,6.1
		c0,0.2-0.1,0.3-0.3,0.3H8.7c-0.2,0-0.3-0.1-0.3-0.3L8.1,4.5C8.1,4.2,8.3,4.1,8.6,4.1L8.6,4.1z M9.1,14.1c-0.6,0-1-0.5-1-1
		c0-0.6,0.5-1,1-1c0.6,0,1,0.5,1,1C10.1,13.6,9.6,14.1,9.1,14.1L9.1,14.1z"/>
</g>
</svg>
