<?xml version="1.0" encoding="utf-8"?>
<!-- Generator: Adobe Illustrator 19.0.0, SVG Export Plug-In . SVG Version: 6.00 Build 0)  -->
<svg version="1.1" id="图层_1" xmlns="http://www.w3.org/2000/svg" xmlns:xlink="http://www.w3.org/1999/xlink" x="0px" y="0px"
	 viewBox="0 0 18 18" style="enable-background:new 0 0 18 18;" xml:space="preserve">
<style type="text/css">
.st0{fill:#8B1616;}
</style>
<path id="XMLID_10_" class="st0" d="M17.3,3l-0.1,0H15H9L7.9,1.5l0,0L7,0.3L6.7,0H0.8C0.4,0,0,0.4,0,0.8v16.3C0,17.6,0.4,18,0.8,18h16.3
	c0.5,0,0.8-0.4,0.8-0.8V3.8C18,3.4,17.7,3.1,17.3,3z M8.6,5h1C9.9,5,10,5.3,10,5.7l-0.2,6.1c0,0.2-0.1,0.3-0.3,0.3H8.7
	c-0.2,0-0.3,0-0.3-0.2L8.1,5.5C8.1,5.2,8.3,5,8.6,5z M9.1,15.4c-0.6,0-1-0.5-1-1c0-0.6,0.5-1,1-1c0.6,0,1,0.5,1,1S9.6,15.4,9.1,15.4
	z"/>
</svg>