<?xml version="1.0" encoding="utf-8"?>
<!-- Generator: Adobe Illustrator 19.0.0, SVG Export Plug-In . SVG Version: 6.00 Build 0)  -->
<svg version="1.1" id="图层_1" xmlns="http://www.w3.org/2000/svg" xmlns:xlink="http://www.w3.org/1999/xlink" x="0px" y="0px"
	 viewBox="0 0 18 18" style="enable-background:new 0 0 18 18;" xml:space="preserve">
<style type="text/css">
	.st0{fill:#999999;}
</style>
<g>
	<path class="st0" d="M9,0c1.2,0,2.4,0.2,3.5,0.7s2.1,1.1,2.9,1.9s1.5,1.8,1.9,2.8C17.8,6.6,18,7.7,18,9c0,1.2-0.2,2.4-0.7,3.5
		s-1.1,2.1-1.9,2.9c-0.8,0.8-1.8,1.5-2.9,1.9C11.4,17.8,10.2,18,9,18s-2.4-0.2-3.5-0.7s-2-1.1-2.8-1.9c-0.8-0.8-1.5-1.8-1.9-2.9
		C0.2,11.4,0,10.2,0,9s0.2-2.4,0.7-3.5s1.1-2,1.9-2.8s1.8-1.5,2.8-1.9S7.7,0,9,0L9,0z"/>
</g>
</svg>
