<?xml version="1.0" encoding="utf-8"?>
<!-- Generator: Adobe Illustrator 19.0.0, SVG Export Plug-In . SVG Version: 6.00 Build 0)  -->
<svg version="1.1" id="图层_1" xmlns="http://www.w3.org/2000/svg" xmlns:xlink="http://www.w3.org/1999/xlink" x="0px" y="0px"
	 viewBox="0 0 18 18" style="enable-background:new 0 0 18 18;" xml:space="preserve">
<style type="text/css">
.st0{fill:#999999;}
</style>
	<path id="XMLID_8_" class="st0" d="M17.3,3l-0.1,0H15H9L7.9,1.5l0,0L7,0.3L6.7,0H0.8C0.4,0,0,0.4,0,0.8v16.3C0,17.6,0.4,18,0.8,18h16.3
	c0.5,0,0.8-0.4,0.8-0.8V3.8C18,3.4,17.7,3.1,17.3,3z M14.6,10.8C14.3,11,13.9,11,13.5,11H4.6c-0.4,0-0.8,0-1.1-0.2
	C3.2,10.6,3,10.3,3,9.9c0-0.4,0.2-0.6,0.5-0.8S4.2,9,4.6,9h8.8c0.4,0,0.8,0,1.1,0.2S15,9.6,15,10C15,10.4,14.9,10.6,14.6,10.8z"/>
</svg>