<?xml version="1.0" encoding="utf-8"?>
<!-- Generator: Adobe Illustrator 19.0.0, SVG Export Plug-In . SVG Version: 6.00 Build 0)  -->
<svg version="1.1" id="图层_1" xmlns="http://www.w3.org/2000/svg" xmlns:xlink="http://www.w3.org/1999/xlink" x="0px" y="0px"
	 viewBox="0 0 18 18" style="enable-background:new 0 0 18 18;" xml:space="preserve">
<style type="text/css">
	.st0{fill-rule:evenodd;clip-rule:evenodd;fill:#009C33;}
</style>
<g>
	<path class="st0" d="M9,0C4,0,0,4,0,9s4,9,9,9c5,0,9-4,9-9C18,4,14,0,9,0L9,0L9,0 M14.7,6.6c0,0-5.5,5.8-6.2,6.5
		c-0.5,0.5-1.1,0.3-1.4,0.1L3.3,9.6c-0.4-0.4-0.4-1,0-1.4c0.4-0.4,0.9-0.4,1.3,0l3.2,2.9c0,0,5.6-5.9,5.6-5.9c0.4-0.4,0.9-0.4,1.3,0
		C15.1,5.6,15.1,6.2,14.7,6.6L14.7,6.6L14.7,6.6 M14.7,6.6"/>
</g>
</svg>
