<?xml version="1.0" encoding="utf-8"?>
<!-- Generator: Adobe Illustrator 19.0.0, SVG Export Plug-In . SVG Version: 6.00 Build 0)  -->
<svg version="1.1" id="图层_1" xmlns="http://www.w3.org/2000/svg" xmlns:xlink="http://www.w3.org/1999/xlink" x="0px" y="0px"
	 viewBox="0 0 18 18" style="enable-background:new 0 0 18 18;" xml:space="preserve">
<style type="text/css">
.st0{fill:#009C33;}
</style>
	<path id="XMLID_9_" class="st0" d="M17.3,3l-0.1,0H15l0,0H9L7.9,1.5l0,0L7,0.3L6.7,0H0.8C0.4,0,0,0.4,0,0.8v16.3C0,17.6,0.4,18,0.8,18h16.3
	c0.5,0,0.8-0.4,0.8-0.8V3.8C18,3.4,17.7,3.1,17.3,3z M15.7,7.6c0,0-5.5,5.8-6.2,6.5c-0.5,0.5-1.1,0.3-1.4,0.1l-3.8-3.6
	c-0.4-0.4-0.4-1,0-1.4c0.4-0.4,0.9-0.4,1.3,0l3.2,2.9l5.6-5.9c0.4-0.4,0.9-0.4,1.3,0C16.1,6.6,16.1,7.2,15.7,7.6z"/>
</svg>