<?xml version="1.0" encoding="utf-8"?>
<!-- Generator: Adobe Illustrator 18.0.0, SVG Export Plug-In . SVG Version: 6.00 Build 0)  -->
<!DOCTYPE svg PUBLIC "-//W3C//DTD SVG 1.1//EN" "http://www.w3.org/Graphics/SVG/1.1/DTD/svg11.dtd">
<svg version="1.1" id="图层_1" xmlns="http://www.w3.org/2000/svg" xmlns:xlink="http://www.w3.org/1999/xlink" x="0px" y="0px"
	 viewBox="0 0 16 16" enable-background="new 0 0 16 16" xml:space="preserve">
<g>
	<defs>
		<rect id="SVGID_1_" width="16" height="16"/>
	</defs>
	<clipPath id="SVGID_2_">
		<use xlink:href="#SVGID_1_"  overflow="visible"/>
	</clipPath>
</g>
<path fill="#000A8B" d="M12.6,11.4V1.1c0-0.6-0.5-1.1-1.1-1.1H1.1C0.5,0,0,0.5,0,1.1v10.3c0,0.6,0.5,1.1,1.1,1.1h10.3
	C12.1,12.6,12.6,12.1,12.6,11.4 M10.3,11.4h-8c-0.6,0-1.1-0.5-1.1-1.1v-8c0-0.6,0.5-1.1,1.1-1.1h8c0.6,0,1.1,0.5,1.1,1.1v8
	C11.4,10.9,10.9,11.4,10.3,11.4 M14.9,3.4h-1.1v1.1c0.6,0,1.1,0.5,1.1,1.1v8c0,0.6-0.5,1.1-1.1,1.1h-8c-0.6,0-1.1-0.5-1.1-1.1H3.4
	v1.1c0,0.6,0.5,1.1,1.1,1.1h10.3c0.6,0,1.1-0.5,1.1-1.1V4.6C16,3.9,15.5,3.4,14.9,3.4"/>
</svg>
