<?xml version="1.0" encoding="utf-8"?>
<!-- Generator: Adobe Illustrator 18.0.0, SVG Export Plug-In . SVG Version: 6.00 Build 0)  -->
<!DOCTYPE svg PUBLIC "-//W3C//DTD SVG 1.1//EN" "http://www.w3.org/Graphics/SVG/1.1/DTD/svg11.dtd">
<svg version="1.1" id="图层_1" xmlns="http://www.w3.org/2000/svg" xmlns:xlink="http://www.w3.org/1999/xlink" x="0px" y="0px"
	 viewBox="0 0 16 16" enable-background="new 0 0 16 16" xml:space="preserve">
<g>
	<path fill="#00698B" d="M13.5,0.2L8.1,7.3L2.4,0.2c0,0-1.8,2.1-0.1,4.4c1.7,2.4,5.8,7.1,5.8,7.1l6-7.6C14.1,4,15.1,2.1,13.5,0.2z
		 M8.1,10.2c-0.5,0-0.9-0.4-0.8-0.9c0-0.4,0.4-0.8,0.8-0.8c0.5,0,0.9,0.4,0.9,0.8C8.9,9.8,8.5,10.2,8.1,10.2z"/>
	<path fill="#00698B" d="M11.6,10.4c-1.5,0-2.8,1.3-2.8,2.8s1.3,2.8,2.8,2.8c1.5,0,2.8-1.3,2.8-2.8S13.2,10.4,11.6,10.4 M11.6,14.6
		c-0.8,0-1.4-0.6-1.4-1.4c0-0.8,0.6-1.4,1.4-1.4c0.8,0,1.4,0.6,1.4,1.4C13,14,12.4,14.6,11.6,14.6"/>
	<path fill="#00698B" d="M4.6,10.4c-1.5,0-2.8,1.3-2.8,2.8S3,16,4.6,16s2.8-1.3,2.8-2.8S6.1,10.4,4.6,10.4 M4.6,14.6
		c-0.8,0-1.4-0.6-1.4-1.4c0-0.8,0.6-1.4,1.4-1.4c0.8,0,1.4,0.6,1.4,1.4C6,14,5.4,14.6,4.6,14.6"/>
	<polygon fill="none" points="1.6,0.2 14.4,0 14.4,16 1.6,16 	"/>
</g>
</svg>
