<?xml version="1.0" encoding="utf-8"?>
<!-- Generator: Adobe Illustrator 18.0.0, SVG Export Plug-In . SVG Version: 6.00 Build 0)  -->
<!DOCTYPE svg PUBLIC "-//W3C//DTD SVG 1.1//EN" "http://www.w3.org/Graphics/SVG/1.1/DTD/svg11.dtd">
<svg version="1.1" id="图层_1" xmlns="http://www.w3.org/2000/svg" xmlns:xlink="http://www.w3.org/1999/xlink" x="0px" y="0px"
	 viewBox="0 0 16 16" enable-background="new 0 0 16 16" xml:space="preserve">
<path fill="#9F9D2C" d="M15.9,1.3c-0.2-0.6-0.6-1-1.1-1.2C10,0,10.4,0,3.4,0C3.4,0,2.3,0.2,2.1,1.4c0,0.2,0,0.5,0,0.7
	c-0.2,0-0.5,0-0.7,0c-0.6,0.1-1,0.5-1.2,1C0,3.5,0,6.7,0,14.7c0.2,0.6,0.6,1,1.1,1.2C6.6,16,11.3,16,11.9,16c0.6-0.1,1.7-0.2,2-1.4
	c0-0.2,0-0.5,0-0.7c0.2,0,0.5,0,0.7,0c0.6-0.1,1-0.5,1.2-1C15.9,7,16,5.9,15.9,1.3z M11.9,15.3c-1.7,0-1.9,0.1-10.1,0
	c-0.6-0.2-1.1-0.6-1.2-1.2c0-1.3,0-2.9,0-10.1c0.1-0.7,0.7-1.4,1.5-1.4v9c0,0.3,0,0.6,0,0.9c0.1,0.3,0.2,0.5,0.4,0.7
	c0.2,0.2,0.5,0.4,0.9,0.5c0.2,0,0.5,0,0.7,0h9.1C13.3,14.7,12.6,15.2,11.9,15.3z"/>
</svg>
