<?xml version="1.0" encoding="utf-8"?>
<!-- Generator: Adobe Illustrator 18.0.0, SVG Export Plug-In . SVG Version: 6.00 Build 0)  -->
<!DOCTYPE svg PUBLIC "-//W3C//DTD SVG 1.1//EN" "http://www.w3.org/Graphics/SVG/1.1/DTD/svg11.dtd">
<svg version="1.1" id="图层_1" xmlns="http://www.w3.org/2000/svg" xmlns:xlink="http://www.w3.org/1999/xlink" x="0px" y="0px"
	 viewBox="0 0 26 21" enable-background="new 0 0 26 21" xml:space="preserve">
<g>
	<g>
		<path fill="#FFFFFF" d="M6.1,7c1.4-0.7,3.5,0,3.7,1.4c0.5,1.4-1.2,2.9-2.9,2.6C4.6,10.9,4.1,7.9,6.1,7z"/>
	</g>
	<g>
		<path fill="#FFFFFF" d="M17.7,7c1.6-0.6,3.7,0.4,3.6,2c0.1,1.7-2.5,2.8-4,1.8C15.7,9.8,15.9,7.5,17.7,7z"/>
	</g>
	<path fill="#FFFFFF" d="M25.4,4.2c-1.1,0-2.2,0.1-3.3-0.1C21.4,2.5,20.5,1,18.9,0c-0.3,0.6-0.8,1-1.1,1.1c-2.9-1.2-6.5-1.2-9.4,0
		C8,1,7.6,0.6,7.2,0C5.4,1.1,4.4,2.6,3.6,4.1c-1,0.1-2,0-3,0.2c0.3,0.8,0.9,1.3,1.8,1.6c-1.2,1.5-2,3.4-1.3,5.2
		C2,13.4,3.5,15.5,3.2,18c0.7-0.1,1.6-0.4,2.1,0.2c2.5,2.2,6.3,3.2,9.9,2.6c2.4-0.4,4.4-1.6,6.1-3c0.5,0.1,1.1,0.2,1.6,0.2
		c-0.3-2.5,1.2-4.7,2.1-7c0.6-1.8-0.1-3.6-1.3-5.1C24.7,5.6,25.3,5,25.4,4.2z M19.4,4c-1.2,0.1-2.6,0.2-3.7,0.7
		c-1.1,0.4-1.9,1.3-2.6,2.1c-0.8-0.8-1.7-1.7-2.9-2.1C9.1,4.2,7.8,4.2,6.6,4C9.8,1,16.2,0.8,19.4,4z M2.6,10.3
		C2.2,8.2,3.9,6,6.4,5.6c2.4-0.4,5,0.9,5.6,2.9c0.9,2.4-1.4,5.2-4.4,5.2C5.2,13.9,2.9,12.3,2.6,10.3z M13.6,19.5
		c-3.8,0.3-7.6-1.8-9.1-4.8c0.6,0.2,1.4,0.2,1.9,0.6c1.8-0.1,3.6-0.5,5.2-1.3c0.5,0.7,0.9,1.4,1.4,2.1c0.5-0.7,1-1.4,1.5-2.1
		c1.5,0.9,3.4,1.3,5.2,1.3c0.5-0.3,1.1-0.3,1.7-0.4C20.2,17.5,16.9,19.4,13.6,19.5z M18.9,13.7c-2.5,0.2-4.8-1.6-5-3.7
		c-0.3-2,1.5-4,3.8-4.4c2.6-0.5,5.4,1.1,5.7,3.4C24,11.3,21.7,13.7,18.9,13.7z"/>
</g>
</svg>
