<?xml version="1.0" encoding="utf-8"?>
<!-- Generator: Adobe Illustrator 18.0.0, SVG Export Plug-In . SVG Version: 6.00 Build 0)  -->
<!DOCTYPE svg PUBLIC "-//W3C//DTD SVG 1.1//EN" "http://www.w3.org/Graphics/SVG/1.1/DTD/svg11.dtd">
<svg version="1.1" id="图层_1" xmlns="http://www.w3.org/2000/svg" xmlns:xlink="http://www.w3.org/1999/xlink" x="0px" y="0px"
	 viewBox="0 0 15 15" enable-background="new 0 0 15 15" xml:space="preserve" width="20" height="20">
<g>
	<path fill="#272636" d="M7.5,0C3.4,0,0,3.4,0,7.5C0,11.6,3.4,15,7.5,15c4.1,0,7.5-3.4,7.5-7.5C15,3.4,11.6,0,7.5,0 M7.5,13.8
		C4,13.8,1.2,11,1.2,7.5C1.2,4,4,1.2,7.5,1.2c3.5,0,6.3,2.8,6.3,6.3C13.8,11,11,13.8,7.5,13.8
		M7.1,5.2c0.2,0.1,0.5,0.2,0.7,0.2c0.3,0,0.5-0.2,0.7-0.4
		c0.2-0.2,0.2-0.4,0.2-0.7c0-0.2-0.2-0.4-0.4-0.6C8.1,3.6,7.8,3.5,7.5,3.6C7.3,3.6,7,3.7,6.9,3.9C6.7,4.1,6.6,4.4,6.7,4.6
		C6.7,4.9,6.8,5.1,7.1,5.2L7.1,5.2z M9.2,10.5c-0.1,0.1-0.2,0.1-0.3,0.1c-0.2,0-0.4,0-0.5,0c-0.1-0.1-0.2-0.2-0.2-0.4
		c0-0.1,0-0.2,0-0.3c0-0.2,0-0.3,0-0.4l0.2-1.5c0-0.1,0-0.3,0-0.4c0-0.2,0-0.3,0-0.3c0-0.3-0.2-0.5-0.4-0.7C7.7,6.3,7.4,6.3,7,6.3
		c-0.2,0-0.5,0.1-0.7,0.2C6.1,6.7,5.8,6.8,5.6,6.9l0,0.5c0.1,0,0.2-0.1,0.3-0.1c0.1,0,0.2-0.1,0.3-0.1c0.2,0,0.4,0,0.5,0
		c0.1,0.1,0.1,0.2,0.2,0.4c0,0.1,0,0.2,0,0.3c0,0.1,0,0.3,0,0.4L6.5,9.8c0,0.2,0,0.3,0,0.4c0,0.1,0,0.2,0,0.4c0,0.3,0.2,0.5,0.4,0.7
		c0.3,0.2,0.6,0.2,1,0.1c0.3,0,0.5-0.1,0.7-0.2c0.2-0.1,0.4-0.2,0.8-0.4l0-0.5C9.4,10.4,9.3,10.4,9.2,10.5L9.2,10.5z"/>
</g>
</svg>
