<?xml version="1.0" encoding="utf-8"?>
<!-- Generator: Adobe Illustrator 18.0.0, SVG Export Plug-In . SVG Version: 6.00 Build 0)  -->
<!DOCTYPE svg PUBLIC "-//W3C//DTD SVG 1.1//EN" "http://www.w3.org/Graphics/SVG/1.1/DTD/svg11.dtd">
<svg version="1.1" id="图层_1" xmlns="http://www.w3.org/2000/svg" xmlns:xlink="http://www.w3.org/1999/xlink" x="0px" y="0px"
	 viewBox="0 0 20 20" enable-background="new 0 0 20 20" xml:space="preserve" width="20" height="20">
<g>
	<path fill="#5A5A5A" d="M10,0.1"/>
</g>
<path fill="#666666" d="M12.7,12.2c-0.1,0-0.9-0.4-0.4-1.9h0c1.3-1.3,2.2-3.4,2.2-5.4c0-3.2-2.1-4.8-4.5-4.8c-2.4,0-4.5,1.7-4.5,4.8
	c0,2.1,1,4.2,2.2,5.5c0.5,1.3-0.4,1.8-0.6,1.8c-2.6,0.9-5.6,2.6-5.6,4.3v0.6c0,2.3,4.4,2.8,8.5,2.8c4.1,0,8.4-0.5,8.4-2.8v-0.6
	C18.4,14.8,15.4,13.1,12.7,12.2"/>
</svg>
