<?xml version="1.0" encoding="utf-8"?>
<!-- Generator: Adobe Illustrator 18.0.0, SVG Export Plug-In . SVG Version: 6.00 Build 0)  -->
<!DOCTYPE svg PUBLIC "-//W3C//DTD SVG 1.1//EN" "http://www.w3.org/Graphics/SVG/1.1/DTD/svg11.dtd">
<svg version="1.1" id="图层_1" xmlns="http://www.w3.org/2000/svg" xmlns:xlink="http://www.w3.org/1999/xlink" x="0px" y="0px"
	 viewBox="0 0 20 20" enable-background="new 0 0 20 20" xml:space="preserve" width="20" height="20">
<g>
	<path fill="#5A5A5A" d="M10,0.1"/>
</g>
<path fill="#272636" d="M53,241c-18.5,32.1-59.6,43.1-91.7,24.6C-70.7,247-81.7,206-63.2,173.9L53,241z M200.7-132.3
	c-8.7-15.1-8.8-33.7,0-48.8c0,0,0-0.1,0-0.1c13.6-23.5,5.5-53.6-18-67.2c-23.5-13.6-53.6-5.5-67.2,18c0,0,0,0.1,0,0.1
	c-8.7,15.1-24.8,24.4-42.3,24.4C-53.1-206.3-103,6-220.6-19.2L-245,23l406.5,234.7l24.4-42.2C105.2,126.3,264.1-23.1,200.7-132.3
	 M168.1-223.1c9.5,5.5,12.8,17.7,7.3,27.3c-5.5,9.5-17.7,12.8-27.3,7.3c-9.5-5.5-12.8-17.7-7.3-27.3
	C146.3-225.3,158.6-228.6,168.1-223.1 M-153.4,21.3C-78.4-7.5-32.6-95.1,21.5-137.6c29.4-23.1,63.3-32.2,102.7-9.5
	c39,22.5,48.5,56.2,43.1,93.7c-9.7,68-62.7,151.5-50.1,230.9L-153.4,21.3z"/>
<path fill="#272636" d="M53,241c-18.5,32.1-59.6,43.1-91.7,24.6C-70.7,247-81.7,206-63.2,173.9L53,241z M200.7-132.3
	c-8.7-15.1-8.8-33.7,0-48.8c0,0,0-0.1,0-0.1c13.6-23.5,5.5-53.6-18-67.2c-23.5-13.6-53.6-5.5-67.2,18c0,0,0,0.1,0,0.1
	c-8.7,15.1-24.8,24.4-42.3,24.4C-53.1-206.3-103,6-220.6-19.2L-245,23l406.5,234.7l24.4-42.2C105.2,126.3,264.1-23.1,200.7-132.3
	 M168.1-223.1c9.5,5.5,12.8,17.7,7.3,27.3c-5.5,9.5-17.7,12.8-27.3,7.3c-9.5-5.5-12.8-17.7-7.3-27.3
	C146.3-225.3,158.6-228.6,168.1-223.1 M-153.4,21.3C-78.4-7.5-32.6-95.1,21.5-137.6c29.4-23.1,63.3-32.2,102.7-9.5
	c39,22.5,48.5,56.2,43.1,93.7c-9.7,68-62.7,151.5-50.1,230.9L-153.4,21.3z"/>
<path fill="#272636" d="M53,241c-18.5,32.1-59.6,43.1-91.7,24.6C-70.7,247-81.7,206-63.2,173.9L53,241z M200.7-132.3
	c-8.7-15.1-8.8-33.7,0-48.8c0,0,0-0.1,0-0.1c13.6-23.5,5.5-53.6-18-67.2c-23.5-13.6-53.6-5.5-67.2,18c0,0,0,0.1,0,0.1
	c-8.7,15.1-24.8,24.4-42.3,24.4C-53.1-206.3-103,6-220.6-19.2L-245,23l406.5,234.7l24.4-42.2C105.2,126.3,264.1-23.1,200.7-132.3
	 M168.1-223.1c9.5,5.5,12.8,17.7,7.3,27.3c-5.5,9.5-17.7,12.8-27.3,7.3c-9.5-5.5-12.8-17.7-7.3-27.3
	C146.3-225.3,158.6-228.6,168.1-223.1 M-153.4,21.3C-78.4-7.5-32.6-95.1,21.5-137.6c29.4-23.1,63.3-32.2,102.7-9.5
	c39,22.5,48.5,56.2,43.1,93.7c-9.7,68-62.7,151.5-50.1,230.9L-153.4,21.3z"/>
<path fill="#5E5E5E" d="M12.5,18.6c-0.7,1.2-2.2,1.6-3.4,0.9c-1.2-0.7-1.6-2.2-0.9-3.4L12.5,18.6z M18,4.7c-0.3-0.6-0.3-1.3,0-1.8
	c0,0,0,0,0,0c0.5-0.9,0.2-2-0.7-2.5c-0.9-0.5-2-0.2-2.5,0.7c0,0,0,0,0,0c-0.3,0.6-0.9,0.9-1.6,0.9c-4.7,0-6.6,7.9-11,7l-0.9,1.6
	l15.2,8.8l0.9-1.6C14.5,14.4,20.4,8.8,18,4.7 M16.8,1.3c0.4,0.2,0.5,0.7,0.3,1c-0.2,0.4-0.7,0.5-1,0.3c-0.4-0.2-0.5-0.7-0.3-1
	C16,1.2,16.5,1.1,16.8,1.3 M4.8,10.4c2.8-1.1,4.5-4.4,6.5-5.9c1.1-0.9,2.4-1.2,3.8-0.4C16.6,5,17,6.2,16.8,7.6
	c-0.4,2.5-2.3,5.7-1.9,8.6L4.8,10.4z"/>
</svg>
