<?xml version="1.0" encoding="utf-8"?>
<!-- Generator: Adobe Illustrator 18.0.0, SVG Export Plug-In . SVG Version: 6.00 Build 0)  -->
<!DOCTYPE svg PUBLIC "-//W3C//DTD SVG 1.1//EN" "http://www.w3.org/Graphics/SVG/1.1/DTD/svg11.dtd">
<svg version="1.1" id="图层_1" xmlns="http://www.w3.org/2000/svg" xmlns:xlink="http://www.w3.org/1999/xlink" x="0px" y="0px"
	 viewBox="0 0 20 20" enable-background="new 0 0 20 20" xml:space="preserve" width="20" height="20">
<path fill="#5A5A5A" d="M15,16.3L15,16.3c-0.3,0-0.6-0.3-0.6-0.6c0-0.3,0.3-0.6,0.6-0.6h0.2c2.1,0,3.5-2.4,3.5-4.5
	c0-2.3-2-4.2-4.3-4.2l-0.4,0l-0.1-0.4c-0.6-2.1-2-3.3-4.5-3.3c-3.1,0-5.1,2.3-5.1,5.3l0,0l0.1,0.6L3.8,8.6c-1.4,0.2-2.5,1.6-2.5,3.2
	c0,1.8,1.4,3.2,3,3.2h0.6c0.3,0,0.6,0.3,0.6,0.6c0,0.3-0.3,0.6-0.6,0.6H4.3c-2.3,0-4.2-2.1-4.2-4.5c0-2,1.2-3.7,3-4.3
	C3.3,4,5.8,1.4,9.3,1.4c2.8,0,4.7,1.5,5.5,3.7c2.8,0.3,5,2.6,5,5.4C19.9,13.2,18.1,16.2,15,16.3L15,16.3L15,16.3z M10,17.3l2-2.2
	c0.2-0.2,0.5-0.2,0.6,0l0.2,0.1c0.2,0.2,0.2,0.4,0,0.6l-2.3,2.5c0,0,0,0,0,0l-0.2,0.2c-0.1,0.1-0.2,0.1-0.3,0.1
	c-0.1,0-0.2,0-0.3-0.1l-0.2-0.2c0,0,0,0,0,0l-2.2-2.5c-0.2-0.2-0.2-0.5,0-0.7l0.2-0.1c0.2-0.2,0.5-0.1,0.6,0L10,17.3z M10,9.7
	c0.3,0,0.6,0.3,0.6,0.6v6.8c0,0.3-0.3,0.6-0.6,0.6c-0.3,0-0.6-0.3-0.6-0.6v-6.8C9.4,10,9.7,9.7,10,9.7"/>
</svg>
