<?xml version="1.0" encoding="utf-8"?>
<!-- Generator: Adobe Illustrator 18.0.0, SVG Export Plug-In . SVG Version: 6.00 Build 0)  -->
<!DOCTYPE svg PUBLIC "-//W3C//DTD SVG 1.1//EN" "http://www.w3.org/Graphics/SVG/1.1/DTD/svg11.dtd">
<svg version="1.1" id="图层_1" xmlns="http://www.w3.org/2000/svg" xmlns:xlink="http://www.w3.org/1999/xlink" x="0px" y="0px"
	 viewBox="0 0 20 20" enable-background="new 0 0 20 20" xml:space="preserve" width="20" height="20">
<g>
	<path fill="#5A5A5A" d="M10,0.1"/>
</g>
<g>
	<path fill="#5A5A5A" d="M10,19.8c-4.7,0-8.5-3.8-8.5-8.5c0-3.4,2-6.3,4.9-7.7v2.8c-1.8,1.4-2.9,3.7-2.3,6.3c0.5,2.2,2.3,4,4.6,4.5
		c3.9,0.8,7.4-2.2,7.4-6c0-2-1-3.7-2.4-4.8V3.6c2.9,1.4,4.9,4.3,4.9,7.7C18.5,15.9,14.7,19.8,10,19.8"/>
	<path fill="#5A5A5A" d="M10,0.3c0.7,0,1.2,0.5,1.2,1.2v7.3c0,0.7-0.5,1.2-1.2,1.2c-0.7,0-1.2-0.5-1.2-1.2V1.5
		C8.8,0.8,9.3,0.3,10,0.3"/>
</g>
</svg>
