<?xml version="1.0" encoding="utf-8"?>
<!-- Generator: Adobe Illustrator 18.0.0, SVG Export Plug-In . SVG Version: 6.00 Build 0)  -->
<!DOCTYPE svg PUBLIC "-//W3C//DTD SVG 1.1//EN" "http://www.w3.org/Graphics/SVG/1.1/DTD/svg11.dtd">
<svg version="1.1" id="图层_1" xmlns="http://www.w3.org/2000/svg" xmlns:xlink="http://www.w3.org/1999/xlink" x="0px" y="0px"
	 viewBox="0 0 20 20" enable-background="new 0 0 20 20" xml:space="preserve" width="20" height="20">
<g>
	<path fill="#5A5A5A" d="M10,0.1c-5.5,0-9.9,4.4-9.9,9.9c0,5.5,4.4,9.9,9.9,9.9c5.5,0,9.9-4.4,9.9-9.9C19.9,4.5,15.5,0.1,10,0.1z
		 M10,18.3c-4.6,0-8.3-3.7-8.3-8.3c0-4.6,3.7-8.3,8.3-8.3c4.6,0,8.3,3.7,8.3,8.3C18.3,14.6,14.6,18.3,10,18.3z
		 M10,4C7.7,4,5.8,5.9,5.8,8.2c0,0.4,0,0.7,0.1,1h0C6,9.6,6.4,9.9,6.8,9.9c0.5,0,1-0.4,1-1c0-0.1,0-0.2,0-0.3
		h0c0-0.2-0.1-0.3-0.1-0.5c0-1.3,1-2.3,2.3-2.3c1.3,0,2.3,1,2.3,2.3c0,1.3-1,2.3-2.3,2.3c-0.5,0-1,0.4-1,1V14H11v-1.7
		c1.9-0.4,3.2-2.1,3.2-4.1C14.2,5.9,12.3,4,10,4"/>
	<rect x="9" y="14.6" fill="#5A5A5A" width="1.9" height="1.7"/>
</g>
</svg>
